{
.appVersion = "1268";
classes = (
{
automatic = 1;

glyphs = (
{
color = 1;
glyphname = A;
layers = (
{
anchors = (
{
name = bottom;
position = "{380, 0}";
},
{
name = ogonek;
position = "{685, 0}";
},
{
name = top;
position = "{476, 686}";
}
);
layerId = "873CAA12-270D-4223-A88E-AE8E101FDBE8";
paths = (
{
closed = 1;
nodes = (
"112 -4 OFFCURVE",
"148 14 OFFCURVE",
"167 49 CURVE SMOOTH",
"264 227 LINE",
"560 227 LINE",
"623 0 LINE",
"685 0 LINE",
"484 686 LINE",
"465 686 LINE",
"116 76 LINE SMOOTH",
"110 64 OFFCURVE",
"98 55 OFFCURVE",
"81 55 CURVE SMOOTH",
"65 55 OFFCURVE",
"56 66 OFFCURVE",
"54 81 CURVE",
"-4 73 LINE",
"-2 29 OFFCURVE",
"35 -4 OFFCURVE",
"80 -4 CURVE SMOOTH"
);
},
{
closed = 1;
nodes = (
"447 552 LINE",
"461 585 LINE",
"468 552 LINE",
"544 284 LINE",
"297 284 LINE"
);
}
);
width = 742;
},
{
anchors = (
{
name = bottom;
position = "{384, 11}";
},
{
name = ogonek;
position = "{696, -1}";
},
{
name = top;
position = "{478, 684}";
}
);
layerId = "0CAF3BED-C4AC-4024-B3E1-4C69D1EF7EC0";
paths = (
{
closed = 1;
nodes = (
"126 -4 OFFCURVE",
"167 16 OFFCURVE",
"187 53 CURVE SMOOTH",
"279 220 LINE",
"550 220 LINE",
"611 -1 LINE",
"696 -1 LINE",
"495 688 LINE",
"461 688 LINE",
"117 90 LINE SMOOTH",
"112 81 OFFCURVE",
"108 76 OFFCURVE",
"96 76 CURVE SMOOTH",
"82 76 OFFCURVE",
"79 85 OFFCURVE",
"79 102 CURVE",
"1 91 LINE",
"-5 39 OFFCURVE",
"40 -4 OFFCURVE",
"92 -4 CURVE SMOOTH"
);
},
{
closed = 1;
nodes = (
"459 543 LINE",
"457 540 LINE",
"458 543 LINE",
"459 542 LINE",
"527 298 LINE",
"323 298 LINE"
);
}
);
width = 753;
},
{
anchors = (
{
name = bottom;
position = "{378, -6}";
},
{
name = ogonek;
position = "{689, -6}";
},
{
name = top;
position = "{476, 694}";
}
);
layerId = "49C16FD3-6177-408B-A733-AEB3898BB77C";
paths = (
{
closed = 1;
nodes = (
"103 -3 OFFCURVE",
"136 13 OFFCURVE",
"153 47 CURVE SMOOTH",
"256 233 LINE",
"567 233 LINE",
"631 1 LINE",
"680 1 LINE",
"480 687 LINE",
"470 687 LINE",
"116 69 LINE",
"109 55 OFFCURVE",
"93 43 OFFCURVE",
"74 43 CURVE SMOOTH",
"56 43 OFFCURVE",
"44 54 OFFCURVE",
"40 68 CURVE",
"-5 62 LINE",
"-1 23 OFFCURVE",
"31 -3 OFFCURVE",
"71 -3 CURVE SMOOTH"
);
},
{
closed = 1;
nodes = (
"440 560 LINE",
"439 559 LINE",
"464 614 LINE",
"474 559 LINE",
"475 560 LINE",
"554 277 LINE",
"281 277 LINE"
);
}
);
width = 737;
}
);
leftKerningGroup = A;
rightKerningGroup = A;
unicode = 0041;
userData = {
position = 666;
width = 20;
};
},
{
color = 1;
glyphname = A.ss02;
layers = (
{
anchors = (
{
name = bottom;
position = "{302, 0}";
},
{
name = ogonek;
position = "{606, 0}";
},
{
name = top;
position = "{395, 703}";
}
);
layerId = "873CAA12-270D-4223-A88E-AE8E101FDBE8";
paths = (
{
closed = 1;
nodes = (
"57 0 LINE",
"184 227 LINE",
"479 227 LINE",
"544 0 LINE",
"606 0 LINE",
"406 703 LINE",
"387 703 LINE",
"-9 0 LINE"
);
},
{
closed = 1;
nodes = (
"348 516 LINE SMOOTH",
"361 540 OFFCURVE",
"373 572 OFFCURVE",
"381 595 CURVE",
"384 575 OFFCURVE",
"389 543 OFFCURVE",
"397 518 CURVE SMOOTH",
"463 284 LINE",
"216 284 LINE"
);
}
);
width = 663;
},
{
anchors = (
{
name = bottom;
position = "{300, 3}";
},
{
name = ogonek;
position = "{622, -1}";
},
{
name = top;
position = "{404, 704}";
}
);
layerId = "0CAF3BED-C4AC-4024-B3E1-4C69D1EF7EC0";
paths = (
{
closed = 1;
nodes = (
"80 -1 LINE",
"203 220 LINE",
"474 220 LINE",
"537 -1 LINE",
"622 -1 LINE",
"421 705 LINE",
"388 705 LINE",
"-9 -1 LINE"
);
},
{
closed = 1;
nodes = (
"366 506 LINE SMOOTH",
"372 517 OFFCURVE",
"377 530 OFFCURVE",
"384 544 CURVE",
"386 534 OFFCURVE",
"389 521 OFFCURVE",
"393 510 CURVE SMOOTH",
"452 298 LINE",
"247 298 LINE"
);
}
);
width = 679;
},
{
anchors = (
{
name = bottom;
position = "{294, 0}";
},
{
name = ogonek;
position = "{597, 1}";
},
{
name = top;
position = "{398, 704}";
}
);
layerId = "49C16FD3-6177-408B-A733-AEB3898BB77C";
paths = (
{
closed = 1;
nodes = (
"41 1 LINE",
"171 233 LINE",
"481 233 LINE",
"547 1 LINE",
"597 1 LINE",
"397 704 LINE",
"387 704 LINE",
"-9 1 LINE"
);
},
{
closed = 1;
nodes = (
"334 523 LINE SMOOTH",
"353 557 OFFCURVE",
"372 606 OFFCURVE",
"379 623 CURVE",
"382 609 OFFCURVE",
"388 560 OFFCURVE",
"398 525 CURVE SMOOTH",
"469 277 LINE",
"195 277 LINE"
);
}
);
width = 654;
}
);
leftKerningGroup = A;
rightKerningGroup = A;
userData = {
position = 10;
width = 615;
};
},
{
color = 1;
glyphname = AE;
layers = (
{
anchors = (
{
name = top;
position = "{527, 682}";
}
);
layerId = "873CAA12-270D-4223-A88E-AE8E101FDBE8";
paths = (
{
closed = 1;
nodes = (
"62 0 LINE",
"211 227 LINE",
"402 227 LINE",
"370 0 LINE",
"838 0 LINE",
"846 57 LINE",
"439 57 LINE",
"478 333 LINE",
"795 333 LINE",
"803 390 LINE",
"486 390 LINE",
"519 627 LINE",
"906 627 LINE",
"914 684 LINE",
"442 684 LINE",
"-13 0 LINE"
);
},
{
closed = 1;
nodes = (
"442 587 LINE",
"457 623 LINE",
"410 284 LINE",
"246 284 LINE"
);
}
);
width = 905;
},
{
anchors = (
{
name = top;
position = "{533, 673}";
}
);
layerId = "0CAF3BED-C4AC-4024-B3E1-4C69D1EF7EC0";
paths = (
{
closed = 1;
nodes = (
"88 -1 LINE",
"233 220 LINE",
"399 220 LINE",
"368 -1 LINE",
"846 -1 LINE",
"857 78 LINE",
"462 78 LINE",
"496 322 LINE",
"803 322 LINE",
"814 401 LINE",
"507 401 LINE",
"536 608 LINE",
"911 608 LINE",
"922 686 LINE",
"446 686 LINE",
"-11 -1 LINE"
);
},
{
closed = 1;
nodes = (
"461 576 LINE",
"442 538 LINE",
"410 298 LINE",
"282 298 LINE"
);
}
);
width = 917;
},
{
anchors = (
{
name = bottom;
position = "{439, 0}";
},
{
name = top;
position = "{524, 690}";
}
);
layerId = "49C16FD3-6177-408B-A733-AEB3898BB77C";
paths = (
{
closed = 1;
nodes = (
"45 1 LINE",
"198 233 LINE",
"405 233 LINE",
"372 1 LINE",
"835 1 LINE",
"841 45 LINE",
"426 45 LINE",
"468 341 LINE",
"791 341 LINE",
"797 385 LINE",
"474 385 LINE",
"510 641 LINE",
"905 641 LINE",
"911 685 LINE",
"442 685 LINE",
"-13 1 LINE"
);
},
{
closed = 1;
nodes = (
"430 595 LINE",
"467 677 LINE",
"411 277 LINE",
"224 277 LINE"
);
}
);
width = 899;
}
);
leftKerningGroup = A;
leftMetricsKey = A;
unicode = 00C6;
userData = {
position = 422;
width = 61;
};
},
{
color = 1;
glyphname = B;
layers = (
{
layerId = "873CAA12-270D-4223-A88E-AE8E101FDBE8";
paths = (
{
closed = 1;
nodes = (
"435 -10 OFFCURVE",
"550 45 OFFCURVE",
"569 178 CURVE SMOOTH",
"570 189 OFFCURVE",
"571 200 OFFCURVE",
"571 210 CURVE SMOOTH",
"571 276 OFFCURVE",
"542 326 OFFCURVE",
"488 357 CURVE",
"460 368 LINE",
"484 375 OFFCURVE",
"489 377 OFFCURVE",
"492 377 CURVE SMOOTH",
"547 406 OFFCURVE",
"587 464 OFFCURVE",
"587 538 CURVE SMOOTH",
"587 632 OFFCURVE",
"513 695 OFFCURVE",
"407 695 CURVE SMOOTH",
"185 695 LINE SMOOTH",
"156 695 OFFCURVE",
"131 684 OFFCURVE",
"107 665 CURVE SMOOTH",
"87 645 OFFCURVE",
"73 621 OFFCURVE",
"69 592 CURVE",
"125 588 LINE",
"126 598 OFFCURVE",
"134 615 OFFCURVE",
"147 624 CURVE SMOOTH",
"156 634 OFFCURVE",
"171 639 OFFCURVE",
"202 639 CURVE",
"110 1 LINE",
"164 -5 LINE SMOOTH",
"205 -9 OFFCURVE",
"260 -10 OFFCURVE",
"282 -10 CURVE SMOOTH"
);
},
{
closed = 1;
nodes = (
"268 45 OFFCURVE",
"264 46 OFFCURVE",
"176 50 CURVE",
"261 639 LINE",
"417 639 LINE",
"484 635 OFFCURVE",
"528 604 OFFCURVE",
"528 541 CURVE SMOOTH",
"528 489 OFFCURVE",
"507 450 OFFCURVE",
"472 425 CURVE SMOOTH",
"445 403 OFFCURVE",
"405 390 OFFCURVE",
"363 390 CURVE SMOOTH",
"277 390 LINE",
"269 335 LINE",
"366 335 LINE SMOOTH",
"450 335 OFFCURVE",
"513 292 OFFCURVE",
"513 212 CURVE SMOOTH",
"513 204 OFFCURVE",
"512 196 OFFCURVE",
"511 187 CURVE SMOOTH",
"497 83 OFFCURVE",
"408 45 OFFCURVE",
"286 45 CURVE SMOOTH"
);
}
);
width = 623;
},
{
layerId = "0CAF3BED-C4AC-4024-B3E1-4C69D1EF7EC0";
paths = (
{
closed = 1;
nodes = (
"436 -10 OFFCURVE",
"557 48 OFFCURVE",
"576 184 CURVE SMOOTH",
"577 195 OFFCURVE",
"578 205 OFFCURVE",
"578 215 CURVE SMOOTH",
"578 283 OFFCURVE",
"547 337 OFFCURVE",
"491 368 CURVE",
"462 379 LINE",
"461 356 LINE",
"486 363 OFFCURVE",
"493 368 OFFCURVE",
"495 367 CURVE",
"552 396 OFFCURVE",
"593 459 OFFCURVE",
"593 534 CURVE SMOOTH",
"593 631 OFFCURVE",
"516 697 OFFCURVE",
"409 697 CURVE SMOOTH",
"193 697 LINE SMOOTH",
"163 697 OFFCURVE",
"134 684 OFFCURVE",
"109 665 CURVE SMOOTH",
"89 645 OFFCURVE",
"73 617 OFFCURVE",
"69 589 CURVE SMOOTH",
"68 582 OFFCURVE",
"68 578 OFFCURVE",
"68 574 CURVE",
"133 572 LINE",
"147 581 LINE",
"147 589 OFFCURVE",
"152 601 OFFCURVE",
"162 607 CURVE",
"167 614 OFFCURVE",
"176 618 OFFCURVE",
"195 619 CURVE",
"106 2 LINE",
"169 -5 LINE SMOOTH",
"209 -9 OFFCURVE",
"263 -10 OFFCURVE",
"285 -10 CURVE SMOOTH"
);
},
{
closed = 1;
nodes = (
"276 66 OFFCURVE",
"272 67 OFFCURVE",
"197 71 CURVE",
"276 619 LINE",
"415 619 LINE",
"474 616 OFFCURVE",
"513 589 OFFCURVE",
"513 535 CURVE SMOOTH",
"513 486 OFFCURVE",
"493 454 OFFCURVE",
"463 432 CURVE SMOOTH",
"440 412 OFFCURVE",
"405 401 OFFCURVE",
"366 401 CURVE SMOOTH",
"271 401 LINE",
"260 324 LINE",
"366 324 LINE SMOOTH",
"442 324 OFFCURVE",
"499 286 OFFCURVE",
"499 214 CURVE SMOOTH",
"499 207 OFFCURVE",
"498 200 OFFCURVE",
"497 193 CURVE SMOOTH",
"484 101 OFFCURVE",
"406 66 OFFCURVE",
"292 66 CURVE SMOOTH"
);
}
);
width = 629;
},
{
anchors = (
{
name = bottom;
position = "{290, 0}";
},
{
name = top;
position = "{386, 684}";
}
);
layerId = "49C16FD3-6177-408B-A733-AEB3898BB77C";
paths = (
{
closed = 1;
nodes = (
"433 -9 OFFCURVE",
"544 45 OFFCURVE",
"563 178 CURVE SMOOTH",
"565 189 OFFCURVE",
"565 200 OFFCURVE",
"565 210 CURVE SMOOTH",
"565 274 OFFCURVE",
"536 321 OFFCURVE",
"484 352 CURVE",
"434 370 LINE",
"478 381 OFFCURVE",
"485 384 OFFCURVE",
"489 385 CURVE",
"543 412 OFFCURVE",
"582 470 OFFCURVE",
"582 544 CURVE SMOOTH",
"582 636 OFFCURVE",
"510 696 OFFCURVE",
"405 696 CURVE SMOOTH",
"178 696 LINE SMOOTH",
"150 696 OFFCURVE",
"127 686 OFFCURVE",
"104 667 CURVE SMOOTH",
"85 649 OFFCURVE",
"73 629 OFFCURVE",
"69 604 CURVE",
"111 602 LINE",
"115 613 OFFCURVE",
"123 627 OFFCURVE",
"135 636 CURVE SMOOTH",
"147 648 OFFCURVE",
"165 654 OFFCURVE",
"203 653 CURVE",
"110 1 LINE",
"158 -4 LINE SMOOTH",
"199 -8 OFFCURVE",
"256 -9 OFFCURVE",
"277 -9 CURVE SMOOTH"
);
},
{
closed = 1;
nodes = (
"262 33 OFFCURVE",
"259 34 OFFCURVE",
"162 38 CURVE",
"250 653 LINE",
"415 653 LINE",
"485 649 OFFCURVE",
"535 613 OFFCURVE",
"535 544 CURVE SMOOTH",
"535 491 OFFCURVE",
"512 449 OFFCURVE",
"474 422 CURVE SMOOTH",
"446 399 OFFCURVE",
"404 385 OFFCURVE",
"360 385 CURVE SMOOTH",
"278 385 LINE",
"272 343 LINE",
"363 343 LINE SMOOTH",
"451 343 OFFCURVE",
"520 294 OFFCURVE",
"520 207 CURVE SMOOTH",
"520 200 OFFCURVE",
"519 191 OFFCURVE",
"518 183 CURVE SMOOTH",
"502 73 OFFCURVE",
"408 33 OFFCURVE",
"283 33 CURVE SMOOTH"
);
}
);
width = 617;
}
);
leftKerningGroup = E;
rightKerningGroup = B;
unicode = 0042;
userData = {
position = 514;
width = 59;
};
},
{
color = 1;
glyphname = B.ss01;
layers = (
{
layerId = "873CAA12-270D-4223-A88E-AE8E101FDBE8";
paths = (
{
closed = 1;
nodes = (
"449 -10 OFFCURVE",
"554 46 OFFCURVE",
"573 177 CURVE SMOOTH",
"575 189 OFFCURVE",
"575 200 OFFCURVE",
"575 210 CURVE SMOOTH",
"575 280 OFFCURVE",
"542 327 OFFCURVE",
"491 356 CURVE",
"489 359 OFFCURVE",
"484 361 OFFCURVE",
"463 368 CURVE",
"487 375 OFFCURVE",
"490 375 OFFCURVE",
"496 377 CURVE SMOOTH",
"554 410 OFFCURVE",
"591 464 OFFCURVE",
"591 536 CURVE SMOOTH",
"591 592 OFFCURVE",
"567 653 OFFCURVE",
"490 680 CURVE SMOOTH",
"467 690 OFFCURVE",
"440 695 OFFCURVE",
"411 695 CURVE SMOOTH",
"189 695 LINE SMOOTH",
"128 695 OFFCURVE",
"72 642 OFFCURVE",
"72 578 CURVE SMOOTH",
"72 545 OFFCURVE",
"86 517 OFFCURVE",
"111 501 CURVE",
"146 547 LINE",
"134 555 OFFCURVE",
"128 566 OFFCURVE",
"128 579 CURVE SMOOTH",
"128 612 OFFCURVE",
"159 639 OFFCURVE",
"187 639 CURVE SMOOTH",
"421 639 LINE",
"491 634 OFFCURVE",
"531 602 OFFCURVE",
"531 542 CURVE SMOOTH",
"531 535 OFFCURVE",
"531 528 OFFCURVE",
"530 521 CURVE SMOOTH",
"518 434 OFFCURVE",
"449 390 OFFCURVE",
"367 390 CURVE SMOOTH",
"281 390 LINE",
"273 335 LINE",
"370 335 LINE SMOOTH",
"452 335 OFFCURVE",
"517 294 OFFCURVE",
"517 213 CURVE SMOOTH",
"517 206 OFFCURVE",
"516 197 OFFCURVE",
"515 189 CURVE SMOOTH",
"502 91 OFFCURVE",
"421 45 OFFCURVE",
"293 45 CURVE SMOOTH",
"276 45 OFFCURVE",
"264 46 OFFCURVE",
"244 46 CURVE SMOOTH",
"182 50 LINE",
"258 592 LINE",
"197 592 LINE",
"114 1 LINE",
"168 -5 LINE SMOOTH",
"203 -7 OFFCURVE",
"231 -10 OFFCURVE",
"273 -10 CURVE SMOOTH"
);
}
);
width = 627;
},
{
layerId = "0CAF3BED-C4AC-4024-B3E1-4C69D1EF7EC0";
paths = (
{
closed = 1;
nodes = (
"450 -10 OFFCURVE",
"561 49 OFFCURVE",
"580 183 CURVE SMOOTH",
"582 194 OFFCURVE",
"582 205 OFFCURVE",
"582 216 CURVE SMOOTH",
"582 287 OFFCURVE",
"548 337 OFFCURVE",
"496 368 CURVE",
"497 367 LINE",
"497 368 OFFCURVE",
"496 369 OFFCURVE",
"497 368 CURVE",
"560 400 OFFCURVE",
"597 459 OFFCURVE",
"597 533 CURVE SMOOTH",
"597 590 OFFCURVE",
"571 654 OFFCURVE",
"492 682 CURVE SMOOTH",
"469 692 OFFCURVE",
"442 697 OFFCURVE",
"413 697 CURVE SMOOTH",
"197 697 LINE SMOOTH",
"133 697 OFFCURVE",
"71 638 OFFCURVE",
"71 571 CURVE SMOOTH",
"71 532 OFFCURVE",
"90 498 OFFCURVE",
"124 482 CURVE",
"170 546 LINE",
"154 554 OFFCURVE",
"149 561 OFFCURVE",
"149 572 CURVE SMOOTH",
"149 598 OFFCURVE",
"173 619 OFFCURVE",
"192 619 CURVE SMOOTH",
"419 619 LINE",
"481 615 OFFCURVE",
"517 587 OFFCURVE",
"517 535 CURVE SMOOTH",
"517 529 OFFCURVE",
"517 523 OFFCURVE",
"516 517 CURVE SMOOTH",
"505 440 OFFCURVE",
"444 401 OFFCURVE",
"370 401 CURVE SMOOTH",
"275 401 LINE",
"264 324 LINE",
"370 324 LINE SMOOTH",
"444 324 OFFCURVE",
"502 287 OFFCURVE",
"502 215 CURVE SMOOTH",
"502 209 OFFCURVE",
"502 202 OFFCURVE",
"501 195 CURVE SMOOTH",
"489 108 OFFCURVE",
"417 66 OFFCURVE",
"299 66 CURVE SMOOTH",
"283 66 OFFCURVE",
"271 67 OFFCURVE",
"251 68 CURVE SMOOTH",
"203 71 LINE",
"277 597 LINE",
"194 597 LINE",
"110 2 LINE",
"171 -5 LINE",
"174 -5 LINE",
"207 -7 OFFCURVE",
"235 -10 OFFCURVE",
"276 -10 CURVE SMOOTH"
);
}
);
width = 633;
},
{
anchors = (
{
name = bottom;
position = "{296, 0}";
},
{
name = top;
position = "{392, 684}";
}
);
layerId = "49C16FD3-6177-408B-A733-AEB3898BB77C";
paths = (
{
closed = 1;
nodes = (
"449 -9 OFFCURVE",
"550 46 OFFCURVE",
"569 177 CURVE SMOOTH",
"571 189 OFFCURVE",
"571 200 OFFCURVE",
"571 211 CURVE SMOOTH",
"571 278 OFFCURVE",
"540 323 OFFCURVE",
"488 351 CURVE SMOOTH",
"486 354 OFFCURVE",
"480 357 OFFCURVE",
"438 369 CURVE",
"486 383 OFFCURVE",
"488 382 OFFCURVE",
"495 385 CURVE",
"553 417 OFFCURVE",
"587 471 OFFCURVE",
"587 544 CURVE SMOOTH",
"587 598 OFFCURVE",
"563 656 OFFCURVE",
"489 683 CURVE SMOOTH",
"465 692 OFFCURVE",
"440 696 OFFCURVE",
"411 696 CURVE SMOOTH",
"184 696 LINE SMOOTH",
"125 696 OFFCURVE",
"72 645 OFFCURVE",
"72 582 CURVE SMOOTH",
"72 554 OFFCURVE",
"84 531 OFFCURVE",
"104 515 CURVE",
"129 550 LINE",
"120 559 OFFCURVE",
"115 572 OFFCURVE",
"115 586 CURVE SMOOTH",
"115 621 OFFCURVE",
"151 653 OFFCURVE",
"182 653 CURVE SMOOTH",
"421 653 LINE",
"495 649 OFFCURVE",
"541 612 OFFCURVE",
"541 546 CURVE SMOOTH",
"541 440 OFFCURVE",
"459 385 OFFCURVE",
"366 385 CURVE SMOOTH",
"284 385 LINE",
"278 343 LINE",
"369 343 LINE SMOOTH",
"455 343 OFFCURVE",
"526 297 OFFCURVE",
"526 209 CURVE SMOOTH",
"526 202 OFFCURVE",
"525 193 OFFCURVE",
"524 185 CURVE SMOOTH",
"509 82 OFFCURVE",
"424 33 OFFCURVE",
"292 33 CURVE SMOOTH",
"274 33 OFFCURVE",
"261 34 OFFCURVE",
"241 34 CURVE",
"169 38 LINE",
"247 591 LINE",
"199 591 LINE",
"116 1 LINE",
"164 -4 LINE",
"199 -6 OFFCURVE",
"228 -9 OFFCURVE",
"270 -9 CURVE SMOOTH"
);
}
);
width = 623;
}
);
leftKerningGroup = E;
rightKerningGroup = B;
userData = {
position = 514;
width = 59;
};
},
{
glyphname = B.ss02;
layers = (
{
layerId = "873CAA12-270D-4223-A88E-AE8E101FDBE8";
paths = (
{
closed = 1;
nodes = (
"284 -10 OFFCURVE",
"319 -6 OFFCURVE",
"352 4 CURVE SMOOTH",
"458 37 OFFCURVE",
"511 123 OFFCURVE",
"511 211 CURVE SMOOTH",
"511 275 OFFCURVE",
"480 327 OFFCURVE",
"427 356 CURVE",
"423 360 OFFCURVE",
"418 363 OFFCURVE",
"399 368 CURVE",
"424 375 OFFCURVE",
"429 377 OFFCURVE",
"432 377 CURVE SMOOTH",
"497 413 OFFCURVE",
"527 469 OFFCURVE",
"527 538 CURVE SMOOTH",
"527 606 OFFCURVE",
"491 657 OFFCURVE",
"426 680 CURVE SMOOTH",
"404 690 OFFCURVE",
"377 695 OFFCURVE",
"347 695 CURVE SMOOTH",
"148 695 LINE",
"140 639 LINE",
"357 639 LINE",
"429 634 OFFCURVE",
"468 602 OFFCURVE",
"468 543 CURVE SMOOTH",
"468 536 OFFCURVE",
"467 529 OFFCURVE",
"466 522 CURVE SMOOTH",
"454 435 OFFCURVE",
"385 390 OFFCURVE",
"303 390 CURVE SMOOTH",
"147 390 LINE",
"139 335 LINE",
"306 335 LINE SMOOTH",
"404 335 OFFCURVE",
"453 284 OFFCURVE",
"453 213 CURVE SMOOTH",
"453 102 OFFCURVE",
"367 45 OFFCURVE",
"245 45 CURVE SMOOTH",
"231 45 OFFCURVE",
"204 46 OFFCURVE",
"180 47 CURVE SMOOTH",
"118 50 LINE",
"202 652 LINE",
"141 652 LINE",
"50 1 LINE",
"104 -5 LINE SMOOTH",
"141 -9 OFFCURVE",
"208 -10 OFFCURVE",
"235 -10 CURVE SMOOTH"
);
}
);
width = 562;
},
{
layerId = "0CAF3BED-C4AC-4024-B3E1-4C69D1EF7EC0";
paths = (
{
closed = 1;
nodes = (
"290 -10 OFFCURVE",
"327 -7 OFFCURVE",
"361 2 CURVE SMOOTH",
"465 36 OFFCURVE",
"523 129 OFFCURVE",
"523 216 CURVE SMOOTH",
"523 282 OFFCURVE",
"490 337 OFFCURVE",
"437 368 CURVE",
"438 366 LINE",
"438 367 OFFCURVE",
"436 369 OFFCURVE",
"435 369 CURVE",
"437 368 LINE",
"439 368 LINE",
"508 403 OFFCURVE",
"538 466 OFFCURVE",
"538 534 CURVE SMOOTH",
"538 604 OFFCURVE",
"498 658 OFFCURVE",
"433 682 CURVE SMOOTH",
"410 692 OFFCURVE",
"383 697 OFFCURVE",
"353 697 CURVE SMOOTH",
"149 697 LINE",
"138 619 LINE",
"359 619 LINE",
"424 614 OFFCURVE",
"457 586 OFFCURVE",
"457 535 CURVE SMOOTH",
"457 530 OFFCURVE",
"457 524 OFFCURVE",
"456 518 CURVE SMOOTH",
"445 441 OFFCURVE",
"384 401 OFFCURVE",
"310 401 CURVE SMOOTH",
"147 401 LINE",
"136 324 LINE",
"310 324 LINE SMOOTH",
"399 324 OFFCURVE",
"443 280 OFFCURVE",
"443 217 CURVE SMOOTH",
"443 210 OFFCURVE",
"442 203 OFFCURVE",
"441 195 CURVE SMOOTH",
"429 111 OFFCURVE",
"359 66 OFFCURVE",
"255 66 CURVE SMOOTH",
"241 66 OFFCURVE",
"215 67 OFFCURVE",
"192 68 CURVE SMOOTH",
"143 71 LINE",
"225 655 LINE",
"143 655 LINE",
"51 2 LINE",
"113 -5 LINE SMOOTH",
"150 -9 OFFCURVE",
"216 -10 OFFCURVE",
"242 -10 CURVE SMOOTH"
);
}
);
width = 573;
},
{
anchors = (
{
name = bottom;
position = "{274, 0}";
},
{
name = top;
position = "{370, 684}";
}
);
layerId = "49C16FD3-6177-408B-A733-AEB3898BB77C";
paths = (
{
closed = 1;
nodes = (
"281 -9 OFFCURVE",
"316 -5 OFFCURVE",
"350 5 CURVE SMOOTH",
"453 38 OFFCURVE",
"506 121 OFFCURVE",
"506 211 CURVE SMOOTH",
"506 273 OFFCURVE",
"476 322 OFFCURVE",
"422 351 CURVE",
"418 356 OFFCURVE",
"411 358 OFFCURVE",
"370 369 CURVE",
"418 381 OFFCURVE",
"425 384 OFFCURVE",
"429 385 CURVE",
"493 420 OFFCURVE",
"521 476 OFFCURVE",
"521 546 CURVE SMOOTH",
"521 611 OFFCURVE",
"486 659 OFFCURVE",
"423 683 CURVE SMOOTH",
"400 692 OFFCURVE",
"375 696 OFFCURVE",
"345 696 CURVE SMOOTH",
"148 696 LINE",
"142 653 LINE",
"356 653 LINE",
"432 648 OFFCURVE",
"475 610 OFFCURVE",
"475 545 CURVE SMOOTH",
"475 538 OFFCURVE",
"475 531 OFFCURVE",
"474 524 CURVE SMOOTH",
"461 433 OFFCURVE",
"386 385 OFFCURVE",
"300 385 CURVE SMOOTH",
"147 385 LINE",
"141 343 LINE",
"303 343 LINE SMOOTH",
"407 343 OFFCURVE",
"461 285 OFFCURVE",
"461 209 CURVE SMOOTH",
"461 201 OFFCURVE",
"460 193 OFFCURVE",
"459 185 CURVE SMOOTH",
"445 85 OFFCURVE",
"359 33 OFFCURVE",
"243 33 CURVE SMOOTH",
"227 33 OFFCURVE",
"200 34 OFFCURVE",
"175 35 CURVE SMOOTH",
"103 38 LINE",
"189 652 LINE",
"141 652 LINE",
"50 1 LINE",
"98 -4 LINE SMOOTH",
"135 -8 OFFCURVE",
"204 -9 OFFCURVE",
"231 -9 CURVE SMOOTH"
);
}
);
width = 557;
}
);
leftKerningGroup = L;
leftMetricsKey = L;
rightKerningGroup = B;
rightMetricsKey = B;
userData = {
position = 494;
width = 59;
};
},
{
color = 1;
glyphname = C;
layers = (
{
anchors = (
{
name = bottom;
position = "{333, -21}";
},
{
name = top;
position = "{436, 713}";
}
);
layerId = "873CAA12-270D-4223-A88E-AE8E101FDBE8";
paths = (
{
closed = 1;
nodes = (
"459 -22 OFFCURVE",
"572 25 OFFCURVE",
"653 123 CURVE",
"611 156 LINE",
"549 80 OFFCURVE",
"453 33 OFFCURVE",
"355 33 CURVE SMOOTH",
"204 33 OFFCURVE",
"103 145 OFFCURVE",
"103 288 CURVE SMOOTH",
"103 302 OFFCURVE",
"104 317 OFFCURVE",
"106 332 CURVE SMOOTH",
"130 504 OFFCURVE",
"288 655 OFFCURVE",
"456 655 CURVE SMOOTH",
"505 655 OFFCURVE",
"572 642 OFFCURVE",
"605 604 CURVE SMOOTH",
"612 593 OFFCURVE",
"616 583 OFFCURVE",
"616 573 CURVE SMOOTH",
"616 545 OFFCURVE",
"596 521 OFFCURVE",
"573 521 CURVE SMOOTH",
"567 521 OFFCURVE",
"561 523 OFFCURVE",
"554 528 CURVE",
"515 487 LINE",
"531 475 OFFCURVE",
"550 467 OFFCURVE",
"572 467 CURVE SMOOTH",
"625 467 OFFCURVE",
"669 514 OFFCURVE",
"669 571 CURVE SMOOTH",
"669 590 OFFCURVE",
"664 608 OFFCURVE",
"655 623 CURVE SMOOTH",
"624 687 OFFCURVE",
"526 710 OFFCURVE",
"455 710 CURVE SMOOTH",
"264 710 OFFCURVE",
"81 540 OFFCURVE",
"53 340 CURVE SMOOTH",
"50 322 OFFCURVE",
"49 304 OFFCURVE",
"49 287 CURVE SMOOTH",
"49 114 OFFCURVE",
"173 -22 OFFCURVE",
"354 -22 CURVE SMOOTH"
);
}
);
width = 694;
},
{
anchors = (
{
name = bottom;
position = "{338, -9}";
},
{
name = top;
position = "{438, 703}";
}
);
layerId = "0CAF3BED-C4AC-4024-B3E1-4C69D1EF7EC0";
paths = (
{
closed = 1;
nodes = (
"464 -22 OFFCURVE",
"584 28 OFFCURVE",
"665 133 CURVE",
"605 180 LINE",
"548 103 OFFCURVE",
"457 55 OFFCURVE",
"360 55 CURVE SMOOTH",
"220 55 OFFCURVE",
"126 159 OFFCURVE",
"126 291 CURVE SMOOTH",
"126 305 OFFCURVE",
"127 319 OFFCURVE",
"129 333 CURVE SMOOTH",
"151 493 OFFCURVE",
"299 635 OFFCURVE",
"455 635 CURVE SMOOTH",
"501 635 OFFCURVE",
"563 624 OFFCURVE",
"592 591 CURVE SMOOTH",
"597 581 OFFCURVE",
"600 574 OFFCURVE",
"600 566 CURVE SMOOTH",
"599 559 LINE SMOOTH",
"597 542 OFFCURVE",
"584 528 OFFCURVE",
"572 528 CURVE SMOOTH",
"567 528 OFFCURVE",
"562 530 OFFCURVE",
"551 539 CURVE",
"500 482 LINE",
"515 465 OFFCURVE",
"540 452 OFFCURVE",
"568 452 CURVE SMOOTH",
"625 452 OFFCURVE",
"675 506 OFFCURVE",
"675 566 CURVE SMOOTH",
"675 586 OFFCURVE",
"670 605 OFFCURVE",
"661 620 CURVE SMOOTH",
"628 687 OFFCURVE",
"527 711 OFFCURVE",
"457 711 CURVE SMOOTH",
"267 711 OFFCURVE",
"82 540 OFFCURVE",
"54 341 CURVE SMOOTH",
"51 323 OFFCURVE",
"50 306 OFFCURVE",
"50 289 CURVE SMOOTH",
"50 116 OFFCURVE",
"176 -22 OFFCURVE",
"356 -22 CURVE SMOOTH"
);
}
);
width = 705;
},
{
anchors = (
{
name = bottom;
position = "{329, -27}";
},
{
name = top;
position = "{434, 721}";
}
);
layerId = "49C16FD3-6177-408B-A733-AEB3898BB77C";
paths = (
{
closed = 1;
nodes = (
"454 -21 OFFCURVE",
"565 23 OFFCURVE",
"645 118 CURVE",
"613 143 LINE",
"549 68 OFFCURVE",
"451 20 OFFCURVE",
"353 20 CURVE SMOOTH",
"195 20 OFFCURVE",
"88 140 OFFCURVE",
"88 290 CURVE SMOOTH",
"88 304 OFFCURVE",
"89 320 OFFCURVE",
"91 335 CURVE SMOOTH",
"116 512 OFFCURVE",
"280 669 OFFCURVE",
"454 669 CURVE SMOOTH",
"506 669 OFFCURVE",
"578 655 OFFCURVE",
"612 615 CURVE SMOOTH",
"621 602 OFFCURVE",
"625 589 OFFCURVE",
"625 575 CURVE SMOOTH",
"625 546 OFFCURVE",
"602 518 OFFCURVE",
"576 518 CURVE SMOOTH",
"569 518 OFFCURVE",
"562 521 OFFCURVE",
"556 524 CURVE",
"527 492 LINE",
"540 483 OFFCURVE",
"555 477 OFFCURVE",
"573 477 CURVE SMOOTH",
"623 477 OFFCURVE",
"665 522 OFFCURVE",
"665 578 CURVE SMOOTH",
"665 595 OFFCURVE",
"661 611 OFFCURVE",
"652 626 CURVE SMOOTH",
"622 688 OFFCURVE",
"525 711 OFFCURVE",
"455 711 CURVE SMOOTH",
"262 711 OFFCURVE",
"79 541 OFFCURVE",
"51 339 CURVE SMOOTH",
"48 321 OFFCURVE",
"47 303 OFFCURVE",
"47 285 CURVE SMOOTH",
"47 113 OFFCURVE",
"169 -21 OFFCURVE",
"350 -21 CURVE SMOOTH"
);
}
);
width = 688;
}
);
leftKerningGroup = O;
leftMetricsKey = O;
rightKerningGroup = C;
unicode = 0043;
userData = {
position = 570;
width = 54;
};
},
{
color = 1;
glyphname = C.ss02;
layers = (
{
anchors = (
{
name = bottom;
position = "{333, -21}";
},
{
name = top;
position = "{436, 713}";
}
);
layerId = "873CAA12-270D-4223-A88E-AE8E101FDBE8";
paths = (
{
closed = 1;
nodes = (
"459 -22 OFFCURVE",
"572 25 OFFCURVE",
"653 123 CURVE",
"611 156 LINE",
"549 80 OFFCURVE",
"453 33 OFFCURVE",
"355 33 CURVE SMOOTH",
"204 33 OFFCURVE",
"102 147 OFFCURVE",
"102 288 CURVE SMOOTH",
"102 301 OFFCURVE",
"103 315 OFFCURVE",
"105 329 CURVE SMOOTH",
"129 498 OFFCURVE",
"288 655 OFFCURVE",
"448 655 CURVE SMOOTH",
"503 655 OFFCURVE",
"619 642 OFFCURVE",
"612 542 CURVE",
"665 538 LINE",
"666 544 OFFCURVE",
"666 550 OFFCURVE",
"666 556 CURVE SMOOTH",
"666 682 OFFCURVE",
"536 710 OFFCURVE",
"453 710 CURVE SMOOTH",
"265 710 OFFCURVE",
"81 540 OFFCURVE",
"53 340 CURVE SMOOTH",
"50 322 OFFCURVE",
"49 304 OFFCURVE",
"49 287 CURVE SMOOTH",
"49 114 OFFCURVE",
"173 -22 OFFCURVE",
"354 -22 CURVE SMOOTH"
);
}
);
width = 693;
},
{
anchors = (
{
name = bottom;
position = "{338, -9}";
},
{
name = top;
position = "{438, 703}";
}
);
layerId = "0CAF3BED-C4AC-4024-B3E1-4C69D1EF7EC0";
paths = (
{
closed = 1;
nodes = (
"464 -22 OFFCURVE",
"584 28 OFFCURVE",
"665 133 CURVE",
"605 180 LINE",
"548 103 OFFCURVE",
"457 55 OFFCURVE",
"360 55 CURVE SMOOTH",
"220 55 OFFCURVE",
"125 160 OFFCURVE",
"125 291 CURVE SMOOTH",
"125 304 OFFCURVE",
"126 317 OFFCURVE",
"128 330 CURVE SMOOTH",
"150 488 OFFCURVE",
"299 635 OFFCURVE",
"447 635 CURVE SMOOTH",
"499 635 OFFCURVE",
"597 624 OFFCURVE",
"597 542 CURVE SMOOTH",
"597 537 OFFCURVE",
"597 531 OFFCURVE",
"596 525 CURVE",
"670 521 LINE",
"672 532 OFFCURVE",
"672 542 OFFCURVE",
"672 552 CURVE SMOOTH",
"672 682 OFFCURVE",
"537 711 OFFCURVE",
"455 711 CURVE SMOOTH",
"268 711 OFFCURVE",
"82 540 OFFCURVE",
"54 341 CURVE SMOOTH",
"51 323 OFFCURVE",
"50 306 OFFCURVE",
"50 289 CURVE SMOOTH",
"50 116 OFFCURVE",
"176 -22 OFFCURVE",
"356 -22 CURVE SMOOTH"
);
}
);
width = 704;
},
{
anchors = (
{
name = bottom;
position = "{329, -27}";
},
{
name = top;
position = "{434, 721}";
}
);
layerId = "49C16FD3-6177-408B-A733-AEB3898BB77C";
paths = (
{
closed = 1;
nodes = (
"454 -21 OFFCURVE",
"565 23 OFFCURVE",
"645 118 CURVE",
"613 143 LINE",
"549 68 OFFCURVE",
"451 20 OFFCURVE",
"353 20 CURVE SMOOTH",
"195 20 OFFCURVE",
"88 141 OFFCURVE",
"88 288 CURVE SMOOTH",
"88 302 OFFCURVE",
"89 317 OFFCURVE",
"91 332 CURVE SMOOTH",
"115 506 OFFCURVE",
"280 669 OFFCURVE",
"446 669 CURVE SMOOTH",
"502 669 OFFCURVE",
"624 655 OFFCURVE",
"622 553 CURVE",
"662 551 LINE",
"669 683 OFFCURVE",
"538 711 OFFCURVE",
"453 711 CURVE SMOOTH",
"263 711 OFFCURVE",
"79 541 OFFCURVE",
"51 339 CURVE SMOOTH",
"48 321 OFFCURVE",
"47 303 OFFCURVE",
"47 285 CURVE SMOOTH",
"47 113 OFFCURVE",
"169 -21 OFFCURVE",
"350 -21 CURVE SMOOTH"
);
}
);
width = 686;
}
);
leftKerningGroup = O;
leftMetricsKey = O;
rightKerningGroup = C;
userData = {
position = 570;
width = 54;
};
},
{
color = 1;
glyphname = D;
layers = (
{
anchors = (
{
name = bottom;
position = "{369, 0}";
},
{
name = center;
position = "{212, 349}";
},
{
name = top;
position = "{465, 684}";
}
);
layerId = "873CAA12-270D-4223-A88E-AE8E101FDBE8";
paths = (
{
closed = 1;
nodes = (
"551 -9 OFFCURVE",
"713 91 OFFCURVE",
"746 325 CURVE SMOOTH",
"749 349 OFFCURVE",
"751 372 OFFCURVE",
"751 394 CURVE SMOOTH",
"751 566 OFFCURVE",
"651 674 OFFCURVE",
"478 689 CURVE",
"179 690 LINE SMOOTH",
"149 690 OFFCURVE",
"123 678 OFFCURVE",
"102 661 CURVE SMOOTH",
"77 638 OFFCURVE",
"66 614 OFFCURVE",
"62 587 CURVE",
"118 583 LINE",
"119 589 OFFCURVE",
"123 605 OFFCURVE",
"137 616 CURVE SMOOTH",
"150 629 OFFCURVE",
"173 634 OFFCURVE",
"196 634 CURVE",
"105 0 LINE",
"124 -3 LINE",
"153 -5 LINE SMOOTH",
"164 -6 OFFCURVE",
"218 -9 OFFCURVE",
"269 -9 CURVE SMOOTH"
);
},
{
closed = 1;
nodes = (
"306 45 OFFCURVE",
"196 49 OFFCURVE",
"171 50 CURVE",
"255 634 LINE",
"464 634 LINE",
"608 627 OFFCURVE",
"692 538 OFFCURVE",
"692 397 CURVE SMOOTH",
"692 379 OFFCURVE",
"691 361 OFFCURVE",
"688 342 CURVE SMOOTH",
"661 151 OFFCURVE",
"522 45 OFFCURVE",
"339 45 CURVE SMOOTH"
);
}
);
width = 780;
},
{
anchors = (
{
name = center;
position = "{236, 361}";
},
{
name = top;
position = "{467, 675}";
}
);
layerId = "0CAF3BED-C4AC-4024-B3E1-4C69D1EF7EC0";
paths = (
{
closed = 1;
nodes = (
"552 -9 OFFCURVE",
"718 93 OFFCURVE",
"751 326 CURVE SMOOTH",
"754 349 OFFCURVE",
"756 372 OFFCURVE",
"756 393 CURVE SMOOTH",
"756 565 OFFCURVE",
"654 676 OFFCURVE",
"481 691 CURVE",
"190 692 LINE SMOOTH",
"159 692 OFFCURVE",
"128 678 OFFCURVE",
"106 662 CURVE SMOOTH",
"77 634 OFFCURVE",
"65 600 OFFCURVE",
"63 569 CURVE",
"130 567 LINE",
"143 577 LINE",
"143 582 OFFCURVE",
"146 593 OFFCURVE",
"157 599 CURVE",
"163 608 OFFCURVE",
"177 613 OFFCURVE",
"192 614 CURVE",
"104 1 LINE",
"132 -3 LINE",
"133 -3 LINE",
"162 -5 LINE SMOOTH",
"172 -6 OFFCURVE",
"225 -9 OFFCURVE",
"275 -9 CURVE SMOOTH"
);
},
{
closed = 1;
nodes = (
"318 66 OFFCURVE",
"231 69 OFFCURVE",
"195 71 CURVE",
"273 614 LINE",
"463 614 LINE",
"597 608 OFFCURVE",
"675 525 OFFCURVE",
"675 395 CURVE SMOOTH",
"675 379 OFFCURVE",
"674 361 OFFCURVE",
"671 343 CURVE SMOOTH",
"646 165 OFFCURVE",
"517 66 OFFCURVE",
"346 66 CURVE SMOOTH"
);
}
);
width = 785;
},
{
anchors = (
{
name = bottom;
position = "{366, 0}";
},
{
name = center;
position = "{196, 341}";
},
{
name = top;
position = "{463, 692}";
}
);
layerId = "49C16FD3-6177-408B-A733-AEB3898BB77C";
paths = (
{
closed = 1;
nodes = (
"548 -8 OFFCURVE",
"710 92 OFFCURVE",
"743 328 CURVE SMOOTH",
"746 353 OFFCURVE",
"748 376 OFFCURVE",
"748 399 CURVE SMOOTH",
"748 569 OFFCURVE",
"649 675 OFFCURVE",
"476 690 CURVE",
"171 691 LINE SMOOTH",
"143 691 OFFCURVE",
"118 680 OFFCURVE",
"97 663 CURVE SMOOTH",
"75 643 OFFCURVE",
"65 622 OFFCURVE",
"61 599 CURVE",
"104 597 LINE",
"106 605 OFFCURVE",
"112 618 OFFCURVE",
"125 627 CURVE",
"141 644 OFFCURVE",
"170 649 OFFCURVE",
"196 648 CURVE",
"104 0 LINE",
"118 -2 LINE",
"117 -2 LINE",
"145 -4 LINE SMOOTH",
"156 -5 OFFCURVE",
"211 -8 OFFCURVE",
"262 -8 CURVE SMOOTH"
);
},
{
closed = 1;
nodes = (
"302 33 OFFCURVE",
"188 37 OFFCURVE",
"163 38 CURVE",
"158 45 LINE",
"243 648 LINE",
"462 648 LINE",
"613 640 OFFCURVE",
"702 545 OFFCURVE",
"702 397 CURVE SMOOTH",
"702 379 OFFCURVE",
"701 360 OFFCURVE",
"698 341 CURVE SMOOTH",
"670 144 OFFCURVE",
"525 33 OFFCURVE",
"336 33 CURVE SMOOTH"
);
}
);
width = 777;
}
);
leftKerningGroup = E;
leftMetricsKey = E;
rightKerningGroup = O;
unicode = 0044;
userData = {
position = 674;
width = 60;
};
},
{
color = 1;
glyphname = D.ss01;
layers = (
{
anchors = (
{
name = center;
position = "{378, 0}";
},
{
name = top;
position = "{378, 0}";
}
);
layerId = "873CAA12-270D-4223-A88E-AE8E101FDBE8";
paths = (
{
closed = 1;
nodes = (
"362 -10 LINE SMOOTH",
"567 -10 OFFCURVE",
"728 134 OFFCURVE",
"756 337 CURVE SMOOTH",
"759 357 OFFCURVE",
"760 377 OFFCURVE",
"760 396 CURVE SMOOTH",
"760 560 OFFCURVE",
"658 678 OFFCURVE",
"487 689 CURVE",
"188 690 LINE SMOOTH",
"144 690 OFFCURVE",
"71 654 OFFCURVE",
"71 572 CURVE SMOOTH",
"71 540 OFFCURVE",
"85 513 OFFCURVE",
"111 497 CURVE",
"145 543 LINE",
"132 551 OFFCURVE",
"126 561 OFFCURVE",
"126 573 CURVE SMOOTH",
"126 605 OFFCURVE",
"151 630 OFFCURVE",
"180 634 CURVE",
"473 634 LINE",
"611 625 OFFCURVE",
"701 547 OFFCURVE",
"701 398 CURVE SMOOTH",
"701 380 OFFCURVE",
"700 361 OFFCURVE",
"697 340 CURVE SMOOTH",
"671 159 OFFCURVE",
"552 45 OFFCURVE",
"324 45 CURVE SMOOTH",
"289 45 OFFCURVE",
"224 48 OFFCURVE",
"180 50 CURVE",
"256 575 LINE",
"195 575 LINE",
"114 0 LINE",
"133 -3 LINE",
"162 -5 LINE SMOOTH",
"244 -10 OFFCURVE",
"268 -10 OFFCURVE",
"310 -10 CURVE SMOOTH"
);
}
);
width = 787;
},
{
anchors = (
{
name = center;
position = "{379, 11}";
},
{
name = top;
position = "{379, 11}";
}
);
layerId = "0CAF3BED-C4AC-4024-B3E1-4C69D1EF7EC0";
paths = (
{
closed = 1;
nodes = (
"362 -10 LINE SMOOTH",
"566 -10 OFFCURVE",
"730 136 OFFCURVE",
"758 338 CURVE SMOOTH",
"761 358 OFFCURVE",
"762 377 OFFCURVE",
"762 395 CURVE SMOOTH",
"762 559 OFFCURVE",
"658 680 OFFCURVE",
"487 691 CURVE",
"196 692 LINE SMOOTH",
"151 692 OFFCURVE",
"70 651 OFFCURVE",
"70 567 CURVE SMOOTH",
"70 528 OFFCURVE",
"90 494 OFFCURVE",
"123 478 CURVE",
"170 542 LINE",
"148 552 OFFCURVE",
"146 560 OFFCURVE",
"148 575 CURVE SMOOTH",
"150 595 OFFCURVE",
"168 611 OFFCURVE",
"187 614 CURVE",
"469 614 LINE",
"597 606 OFFCURVE",
"681 533 OFFCURVE",
"681 395 CURVE SMOOTH",
"681 378 OFFCURVE",
"680 360 OFFCURVE",
"677 341 CURVE SMOOTH",
"653 172 OFFCURVE",
"543 66 OFFCURVE",
"329 66 CURVE SMOOTH",
"298 66 OFFCURVE",
"243 69 OFFCURVE",
"201 71 CURVE",
"275 581 LINE",
"192 581 LINE",
"110 1 LINE",
"138 -3 LINE",
"139 -3 LINE",
"168 -5 LINE SMOOTH",
"248 -10 OFFCURVE",
"271 -10 OFFCURVE",
"312 -10 CURVE SMOOTH"
);
}
);
width = 788;
},
{
anchors = (
{
name = bottom;
position = "{379, 0}";
},
{
name = center;
position = "{378, -6}";
},
{
name = top;
position = "{378, -6}";
}
);
layerId = "49C16FD3-6177-408B-A733-AEB3898BB77C";
paths = (
{
closed = 1;
nodes = (
"363 -9 LINE SMOOTH",
"569 -9 OFFCURVE",
"729 135 OFFCURVE",
"758 340 CURVE SMOOTH",
"761 360 OFFCURVE",
"762 380 OFFCURVE",
"762 399 CURVE SMOOTH",
"762 563 OFFCURVE",
"661 679 OFFCURVE",
"489 690 CURVE",
"184 691 LINE SMOOTH",
"141 691 OFFCURVE",
"71 656 OFFCURVE",
"71 578 CURVE SMOOTH",
"71 550 OFFCURVE",
"83 526 OFFCURVE",
"105 511 CURVE",
"130 546 LINE",
"119 555 OFFCURVE",
"114 567 OFFCURVE",
"114 579 CURVE SMOOTH",
"114 613 OFFCURVE",
"143 644 OFFCURVE",
"176 648 CURVE",
"475 648 LINE",
"618 638 OFFCURVE",
"715 554 OFFCURVE",
"715 398 CURVE SMOOTH",
"715 380 OFFCURVE",
"714 360 OFFCURVE",
"711 339 CURVE SMOOTH",
"684 152 OFFCURVE",
"560 33 OFFCURVE",
"325 33 CURVE SMOOTH",
"286 33 OFFCURVE",
"213 36 OFFCURVE",
"169 38 CURVE",
"245 573 LINE",
"197 573 LINE",
"117 0 LINE",
"131 -2 LINE",
"130 -2 LINE",
"158 -4 LINE SMOOTH",
"243 -9 OFFCURVE",
"267 -9 OFFCURVE",
"310 -9 CURVE SMOOTH"
);
}
);
width = 789;
}
);
leftKerningGroup = E;
rightKerningGroup = O;
userData = {
position = 674;
width = 60;
};
},
{
color = 1;
glyphname = D.ss02;
layers = (
{
anchors = (
{
name = center;
position = "{160, 349}";
},
{
name = top;
position = "{372, 684}";
}
);
layerId = "873CAA12-270D-4223-A88E-AE8E101FDBE8";
paths = (
{
closed = 1;
nodes = (
"298 -10 LINE SMOOTH",
"501 -10 OFFCURVE",
"663 130 OFFCURVE",
"692 337 CURVE SMOOTH",
"695 358 OFFCURVE",
"696 378 OFFCURVE",
"696 398 CURVE SMOOTH",
"696 562 OFFCURVE",
"594 678 OFFCURVE",
"423 689 CURVE",
"147 690 LINE",
"139 634 LINE",
"409 634 LINE",
"555 626 OFFCURVE",
"637 541 OFFCURVE",
"637 400 CURVE SMOOTH",
"637 382 OFFCURVE",
"636 362 OFFCURVE",
"633 342 CURVE SMOOTH",
"608 163 OFFCURVE",
"487 45 OFFCURVE",
"267 45 CURVE SMOOTH",
"229 45 OFFCURVE",
"146 49 OFFCURVE",
"116 50 CURVE",
"203 655 LINE",
"142 655 LINE",
"50 0 LINE",
"69 -3 LINE",
"98 -5 LINE SMOOTH",
"180 -10 OFFCURVE",
"204 -10 OFFCURVE",
"246 -10 CURVE SMOOTH"
);
}
);
width = 723;
},
{
anchors = (
{
name = bottom;
position = "{303, -10}";
},
{
name = center;
position = "{182, 361}";
},
{
name = top;
position = "{428, 691}";
}
);
layerId = "0CAF3BED-C4AC-4024-B3E1-4C69D1EF7EC0";
paths = (
{
closed = 1;
nodes = (
"303 -10 LINE SMOOTH",
"505 -10 OFFCURVE",
"669 132 OFFCURVE",
"698 338 CURVE SMOOTH",
"701 358 OFFCURVE",
"702 378 OFFCURVE",
"702 398 CURVE SMOOTH",
"702 561 OFFCURVE",
"598 680 OFFCURVE",
"428 691 CURVE",
"148 692 LINE",
"137 614 LINE",
"410 614 LINE",
"545 607 OFFCURVE",
"622 528 OFFCURVE",
"622 397 CURVE SMOOTH",
"622 380 OFFCURVE",
"621 362 OFFCURVE",
"618 343 CURVE SMOOTH",
"595 176 OFFCURVE",
"482 66 OFFCURVE",
"276 66 CURVE SMOOTH",
"244 66 OFFCURVE",
"176 69 OFFCURVE",
"141 71 CURVE",
"225 658 LINE",
"143 658 LINE",
"51 1 LINE",
"79 -3 LINE",
"80 -3 LINE",
"108 -5 LINE SMOOTH",
"188 -10 OFFCURVE",
"212 -10 OFFCURVE",
"253 -10 CURVE SMOOTH"
);
}
);
width = 728;
},
{
anchors = (
{
name = bottom;
position = "{296, -9}";
},
{
name = center;
position = "{147, 348}";
},
{
name = top;
position = "{383, 690}";
}
);
layerId = "49C16FD3-6177-408B-A733-AEB3898BB77C";
paths = (
{
closed = 1;
nodes = (
"296 -9 LINE SMOOTH",
"500 -9 OFFCURVE",
"661 131 OFFCURVE",
"691 340 CURVE SMOOTH",
"694 361 OFFCURVE",
"695 381 OFFCURVE",
"695 400 CURVE SMOOTH",
"695 564 OFFCURVE",
"594 679 OFFCURVE",
"422 690 CURVE",
"147 691 LINE",
"141 648 LINE",
"408 648 LINE",
"561 639 OFFCURVE",
"648 547 OFFCURVE",
"648 399 CURVE SMOOTH",
"648 381 OFFCURVE",
"647 361 OFFCURVE",
"644 341 CURVE SMOOTH",
"618 157 OFFCURVE",
"492 33 OFFCURVE",
"265 33 CURVE SMOOTH",
"222 33 OFFCURVE",
"124 38 OFFCURVE",
"102 38 CURVE",
"190 655 LINE",
"142 655 LINE",
"50 0 LINE",
"65 -2 LINE",
"64 -2 LINE",
"92 -4 LINE SMOOTH",
"176 -9 OFFCURVE",
"200 -9 OFFCURVE",
"243 -9 CURVE SMOOTH"
);
}
);
width = 722;
}
);
leftKerningGroup = E;
leftMetricsKey = L;
rightKerningGroup = O;
userData = {
position = 674;
width = 60;
};
},
{
color = 1;
glyphname = E;
layers = (
{
anchors = (
{
name = bottom;
position = "{325, 0}";
},
{
name = ogonek;
position = "{543, 0}";
},
{
name = top;
position = "{410, 684}";
}
);
layerId = "873CAA12-270D-4223-A88E-AE8E101FDBE8";
paths = (
{
closed = 1;
nodes = (
"543 0 LINE",
"551 57 LINE",
"164 57 LINE",
"203 333 LINE",
"470 333 LINE",
"478 390 LINE",
"211 390 LINE",
"244 628 LINE",
"631 628 LINE",
"639 684 LINE",
"176 684 LINE SMOOTH",
"146 684 OFFCURVE",
"121 672 OFFCURVE",
"99 654 CURVE SMOOTH",
"78 634 OFFCURVE",
"65 610 OFFCURVE",
"61 581 CURVE",
"116 577 LINE",
"118 590 OFFCURVE",
"127 605 OFFCURVE",
"137 612 CURVE SMOOTH",
"147 623 OFFCURVE",
"159 628 OFFCURVE",
"185 628 CURVE",
"95 0 LINE"
);
}
);
width = 617;
},
{
anchors = (
{
name = bottom;
position = "{330, 11}";
},
{
name = ogonek;
position = "{552, -1}";
},
{
name = top;
position = "{414, 675}";
}
);
layerId = "0CAF3BED-C4AC-4024-B3E1-4C69D1EF7EC0";
paths = (
{
closed = 1;
nodes = (
"552 -1 LINE",
"563 78 LINE",
"188 78 LINE",
"222 322 LINE",
"481 322 LINE",
"492 401 LINE",
"233 401 LINE",
"262 609 LINE",
"637 609 LINE",
"648 686 LINE",
"187 686 LINE SMOOTH",
"155 686 OFFCURVE",
"127 672 OFFCURVE",
"104 655 CURVE",
"81 632 OFFCURVE",
"63 600 OFFCURVE",
"63 569 CURVE SMOOTH",
"63 567 OFFCURVE",
"63 565 OFFCURVE",
"62 563 CURVE",
"138 559 LINE",
"138 563 OFFCURVE",
"139 567 OFFCURVE",
"139 569 CURVE SMOOTH",
"141 581 OFFCURVE",
"148 591 OFFCURVE",
"156 595 CURVE",
"162 603 OFFCURVE",
"168 608 OFFCURVE",
"181 608 CURVE",
"94 -1 LINE"
);
}
);
width = 630;
},
{
anchors = (
{
name = bottom;
position = "{321, -6}";
},
{
name = ogonek;
position = "{537, 1}";
},
{
name = top;
position = "{408, 692}";
},
{
name = topleft;
position = "{81, 684}";
}
);
layerId = "49C16FD3-6177-408B-A733-AEB3898BB77C";
paths = (
{
closed = 1;
nodes = (
"537 1 LINE",
"543 45 LINE",
"149 45 LINE",
"191 341 LINE",
"463 341 LINE",
"469 385 LINE",
"197 385 LINE",
"233 642 LINE",
"627 642 LINE",
"633 685 LINE",
"169 685 LINE SMOOTH",
"141 685 OFFCURVE",
"118 674 OFFCURVE",
"95 656 CURVE SMOOTH",
"77 638 OFFCURVE",
"65 618 OFFCURVE",
"60 593 CURVE",
"103 591 LINE",
"107 603 OFFCURVE",
"116 617 OFFCURVE",
"125 623 CURVE",
"138 636 OFFCURVE",
"153 642 OFFCURVE",
"186 642 CURVE",
"95 1 LINE"
);
}
);
width = 608;
}
);
leftKerningGroup = E;
leftMetricsKey = E;
unicode = 0045;
userData = {
position = 130;
width = 61;
};
},
{
color = 1;
glyphname = E.ss01;
layers = (
{
anchors = (
{
name = bottom;
position = "{299, 0}";
},
{
name = ogonek;
position = "{559, 10}";
},
{
name = top;
position = "{299, 0}";
}
);
layerId = "873CAA12-270D-4223-A88E-AE8E101FDBE8";
paths = (
{
closed = 1;
nodes = (
"553 0 LINE",
"561 57 LINE",
"174 57 LINE",
"213 333 LINE",
"480 333 LINE",
"488 390 LINE",
"221 390 LINE",
"246 572 LINE",
"185 572 LINE",
"105 0 LINE"
);
},
{
closed = 1;
nodes = (
"143 536 LINE",
"131 543 OFFCURVE",
"125 553 OFFCURVE",
"125 566 CURVE SMOOTH",
"125 601 OFFCURVE",
"155 628 OFFCURVE",
"183 628 CURVE SMOOTH",
"641 628 LINE",
"649 684 LINE",
"186 684 LINE SMOOTH",
"138 684 OFFCURVE",
"70 643 OFFCURVE",
"70 564 CURVE SMOOTH",
"70 533 OFFCURVE",
"83 506 OFFCURVE",
"109 490 CURVE"
);
}
);
width = 627;
},
{
anchors = (
{
name = bottom;
position = "{302, 11}";
},
{
name = ogonek;
position = "{556, 21}";
},
{
name = top;
position = "{302, 11}";
}
);
layerId = "0CAF3BED-C4AC-4024-B3E1-4C69D1EF7EC0";
paths = (
{
closed = 1;
nodes = (
"559 -1 LINE",
"570 78 LINE",
"195 78 LINE",
"229 322 LINE",
"488 322 LINE",
"499 401 LINE",
"240 401 LINE",
"265 578 LINE",
"182 578 LINE",
"101 -1 LINE"
);
},
{
closed = 1;
nodes = (
"168 536 LINE",
"153 541 OFFCURVE",
"146 548 OFFCURVE",
"146 560 CURVE SMOOTH",
"146 587 OFFCURVE",
"168 609 OFFCURVE",
"188 609 CURVE SMOOTH",
"644 609 LINE",
"655 686 LINE",
"194 686 LINE SMOOTH",
"144 686 OFFCURVE",
"69 640 OFFCURVE",
"69 558 CURVE SMOOTH",
"69 521 OFFCURVE",
"88 487 OFFCURVE",
"121 471 CURVE"
);
}
);
width = 637;
},
{
anchors = (
{
name = bottom;
position = "{303, -12}";
},
{
name = ogonek;
position = "{575, -2}";
},
{
name = top;
position = "{303, -12}";
},
{
name = topleft;
position = "{94, 684}";
}
);
layerId = "49C16FD3-6177-408B-A733-AEB3898BB77C";
paths = (
{
closed = 1;
nodes = (
"550 1 LINE",
"556 45 LINE",
"162 45 LINE",
"204 341 LINE",
"476 341 LINE",
"482 385 LINE",
"210 385 LINE",
"236 570 LINE",
"188 570 LINE",
"108 1 LINE"
);
},
{
closed = 1;
nodes = (
"128 539 LINE",
"119 547 OFFCURVE",
"113 560 OFFCURVE",
"113 573 CURVE SMOOTH",
"113 610 OFFCURVE",
"147 642 OFFCURVE",
"179 642 CURVE SMOOTH",
"640 642 LINE",
"646 685 LINE",
"182 685 LINE SMOOTH",
"137 685 OFFCURVE",
"70 646 OFFCURVE",
"70 570 CURVE SMOOTH",
"70 542 OFFCURVE",
"81 519 OFFCURVE",
"103 504 CURVE"
);
}
);
width = 621;
}
);
leftKerningGroup = E;
userData = {
position = 130;
width = 61;
};
},
{
color = 1;
glyphname = E.ss02;
layers = (
{
anchors = (
{
name = bottom;
position = "{257, 0}";
},
{
name = ogonek;
position = "{518, 0}";
},
{
name = top;
position = "{365, 691}";
}
);
layerId = "873CAA12-270D-4223-A88E-AE8E101FDBE8";
paths = (
{
closed = 1;
nodes = (
"518 0 LINE",
"526 57 LINE",
"117 57 LINE",
"156 333 LINE",
"445 333 LINE",
"453 390 LINE",
"164 390 LINE",
"197 627 LINE",
"586 627 LINE",
"594 684 LINE",
"146 684 LINE",
"50 0 LINE"
);
}
);
width = 585;
},
{
anchors = (
{
name = bottom;
position = "{264, 11}";
},
{
name = ogonek;
position = "{528, -1}";
},
{
name = top;
position = "{364, 691}";
}
);
layerId = "0CAF3BED-C4AC-4024-B3E1-4C69D1EF7EC0";
paths = (
{
closed = 1;
nodes = (
"528 -1 LINE",
"539 78 LINE",
"142 78 LINE",
"176 322 LINE",
"457 322 LINE",
"468 401 LINE",
"187 401 LINE",
"216 608 LINE",
"594 608 LINE",
"605 686 LINE",
"147 686 LINE",
"51 -1 LINE"
);
}
);
width = 599;
},
{
anchors = (
{
name = bottom;
position = "{253, -6}";
},
{
name = ogonek;
position = "{513, 1}";
},
{
name = top;
position = "{367, 691}";
},
{
name = topleft;
position = "{114, 684}";
}
);
layerId = "49C16FD3-6177-408B-A733-AEB3898BB77C";
paths = (
{
closed = 1;
nodes = (
"513 1 LINE",
"519 45 LINE",
"102 45 LINE",
"144 341 LINE",
"439 341 LINE",
"445 385 LINE",
"150 385 LINE",
"186 641 LINE",
"583 641 LINE",
"589 685 LINE",
"146 685 LINE",
"50 1 LINE"
);
}
);
width = 577;
}
);
leftMetricsKey = L;
userData = {
position = 95;
width = 61;
};
},
{
color = 1;
glyphname = F;
layers = (
{
layerId = "873CAA12-270D-4223-A88E-AE8E101FDBE8";
paths = (
{
closed = 1;
nodes = (
"157 -1 LINE",
"204 332 LINE",
"471 332 LINE",
"479 389 LINE",
"212 389 LINE",
"245 627 LINE",
"632 627 LINE",
"640 683 LINE",
"177 683 LINE SMOOTH",
"148 683 OFFCURVE",
"123 672 OFFCURVE",
"100 653 CURVE SMOOTH",
"79 633 OFFCURVE",
"65 609 OFFCURVE",
"61 580 CURVE",
"117 576 LINE",
"119 589 OFFCURVE",
"128 604 OFFCURVE",
"138 611 CURVE SMOOTH",
"148 622 OFFCURVE",
"160 627 OFFCURVE",
"186 627 CURVE",
"96 -1 LINE"
);
}
);
width = 606;
},
{
layerId = "0CAF3BED-C4AC-4024-B3E1-4C69D1EF7EC0";
paths = (
{
closed = 1;
nodes = (
"178 -1 LINE",
"223 322 LINE",
"482 322 LINE",
"493 400 LINE",
"234 400 LINE",
"263 608 LINE",
"638 608 LINE",
"649 685 LINE",
"188 685 LINE SMOOTH",
"158 685 OFFCURVE",
"129 673 OFFCURVE",
"105 654 CURVE SMOOTH",
"84 633 OFFCURVE",
"68 605 OFFCURVE",
"64 577 CURVE SMOOTH",
"63 570 OFFCURVE",
"63 566 OFFCURVE",
"63 562 CURVE",
"139 558 LINE",
"139 562 OFFCURVE",
"139 566 OFFCURVE",
"140 568 CURVE SMOOTH",
"141 580 OFFCURVE",
"149 590 OFFCURVE",
"157 594 CURVE",
"162 602 OFFCURVE",
"169 607 OFFCURVE",
"182 607 CURVE",
"95 -1 LINE"
);
}
);
width = 617;
},
{
anchors = (
{
name = bottom;
position = "{265, 0}";
},
{
name = top;
position = "{361, 684}";
}
);
layerId = "49C16FD3-6177-408B-A733-AEB3898BB77C";
paths = (
{
closed = 1;
nodes = (
"143 0 LINE",
"191 340 LINE",
"463 340 LINE",
"469 384 LINE",
"197 384 LINE",
"233 641 LINE",
"627 641 LINE",
"633 684 LINE",
"169 684 LINE SMOOTH",
"141 684 OFFCURVE",
"119 674 OFFCURVE",
"95 655 CURVE SMOOTH",
"76 637 OFFCURVE",
"65 617 OFFCURVE",
"60 592 CURVE",
"103 590 LINE",
"106 602 OFFCURVE",
"115 616 OFFCURVE",
"125 622 CURVE",
"138 635 OFFCURVE",
"153 641 OFFCURVE",
"186 641 CURVE",
"95 0 LINE"
);
}
);
width = 597;
}
);
leftKerningGroup = E;
leftMetricsKey = E;
rightKerningGroup = F;
unicode = 0046;
userData = {
position = 129;
width = 61;
};
},
{
color = 1;
glyphname = F.ss01;
layers = (
{
layerId = "873CAA12-270D-4223-A88E-AE8E101FDBE8";
paths = (
{
closed = 1;
nodes = (
"167 -1 LINE",
"214 332 LINE",
"481 332 LINE",
"489 389 LINE",
"222 389 LINE",
"247 571 LINE",
"186 571 LINE",
"106 -1 LINE"
);
},
{
closed = 1;
nodes = (
"144 535 LINE",
"130 543 OFFCURVE",
"124 557 OFFCURVE",
"126 573 CURVE SMOOTH",
"131 604 OFFCURVE",
"158 627 OFFCURVE",
"184 627 CURVE SMOOTH",
"642 627 LINE",
"650 683 LINE",
"187 683 LINE SMOOTH",
"161 683 OFFCURVE",
"132 672 OFFCURVE",
"110 654 CURVE SMOOTH",
"89 634 OFFCURVE",
"70 601 OFFCURVE",
"70 565 CURVE SMOOTH",
"70 534 OFFCURVE",
"83 505 OFFCURVE",
"110 489 CURVE"
);
}
);
width = 616;
},
{
layerId = "0CAF3BED-C4AC-4024-B3E1-4C69D1EF7EC0";
paths = (
{
closed = 1;
nodes = (
"185 -1 LINE",
"230 322 LINE",
"489 322 LINE",
"500 400 LINE",
"241 400 LINE",
"266 577 LINE",
"183 577 LINE",
"102 -1 LINE"
);
},
{
closed = 1;
nodes = (
"169 535 LINE",
"154 540 OFFCURVE",
"147 547 OFFCURVE",
"147 559 CURVE SMOOTH",
"147 586 OFFCURVE",
"169 608 OFFCURVE",
"189 608 CURVE SMOOTH",
"645 608 LINE",
"656 685 LINE",
"196 685 LINE SMOOTH",
"168 685 OFFCURVE",
"135 673 OFFCURVE",
"112 655 CURVE SMOOTH",
"91 634 OFFCURVE",
"70 595 OFFCURVE",
"70 558 CURVE SMOOTH",
"70 521 OFFCURVE",
"88 486 OFFCURVE",
"123 470 CURVE"
);
}
);
width = 624;
},
{
anchors = (
{
name = bottom;
position = "{294, 0}";
},
{
name = top;
position = "{390, 684}";
}
);
layerId = "49C16FD3-6177-408B-A733-AEB3898BB77C";
paths = (
{
closed = 1;
nodes = (
"156 0 LINE",
"204 340 LINE",
"476 340 LINE",
"482 384 LINE",
"210 384 LINE",
"236 569 LINE",
"188 569 LINE",
"108 0 LINE"
);
},
{
closed = 1;
nodes = (
"127 538 LINE",
"119 546 OFFCURVE",
"113 559 OFFCURVE",
"113 572 CURVE SMOOTH",
"113 609 OFFCURVE",
"147 641 OFFCURVE",
"179 641 CURVE SMOOTH",
"640 641 LINE",
"646 684 LINE",
"182 684 LINE SMOOTH",
"157 684 OFFCURVE",
"129 673 OFFCURVE",
"108 656 CURVE SMOOTH",
"88 636 OFFCURVE",
"70 604 OFFCURVE",
"70 569 CURVE SMOOTH",
"70 542 OFFCURVE",
"81 518 OFFCURVE",
"103 503 CURVE"
);
}
);
width = 610;
}
);
leftKerningGroup = E;
rightKerningGroup = F;
userData = {
position = 129;
width = 61;
};
},
{
glyphname = F.ss02;
layers = (
{
layerId = "873CAA12-270D-4223-A88E-AE8E101FDBE8";
paths = (
{
closed = 1;
nodes = (
"111 0 LINE",
"157 325 LINE",
"474 325 LINE",
"482 382 LINE",
"165 382 LINE",
"199 627 LINE",
"586 627 LINE",
"594 684 LINE",
"146 684 LINE",
"50 0 LINE"
);
}
);
width = 560;
},
{
layerId = "0CAF3BED-C4AC-4024-B3E1-4C69D1EF7EC0";
paths = (
{
closed = 1;
nodes = (
"133 -1 LINE",
"177 315 LINE",
"485 315 LINE",
"496 393 LINE",
"188 393 LINE",
"218 608 LINE",
"594 608 LINE",
"605 686 LINE",
"147 686 LINE",
"51 -1 LINE"
);
}
);
width = 573;
},
{
anchors = (
{
name = bottom;
position = "{260, 0}";
},
{
name = top;
position = "{356, 684}";
}
);
layerId = "49C16FD3-6177-408B-A733-AEB3898BB77C";
paths = (
{
closed = 1;
nodes = (
"98 1 LINE",
"145 333 LINE",
"469 333 LINE",
"475 376 LINE",
"151 376 LINE",
"188 641 LINE",
"583 641 LINE",
"589 685 LINE",
"146 685 LINE",
"50 1 LINE"
);
}
);
width = 553;
}
);
leftKerningGroup = E;
leftMetricsKey = L;
rightKerningGroup = F;
rightMetricsKey = F;
userData = {
position = 95;
width = 61;
};
},
{
color = 1;
glyphname = G;
layers = (
{
anchors = (
{
name = bottom;
position = "{342, -28}";
},
{
name = top;
position = "{448, 699}";
}
);
layerId = "873CAA12-270D-4223-A88E-AE8E101FDBE8";
paths = (
{
closed = 1;
nodes = (
"547 -271 OFFCURVE",
"600 -242 OFFCURVE",
"609 -180 CURVE SMOOTH",
"676 303 LINE",
"619 303 LINE",
"609 226 LINE",
"577 113 OFFCURVE",
"473 23 OFFCURVE",
"345 23 CURVE SMOOTH",
"203 23 OFFCURVE",
"101 137 OFFCURVE",
"101 281 CURVE SMOOTH",
"101 295 OFFCURVE",
"102 309 OFFCURVE",
"104 324 CURVE SMOOTH",
"128 495 OFFCURVE",
"286 647 OFFCURVE",
"451 647 CURVE SMOOTH",
"509 647 OFFCURVE",
"611 629 OFFCURVE",
"611 570 CURVE SMOOTH",
"611 541 OFFCURVE",
"590 517 OFFCURVE",
"567 517 CURVE SMOOTH",
"563 517 OFFCURVE",
"557 518 OFFCURVE",
"549 523 CURVE",
"511 482 LINE",
"526 470 OFFCURVE",
"545 463 OFFCURVE",
"566 463 CURVE SMOOTH",
"619 463 OFFCURVE",
"664 508 OFFCURVE",
"664 570 CURVE SMOOTH",
"664 669 OFFCURVE",
"532 702 OFFCURVE",
"450 702 CURVE SMOOTH",
"265 702 OFFCURVE",
"79 531 OFFCURVE",
"52 333 CURVE SMOOTH",
"50 316 OFFCURVE",
"48 298 OFFCURVE",
"48 281 CURVE SMOOTH",
"48 111 OFFCURVE",
"169 -31 OFFCURVE",
"346 -31 CURVE SMOOTH",
"434 -31 OFFCURVE",
"522 5 OFFCURVE",
"589 81 CURVE",
"552 -176 LINE",
"548 -193 OFFCURVE",
"532 -212 OFFCURVE",
"507 -212 CURVE SMOOTH",
"496 -212 OFFCURVE",
"489 -207 OFFCURVE",
"484 -198 CURVE",
"434 -229 LINE",
"446 -254 OFFCURVE",
"473 -271 OFFCURVE",
"506 -271 CURVE SMOOTH"
);
}
);
width = 723;
},
{
anchors = (
{
name = bottom;
position = "{347, -16}";
},
{
name = top;
position = "{449, 689}";
}
);
layerId = "0CAF3BED-C4AC-4024-B3E1-4C69D1EF7EC0";
paths = (
{
closed = 1;
nodes = (
"547 -263 OFFCURVE",
"608 -230 OFFCURVE",
"617 -164 CURVE SMOOTH",
"684 317 LINE",
"605 317 LINE",
"593 231 LINE",
"564 128 OFFCURVE",
"468 45 OFFCURVE",
"351 45 CURVE SMOOTH",
"219 45 OFFCURVE",
"125 151 OFFCURVE",
"125 284 CURVE SMOOTH",
"125 297 OFFCURVE",
"126 311 OFFCURVE",
"128 325 CURVE SMOOTH",
"150 485 OFFCURVE",
"297 627 OFFCURVE",
"450 627 CURVE SMOOTH",
"503 627 OFFCURVE",
"594 609 OFFCURVE",
"594 561 CURVE SMOOTH",
"594 541 OFFCURVE",
"580 524 OFFCURVE",
"566 524 CURVE SMOOTH",
"562 524 OFFCURVE",
"558 525 OFFCURVE",
"546 534 CURVE",
"494 477 LINE",
"509 459 OFFCURVE",
"536 449 OFFCURVE",
"562 449 CURVE SMOOTH",
"618 449 OFFCURVE",
"670 500 OFFCURVE",
"670 565 CURVE SMOOTH",
"670 669 OFFCURVE",
"533 704 OFFCURVE",
"452 704 CURVE SMOOTH",
"268 704 OFFCURVE",
"80 531 OFFCURVE",
"53 334 CURVE SMOOTH",
"51 317 OFFCURVE",
"49 300 OFFCURVE",
"49 284 CURVE SMOOTH",
"49 114 OFFCURVE",
"171 -31 OFFCURVE",
"349 -31 CURVE SMOOTH",
"426 -31 OFFCURVE",
"505 -3 OFFCURVE",
"570 57 CURVE",
"539 -159 LINE",
"535 -170 OFFCURVE",
"523 -183 OFFCURVE",
"508 -183 CURVE SMOOTH",
"497 -183 OFFCURVE",
"497 -180 OFFCURVE",
"490 -165 CURVE",
"420 -206 LINE",
"431 -238 OFFCURVE",
"465 -263 OFFCURVE",
"504 -263 CURVE SMOOTH"
);
}
);
width = 731;
},
{
anchors = (
{
name = bottom;
position = "{339, -35}";
},
{
name = top;
position = "{447, 707}";
}
);
layerId = "49C16FD3-6177-408B-A733-AEB3898BB77C";
paths = (
{
closed = 1;
nodes = (
"545 -275 OFFCURVE",
"595 -248 OFFCURVE",
"603 -189 CURVE SMOOTH",
"671 296 LINE",
"627 296 LINE",
"617 222 LINE",
"585 105 OFFCURVE",
"475 10 OFFCURVE",
"343 10 CURVE SMOOTH",
"194 10 OFFCURVE",
"87 131 OFFCURVE",
"87 281 CURVE SMOOTH",
"87 296 OFFCURVE",
"88 312 OFFCURVE",
"90 327 CURVE SMOOTH",
"115 503 OFFCURVE",
"278 661 OFFCURVE",
"449 661 CURVE SMOOTH",
"509 661 OFFCURVE",
"619 640 OFFCURVE",
"619 574 CURVE SMOOTH",
"619 544 OFFCURVE",
"596 514 OFFCURVE",
"569 514 CURVE SMOOTH",
"564 514 OFFCURVE",
"557 516 OFFCURVE",
"551 519 CURVE",
"522 487 LINE",
"535 478 OFFCURVE",
"549 473 OFFCURVE",
"566 473 CURVE SMOOTH",
"618 473 OFFCURVE",
"660 515 OFFCURVE",
"660 577 CURVE SMOOTH",
"660 671 OFFCURVE",
"532 703 OFFCURVE",
"450 703 CURVE SMOOTH",
"263 703 OFFCURVE",
"78 532 OFFCURVE",
"50 332 CURVE SMOOTH",
"47 314 OFFCURVE",
"46 296 OFFCURVE",
"46 278 CURVE SMOOTH",
"46 109 OFFCURVE",
"165 -31 OFFCURVE",
"342 -31 CURVE SMOOTH",
"438 -31 OFFCURVE",
"531 11 OFFCURVE",
"601 99 CURVE",
"560 -187 LINE",
"555 -206 OFFCURVE",
"537 -229 OFFCURVE",
"509 -229 CURVE SMOOTH",
"497 -229 OFFCURVE",
"487 -225 OFFCURVE",
"481 -218 CURVE",
"442 -241 LINE",
"455 -262 OFFCURVE",
"476 -275 OFFCURVE",
"505 -275 CURVE SMOOTH"
);
}
);
width = 718;
}
);
leftKerningGroup = O;
leftMetricsKey = O;
rightKerningGroup = j;
unicode = 0047;
userData = {
position = 593;
width = 57;
};
},
{
color = 1;
glyphname = G.ss02;
layers = (
{
anchors = (
{
name = bottom;
position = "{341, -28}";
},
{
name = top;
position = "{447, 699}";
}
);
layerId = "873CAA12-270D-4223-A88E-AE8E101FDBE8";
paths = (
{
closed = 1;
nodes = (
"497 -31 OFFCURVE",
"645 81 OFFCURVE",
"670 254 CURVE SMOOTH",
"683 353 LINE",
"626 353 LINE",
"611 246 LINE SMOOTH",
"594 121 OFFCURVE",
"465 23 OFFCURVE",
"347 23 CURVE SMOOTH",
"207 23 OFFCURVE",
"102 135 OFFCURVE",
"102 281 CURVE SMOOTH",
"102 296 OFFCURVE",
"103 311 OFFCURVE",
"105 326 CURVE SMOOTH",
"129 499 OFFCURVE",
"288 647 OFFCURVE",
"453 647 CURVE SMOOTH",
"520 647 OFFCURVE",
"618 623 OFFCURVE",
"609 557 CURVE",
"663 554 LINE",
"664 559 OFFCURVE",
"664 564 OFFCURVE",
"664 569 CURVE SMOOTH",
"664 655 OFFCURVE",
"557 702 OFFCURVE",
"455 702 CURVE SMOOTH",
"262 702 OFFCURVE",
"80 533 OFFCURVE",
"52 335 CURVE SMOOTH",
"49 317 OFFCURVE",
"48 300 OFFCURVE",
"48 282 CURVE SMOOTH",
"48 109 OFFCURVE",
"172 -31 OFFCURVE",
"344 -31 CURVE SMOOTH"
);
},
{
closed = 1;
nodes = (
"675 296 LINE",
"683 353 LINE",
"383 353 LINE",
"375 296 LINE"
);
}
);
width = 710;
},
{
anchors = (
{
name = bottom;
position = "{346, -16}";
},
{
name = top;
position = "{448, 689}";
}
);
layerId = "0CAF3BED-C4AC-4024-B3E1-4C69D1EF7EC0";
paths = (
{
closed = 1;
nodes = (
"499 -31 OFFCURVE",
"652 84 OFFCURVE",
"676 257 CURVE SMOOTH",
"691 365 LINE",
"612 365 LINE",
"596 250 LINE SMOOTH",
"580 136 OFFCURVE",
"461 45 OFFCURVE",
"353 45 CURVE SMOOTH",
"223 45 OFFCURVE",
"125 149 OFFCURVE",
"125 286 CURVE SMOOTH",
"125 299 OFFCURVE",
"126 313 OFFCURVE",
"128 327 CURVE SMOOTH",
"151 489 OFFCURVE",
"299 627 OFFCURVE",
"452 627 CURVE SMOOTH",
"511 627 OFFCURVE",
"594 607 OFFCURVE",
"594 560 CURVE SMOOTH",
"594 550 OFFCURVE",
"591 545 OFFCURVE",
"590 540 CURVE",
"667 537 LINE",
"669 547 OFFCURVE",
"670 556 OFFCURVE",
"670 564 CURVE SMOOTH",
"670 655 OFFCURVE",
"558 704 OFFCURVE",
"457 704 CURVE SMOOTH",
"265 704 OFFCURVE",
"81 533 OFFCURVE",
"53 336 CURVE SMOOTH",
"51 319 OFFCURVE",
"49 302 OFFCURVE",
"49 286 CURVE SMOOTH",
"49 112 OFFCURVE",
"175 -31 OFFCURVE",
"347 -31 CURVE SMOOTH"
);
},
{
closed = 1;
nodes = (
"680 287 LINE",
"691 365 LINE",
"376 365 LINE",
"365 287 LINE"
);
}
);
width = 718;
},
{
anchors = (
{
name = bottom;
position = "{338, -35}";
},
{
name = top;
position = "{446, 707}";
}
);
layerId = "49C16FD3-6177-408B-A733-AEB3898BB77C";
paths = (
{
closed = 1;
nodes = (
"494 -31 OFFCURVE",
"641 81 OFFCURVE",
"666 254 CURVE SMOOTH",
"679 347 LINE",
"635 347 LINE",
"620 244 LINE SMOOTH",
"602 113 OFFCURVE",
"467 10 OFFCURVE",
"345 10 CURVE SMOOTH",
"198 10 OFFCURVE",
"87 129 OFFCURVE",
"87 283 CURVE SMOOTH",
"87 298 OFFCURVE",
"88 313 OFFCURVE",
"90 329 CURVE SMOOTH",
"115 507 OFFCURVE",
"280 661 OFFCURVE",
"451 661 CURVE SMOOTH",
"519 661 OFFCURVE",
"621 636 OFFCURVE",
"619 568 CURVE",
"660 567 LINE",
"666 656 OFFCURVE",
"560 703 OFFCURVE",
"455 703 CURVE SMOOTH",
"260 703 OFFCURVE",
"78 534 OFFCURVE",
"50 334 CURVE SMOOTH",
"47 316 OFFCURVE",
"46 298 OFFCURVE",
"46 280 CURVE SMOOTH",
"46 107 OFFCURVE",
"168 -31 OFFCURVE",
"340 -31 CURVE SMOOTH"
);
},
{
closed = 1;
nodes = (
"672 303 LINE",
"679 347 LINE",
"388 347 LINE",
"381 303 LINE"
);
}
);
width = 705;
}
);
leftKerningGroup = O;
leftMetricsKey = O;
rightKerningGroup = O;
userData = {
position = 593;
width = 57;
};
},
{
color = 1;
glyphname = H;
layers = (
{
anchors = (
{
name = center;
position = "{395, 355}";
},
{
name = top;
position = "{439, 684}";
}
);
layerId = "873CAA12-270D-4223-A88E-AE8E101FDBE8";
paths = (
{
closed = 1;
nodes = (
"150 0 LINE",
"196 327 LINE",
"565 327 LINE",
"519 0 LINE",
"580 0 LINE",
"676 684 LINE",
"615 684 LINE",
"573 384 LINE",
"204 384 LINE",
"233 594 LINE SMOOTH",
"234 599 OFFCURVE",
"234 603 OFFCURVE",
"234 608 CURVE SMOOTH",
"234 657 OFFCURVE",
"195 689 OFFCURVE",
"149 689 CURVE SMOOTH",
"119 689 OFFCURVE",
"91 675 OFFCURVE",
"69 649 CURVE",
"118 612 LINE",
"126 623 OFFCURVE",
"138 627 OFFCURVE",
"149 627 CURVE SMOOTH",
"165 627 OFFCURVE",
"174 616 OFFCURVE",
"172 598 CURVE SMOOTH",
"88 0 LINE"
);
}
);
width = 701;
},
{
anchors = (
{
name = center;
position = "{399, 355}";
},
{
name = top;
position = "{442, 675}";
}
);
layerId = "0CAF3BED-C4AC-4024-B3E1-4C69D1EF7EC0";
paths = (
{
closed = 1;
nodes = (
"171 -1 LINE",
"215 317 LINE",
"550 317 LINE",
"506 -1 LINE",
"588 -1 LINE",
"684 686 LINE",
"602 686 LINE",
"561 395 LINE",
"226 395 LINE",
"253 587 LINE SMOOTH",
"254 592 OFFCURVE",
"254 597 OFFCURVE",
"254 602 CURVE SMOOTH",
"254 655 OFFCURVE",
"210 691 OFFCURVE",
"161 691 CURVE SMOOTH",
"125 691 OFFCURVE",
"89 671 OFFCURVE",
"67 638 CURVE",
"132 587 LINE",
"142 603 OFFCURVE",
"147 608 OFFCURVE",
"158 608 CURVE SMOOTH",
"166 608 OFFCURVE",
"171 603 OFFCURVE",
"171 594 CURVE SMOOTH",
"171 591 LINE",
"88 -1 LINE"
);
}
);
width = 710;
},
{
anchors = (
{
name = bottom;
position = "{312, 0}";
},
{
name = center;
position = "{393, 356}";
},
{
name = top;
position = "{438, 692}";
},
{
name = topleft;
position = "{81, 684}";
}
);
layerId = "49C16FD3-6177-408B-A733-AEB3898BB77C";
paths = (
{
closed = 1;
nodes = (
"137 1 LINE",
"184 335 LINE",
"574 335 LINE",
"527 1 LINE",
"575 1 LINE",
"671 685 LINE",
"623 685 LINE",
"580 379 LINE",
"190 379 LINE",
"221 601 LINE SMOOTH",
"222 606 OFFCURVE",
"222 610 OFFCURVE",
"222 615 CURVE SMOOTH",
"222 661 OFFCURVE",
"186 690 OFFCURVE",
"143 690 CURVE SMOOTH",
"115 690 OFFCURVE",
"91 679 OFFCURVE",
"70 658 CURVE",
"110 628 LINE",
"119 637 OFFCURVE",
"131 641 OFFCURVE",
"141 641 CURVE SMOOTH",
"161 641 OFFCURVE",
"176 624 OFFCURVE",
"173 603 CURVE SMOOTH",
"88 1 LINE"
);
}
);
width = 696;
}
);
leftKerningGroup = E;
leftMetricsKey = H;
unicode = 0048;
userData = {
position = 554;
width = 61;
};
},
{
glyphname = H.ss02;
layers = (
{
anchors = (
{
name = center;
position = "{301, 0}";
},
{
name = top;
position = "{379, 684}";
}
);
layerId = "873CAA12-270D-4223-A88E-AE8E101FDBE8";
paths = (
{
closed = 1;
nodes = (
"111 0 LINE",
"157 327 LINE",
"526 327 LINE",
"480 0 LINE",
"541 0 LINE",
"637 684 LINE",
"576 684 LINE",
"534 384 LINE",
"165 384 LINE",
"207 684 LINE",
"146 684 LINE",
"50 0 LINE"
);
}
);
width = 662;
},
{
anchors = (
{
name = bottom;
position = "{304, 0}";
},
{
name = center;
position = "{354, 500}";
},
{
name = top;
position = "{373, 684}";
},
{
name = topleft;
position = "{108, 684}";
}
);
layerId = "0CAF3BED-C4AC-4024-B3E1-4C69D1EF7EC0";
paths = (
{
closed = 1;
nodes = (
"133 -1 LINE",
"177 317 LINE",
"512 317 LINE",
"468 -1 LINE",
"550 -1 LINE",
"646 686 LINE",
"564 686 LINE",
"523 395 LINE",
"188 395 LINE",
"229 686 LINE",
"147 686 LINE",
"51 -1 LINE"
);
}
);
width = 672;
},
{
anchors = (
{
name = bottom;
position = "{310, 0}";
},
{
name = center;
position = "{298, -6}";
},
{
name = top;
position = "{384, 684}";
},
{
name = topleft;
position = "{114, 684}";
}
);
layerId = "49C16FD3-6177-408B-A733-AEB3898BB77C";
paths = (
{
closed = 1;
nodes = (
"98 1 LINE",
"145 335 LINE",
"536 335 LINE",
"489 1 LINE",
"537 1 LINE",
"633 685 LINE",
"585 685 LINE",
"542 379 LINE",
"151 379 LINE",
"194 685 LINE",
"146 685 LINE",
"50 1 LINE"
);
}
);
width = 658;
}
);
leftMetricsKey = L;
rightMetricsKey = H;
userData = {
position = 525;
width = 61;
};
},
{
color = 1;
glyphname = Hbar;
layers = (
{
components = (
{
name = H;
}
);
layerId = "873CAA12-270D-4223-A88E-AE8E101FDBE8";
paths = (
{
closed = 1;
nodes = (
"668 501 LINE",
"675 553 LINE",
"147 553 LINE",
"140 501 LINE"
);
}
);
width = 703;
},
{
components = (
{
name = H;
transform = "{1, 0, 0, 1, 1, 11}";
}
);
layerId = "0CAF3BED-C4AC-4024-B3E1-4C69D1EF7EC0";
paths = (
{
closed = 1;
nodes = (
"671 485 LINE",
"681 559 LINE",
"145 559 LINE",
"135 485 LINE"
);
}
);
width = 711;
},
{
components = (
{
name = H;
transform = "{1, 0, 0, 1, 0, -6}";
}
);
layerId = "49C16FD3-6177-408B-A733-AEB3898BB77C";
paths = (
{
closed = 1;
nodes = (
"708 512 LINE",
"713 551 LINE",
"189 551 LINE",
"184 512 LINE"
);
}
);
width = 707;
}
);
leftKerningGroup = E;
leftMetricsKey = H;
unicode = 0126;
userData = {
position = 554;
width = 61;
};
},
{
color = 1;
glyphname = Hbar.ss02;
layers = (
{
components = (
{
name = H.ss02;
transform = "{1, 0, 0, 1, 40, 0}";
}
);
layerId = "49C16FD3-6177-408B-A733-AEB3898BB77C";
paths = (
{
closed = 1;
nodes = (
"646 512 LINE",
"651 551 LINE",
"127 551 LINE",
"122 512 LINE"
);
}
);
width = 662;
},
{
components = (
{
name = H.ss02;
transform = "{1, 0, 0, 1, 40, 0}";
}
);
layerId = "873CAA12-270D-4223-A88E-AE8E101FDBE8";
paths = (
{
closed = 1;
nodes = (
"639 501 LINE",
"646 553 LINE",
"118 553 LINE",
"111 501 LINE"
);
}
);
width = 666;
},
{
components = (
{
name = H.ss02;
transform = "{1, 0, 0, 1, 41, 0}";
}
);
layerId = "0CAF3BED-C4AC-4024-B3E1-4C69D1EF7EC0";
paths = (
{
closed = 1;
nodes = (
"645 485 LINE",
"655 559 LINE",
"119 559 LINE",
"109 485 LINE"
);
}
);
width = 675;
}
);
},
{
color = 1;
glyphname = I;
layers = (
{
anchors = (
{
name = bottom;
position = "{81, -1}";
},
{
name = ogonek;
position = "{111, 0}";
},
{
name = top;
position = "{174, 684}";
}
);
layerId = "873CAA12-270D-4223-A88E-AE8E101FDBE8";
paths = (
{
closed = 1;
nodes = (
"111 0 LINE",
"207 684 LINE",
"146 684 LINE",
"50 0 LINE"
);
}
);
width = 232;
},
{
anchors = (
{
name = bottom;
position = "{93, 10}";
},
{
name = ogonek;
position = "{122, 10}";
},
{
name = top;
position = "{185, 684}";
}
);
layerId = "0CAF3BED-C4AC-4024-B3E1-4C69D1EF7EC0";
paths = (
{
closed = 1;
nodes = (
"133 -1 LINE",
"229 686 LINE",
"147 686 LINE",
"51 -1 LINE"
);
}
);
width = 255;
},
{
anchors = (
{
name = bottom;
position = "{74, -7}";
},
{
name = ogonek;
position = "{109, -6}";
},
{
name = top;
position = "{169, 692}";
},
{
name = topleft;
position = "{114, 684}";
}
);
layerId = "49C16FD3-6177-408B-A733-AEB3898BB77C";
paths = (
{
closed = 1;
nodes = (
"98 1 LINE",
"194 685 LINE",
"146 685 LINE",
"50 1 LINE"
);
}
);
width = 219;
}
);
unicode = 0049;
userData = {
position = 54;
width = 61;
};
},
{
color = 1;
glyphname = J;
layers = (
{
anchors = (
{
name = top;
position = "{293, 693}";
}
);
layerId = "873CAA12-270D-4223-A88E-AE8E101FDBE8";
paths = (
{
closed = 1;
nodes = (
"308 -4 OFFCURVE",
"373 90 OFFCURVE",
"386 189 CURVE SMOOTH",
"456 687 LINE",
"401 689 LINE",
"397 682 OFFCURVE",
"358 660 OFFCURVE",
"330 660 CURVE SMOOTH",
"290 660 OFFCURVE",
"242 696 OFFCURVE",
"201 696 CURVE SMOOTH",
"177 696 OFFCURVE",
"158 692 OFFCURVE",
"96 668 CURVE",
"116 616 LINE",
"142 624 OFFCURVE",
"173 640 OFFCURVE",
"201 640 CURVE SMOOTH",
"231 640 OFFCURVE",
"253 619 OFFCURVE",
"290 610 CURVE SMOOTH",
"299 607 OFFCURVE",
"317 604 OFFCURVE",
"337 604 CURVE SMOOTH",
"354 604 OFFCURVE",
"373 606 OFFCURVE",
"390 616 CURVE",
"330 196 LINE SMOOTH",
"321 132 OFFCURVE",
"282 53 OFFCURVE",
"183 53 CURVE SMOOTH",
"116 53 OFFCURVE",
"80 90 OFFCURVE",
"80 149 CURVE SMOOTH",
"80 157 OFFCURVE",
"81 164 OFFCURVE",
"82 172 CURVE",
"26 181 LINE",
"25 171 OFFCURVE",
"24 162 OFFCURVE",
"24 152 CURVE SMOOTH",
"24 73 OFFCURVE",
"64 -4 OFFCURVE",
"180 -4 CURVE SMOOTH"
);
}
);
width = 472;
},
{
anchors = (
{
name = top;
position = "{300, 684}";
}
);
layerId = "0CAF3BED-C4AC-4024-B3E1-4C69D1EF7EC0";
paths = (
{
closed = 1;
nodes = (
"321 -4 OFFCURVE",
"389 95 OFFCURVE",
"403 194 CURVE SMOOTH",
"473 689 LINE",
"406 689 LINE",
"396 679 OFFCURVE",
"361 663 OFFCURVE",
"347 663 CURVE SMOOTH",
"337 663 OFFCURVE",
"323 666 OFFCURVE",
"300 673 CURVE SMOOTH",
"242 695 OFFCURVE",
"232 698 OFFCURVE",
"213 698 CURVE SMOOTH",
"187 698 OFFCURVE",
"164 693 OFFCURVE",
"93 665 CURVE",
"122 594 LINE",
"151 601 OFFCURVE",
"183 620 OFFCURVE",
"210 620 CURVE SMOOTH",
"235 620 OFFCURVE",
"256 601 OFFCURVE",
"295 593 CURVE SMOOTH",
"304 590 OFFCURVE",
"321 585 OFFCURVE",
"342 585 CURVE SMOOTH",
"353 585 OFFCURVE",
"368 586 OFFCURVE",
"382 591 CURVE",
"325 201 LINE SMOOTH",
"317 143 OFFCURVE",
"282 74 OFFCURVE",
"196 74 CURVE SMOOTH",
"137 74 OFFCURVE",
"106 106 OFFCURVE",
"106 159 CURVE SMOOTH",
"106 168 OFFCURVE",
"107 178 OFFCURVE",
"109 189 CURVE",
"33 199 LINE",
"31 185 OFFCURVE",
"29 171 OFFCURVE",
"29 157 CURVE SMOOTH",
"29 77 OFFCURVE",
"71 -4 OFFCURVE",
"190 -4 CURVE SMOOTH"
);
}
);
width = 487;
},
{
anchors = (
{
name = bottom;
position = "{200, 0}";
},
{
name = top;
position = "{288, 693}";
}
);
layerId = "49C16FD3-6177-408B-A733-AEB3898BB77C";
paths = (
{
closed = 1;
nodes = (
"298 -3 OFFCURVE",
"362 89 OFFCURVE",
"376 188 CURVE SMOOTH",
"447 688 LINE",
"399 689 LINE",
"390 680 OFFCURVE",
"355 660 OFFCURVE",
"336 660 CURVE SMOOTH",
"279 660 OFFCURVE",
"247 697 OFFCURVE",
"195 697 CURVE SMOOTH",
"171 697 OFFCURVE",
"153 692 OFFCURVE",
"95 671 CURVE",
"112 631 LINE",
"136 640 OFFCURVE",
"165 654 OFFCURVE",
"193 654 CURVE SMOOTH",
"227 654 OFFCURVE",
"251 632 OFFCURVE",
"286 623 CURVE SMOOTH",
"296 620 OFFCURVE",
"313 617 OFFCURVE",
"332 617 CURVE SMOOTH",
"354 617 OFFCURVE",
"377 621 OFFCURVE",
"396 637 CURVE",
"333 193 LINE SMOOTH",
"324 126 OFFCURVE",
"282 41 OFFCURVE",
"177 41 CURVE SMOOTH",
"105 41 OFFCURVE",
"64 83 OFFCURVE",
"64 147 CURVE SMOOTH",
"64 152 OFFCURVE",
"64 158 OFFCURVE",
"65 164 CURVE",
"22 170 LINE",
"21 162 OFFCURVE",
"21 154 OFFCURVE",
"21 146 CURVE SMOOTH",
"21 68 OFFCURVE",
"59 -3 OFFCURVE",
"171 -3 CURVE SMOOTH"
);
}
);
width = 462;
}
);
unicode = 004A;
userData = {
position = 333;
width = 53;
};
},
{
color = 1;
glyphname = K;
layers = (
{
anchors = (
{
name = bottom;
position = "{318, 0}";
},
{
name = top;
position = "{414, 684}";
}
);
layerId = "873CAA12-270D-4223-A88E-AE8E101FDBE8";
paths = (
{
closed = 1;
nodes = (
"544 -8 OFFCURVE",
"598 19 OFFCURVE",
"606 82 CURVE",
"550 85 LINE",
"547 65 OFFCURVE",
"529 49 OFFCURVE",
"507 49 CURVE SMOOTH",
"496 49 OFFCURVE",
"488 54 OFFCURVE",
"484 63 CURVE SMOOTH",
"324 346 LINE",
"346 361 OFFCURVE",
"362 376 OFFCURVE",
"389 406 CURVE SMOOTH",
"408 430 OFFCURVE",
"434 467 OFFCURVE",
"453 491 CURVE SMOOTH",
"479 531 OFFCURVE",
"491 547 OFFCURVE",
"582 683 CURVE",
"505 685 LINE",
"457 607 OFFCURVE",
"431 566 OFFCURVE",
"405 531 CURVE SMOOTH",
"383 496 OFFCURVE",
"351 454 OFFCURVE",
"323 426 CURVE SMOOTH",
"308 409 OFFCURVE",
"298 398 OFFCURVE",
"271 388 CURVE SMOOTH",
"256 380 OFFCURVE",
"235 373 OFFCURVE",
"204 372 CURVE SMOOTH",
"163 371 LINE",
"207 684 LINE",
"146 684 LINE",
"50 1 LINE",
"113 1 LINE",
"159 313 LINE",
"218 312 OFFCURVE",
"234 314 OFFCURVE",
"268 324 CURVE",
"435 32 LINE SMOOTH",
"448 7 OFFCURVE",
"475 -8 OFFCURVE",
"505 -8 CURVE SMOOTH"
);
}
);
width = 650;
},
{
anchors = (
{
name = bottom;
position = "{322, 11}";
},
{
name = top;
position = "{416, 675}";
}
);
layerId = "0CAF3BED-C4AC-4024-B3E1-4C69D1EF7EC0";
paths = (
{
closed = 1;
nodes = (
"546 -8 OFFCURVE",
"612 26 OFFCURVE",
"615 102 CURVE",
"537 105 LINE",
"538 101 OFFCURVE",
"536 97 OFFCURVE",
"536 96 CURVE SMOOTH",
"534 81 OFFCURVE",
"522 70 OFFCURVE",
"508 70 CURVE SMOOTH",
"501 70 OFFCURVE",
"498 71 OFFCURVE",
"494 78 CURVE SMOOTH",
"345 345 LINE",
"363 358 OFFCURVE",
"377 372 OFFCURVE",
"400 396 CURVE SMOOTH",
"419 421 OFFCURVE",
"445 457 OFFCURVE",
"463 480 CURVE SMOOTH",
"490 521 OFFCURVE",
"500 536 OFFCURVE",
"600 684 CURVE",
"499 688 LINE",
"449 608 OFFCURVE",
"425 568 OFFCURVE",
"399 534 CURVE SMOOTH",
"376 499 OFFCURVE",
"346 459 OFFCURVE",
"320 434 CURVE SMOOTH",
"305 416 OFFCURVE",
"296 407 OFFCURVE",
"272 398 CURVE SMOOTH",
"260 391 OFFCURVE",
"242 385 OFFCURVE",
"214 384 CURVE SMOOTH",
"186 383 LINE",
"228 686 LINE",
"146 686 LINE",
"50 0 LINE",
"134 0 LINE",
"178 303 LINE",
"223 302 OFFCURVE",
"242 304 OFFCURVE",
"270 311 CURVE",
"427 36 LINE SMOOTH",
"440 10 OFFCURVE",
"471 -8 OFFCURVE",
"503 -8 CURVE SMOOTH"
);
}
);
width = 659;
},
{
anchors = (
{
name = bottom;
position = "{315, -6}";
},
{
name = top;
position = "{413, 692}";
}
);
layerId = "49C16FD3-6177-408B-A733-AEB3898BB77C";
paths = (
{
closed = 1;
nodes = (
"542 -7 OFFCURVE",
"590 16 OFFCURVE",
"602 71 CURVE",
"557 73 LINE",
"551 53 OFFCURVE",
"531 37 OFFCURVE",
"509 37 CURVE SMOOTH",
"495 37 OFFCURVE",
"484 44 OFFCURVE",
"478 54 CURVE SMOOTH",
"314 348 LINE",
"337 365 OFFCURVE",
"353 379 OFFCURVE",
"383 412 CURVE SMOOTH",
"402 436 OFFCURVE",
"428 474 OFFCURVE",
"447 498 CURVE SMOOTH",
"473 538 OFFCURVE",
"486 555 OFFCURVE",
"572 684 CURVE",
"511 686 LINE",
"463 609 OFFCURVE",
"437 567 OFFCURVE",
"412 532 CURVE SMOOTH",
"389 496 OFFCURVE",
"355 453 OFFCURVE",
"325 424 CURVE SMOOTH",
"311 407 OFFCURVE",
"298 393 OFFCURVE",
"269 381 CURVE SMOOTH",
"254 374 OFFCURVE",
"232 367 OFFCURVE",
"199 366 CURVE SMOOTH",
"149 365 LINE",
"194 685 LINE",
"146 685 LINE",
"50 2 LINE",
"100 2 LINE",
"146 321 LINE",
"161 321 OFFCURVE",
"173 320 OFFCURVE",
"185 320 CURVE SMOOTH",
"222 320 OFFCURVE",
"237 324 OFFCURVE",
"269 333 CURVE",
"440 31 LINE SMOOTH",
"454 7 OFFCURVE",
"477 -7 OFFCURVE",
"505 -7 CURVE SMOOTH"
);
}
);
width = 647;
}
);
rightKerningGroup = K;
unicode = 004B;
userData = {
position = 542;
width = 57;
};
},
{
color = 1;
glyphname = K.ss02;
layers = (
{
anchors = (
{
name = bottom;
position = "{318, 0}";
},
{
name = top;
position = "{364, 684}";
}
);
layerId = "873CAA12-270D-4223-A88E-AE8E101FDBE8";
paths = (
{
closed = 1;
nodes = (
"531 -8 OFFCURVE",
"553 2 OFFCURVE",
"573 19 CURVE",
"534 60 LINE",
"527 53 OFFCURVE",
"518 49 OFFCURVE",
"507 49 CURVE SMOOTH",
"496 49 OFFCURVE",
"488 54 OFFCURVE",
"484 63 CURVE SMOOTH",
"324 346 LINE",
"348 362 OFFCURVE",
"372 388 OFFCURVE",
"389 406 CURVE SMOOTH",
"405 427 OFFCURVE",
"432 463 OFFCURVE",
"453 490 CURVE SMOOTH",
"487 540 OFFCURVE",
"535 617 OFFCURVE",
"580 683 CURVE",
"505 685 LINE",
"456 605 OFFCURVE",
"431 566 OFFCURVE",
"405 531 CURVE SMOOTH",
"384 498 OFFCURVE",
"351 453 OFFCURVE",
"322 425 CURVE SMOOTH",
"288 388 OFFCURVE",
"258 375 OFFCURVE",
"204 372 CURVE SMOOTH",
"163 371 LINE",
"207 684 LINE",
"146 684 LINE",
"50 1 LINE",
"113 1 LINE",
"159 313 LINE",
"165 313 OFFCURVE",
"173 312 OFFCURVE",
"183 312 CURVE SMOOTH",
"206 312 OFFCURVE",
"237 315 OFFCURVE",
"268 324 CURVE",
"435 32 LINE SMOOTH",
"448 7 OFFCURVE",
"475 -8 OFFCURVE",
"507 -8 CURVE SMOOTH"
);
}
);
width = 623;
},
{
anchors = (
{
name = bottom;
position = "{322, 11}";
},
{
name = top;
position = "{365, 684}";
}
);
layerId = "0CAF3BED-C4AC-4024-B3E1-4C69D1EF7EC0";
paths = (
{
closed = 1;
nodes = (
"535 -8 OFFCURVE",
"565 7 OFFCURVE",
"586 29 CURVE",
"534 87 LINE",
"523 75 OFFCURVE",
"519 70 OFFCURVE",
"508 70 CURVE SMOOTH",
"501 70 OFFCURVE",
"498 71 OFFCURVE",
"494 78 CURVE SMOOTH",
"345 345 LINE",
"395 382 OFFCURVE",
"411 412 OFFCURVE",
"463 479 CURVE SMOOTH",
"499 533 OFFCURVE",
"551 617 OFFCURVE",
"598 684 CURVE",
"499 688 LINE",
"448 606 OFFCURVE",
"425 568 OFFCURVE",
"399 534 CURVE SMOOTH",
"377 501 OFFCURVE",
"346 458 OFFCURVE",
"319 433 CURVE",
"289 398 OFFCURVE",
"263 386 OFFCURVE",
"214 384 CURVE SMOOTH",
"186 383 LINE",
"228 686 LINE",
"146 686 LINE",
"50 0 LINE",
"134 0 LINE",
"176 302 LINE",
"188 302 LINE SMOOTH",
"210 302 OFFCURVE",
"241 304 OFFCURVE",
"269 311 CURVE",
"427 36 LINE SMOOTH",
"440 10 OFFCURVE",
"471 -8 OFFCURVE",
"505 -8 CURVE SMOOTH"
);
}
);
width = 634;
},
{
anchors = (
{
name = bottom;
position = "{315, -6}";
},
{
name = top;
position = "{413, 692}";
}
);
layerId = "49C16FD3-6177-408B-A733-AEB3898BB77C";
paths = (
{
closed = 1;
nodes = (
"528 -7 OFFCURVE",
"548 0 OFFCURVE",
"565 13 CURVE",
"535 46 LINE",
"527 40 OFFCURVE",
"518 37 OFFCURVE",
"509 37 CURVE SMOOTH",
"495 37 OFFCURVE",
"484 44 OFFCURVE",
"478 54 CURVE SMOOTH",
"314 348 LINE",
"337 364 OFFCURVE",
"364 392 OFFCURVE",
"383 412 CURVE SMOOTH",
"399 433 OFFCURVE",
"426 470 OFFCURVE",
"448 497 CURVE",
"480 546 OFFCURVE",
"526 619 OFFCURVE",
"570 684 CURVE",
"511 686 LINE",
"462 607 OFFCURVE",
"437 567 OFFCURVE",
"412 532 CURVE SMOOTH",
"390 498 OFFCURVE",
"354 452 OFFCURVE",
"324 423 CURVE SMOOTH",
"289 384 OFFCURVE",
"256 369 OFFCURVE",
"200 366 CURVE SMOOTH",
"149 365 LINE",
"194 685 LINE",
"146 685 LINE",
"50 2 LINE",
"100 2 LINE",
"146 320 LINE",
"153 321 OFFCURVE",
"165 319 OFFCURVE",
"177 319 CURVE SMOOTH",
"202 319 OFFCURVE",
"236 323 OFFCURVE",
"269 333 CURVE",
"440 31 LINE SMOOTH",
"454 7 OFFCURVE",
"477 -7 OFFCURVE",
"507 -7 CURVE SMOOTH"
);
}
);
width = 616;
}
);
rightKerningGroup = K;
userData = {
position = 542;
width = 57;
};
},
{
color = 1;
glyphname = L;
layers = (
{
anchors = (
{
name = bottom;
position = "{252, 0}";
},
{
name = top;
position = "{348, 684}";
}
);
layerId = "873CAA12-270D-4223-A88E-AE8E101FDBE8";
paths = (
{
closed = 1;
nodes = (
"438 0 LINE",
"446 57 LINE",
"119 57 LINE",
"207 684 LINE",
"146 684 LINE",
"50 0 LINE"
);
}
);
width = 496;
},
{
anchors = (
{
name = bottom;
position = "{259, 11}";
},
{
name = top;
position = "{353, 675}";
}
);
layerId = "0CAF3BED-C4AC-4024-B3E1-4C69D1EF7EC0";
paths = (
{
closed = 1;
nodes = (
"450 -1 LINE",
"461 78 LINE",
"144 78 LINE",
"229 686 LINE",
"147 686 LINE",
"51 -1 LINE"
);
}
);
width = 510;
},
{
anchors = (
{
name = bottom;
position = "{248, -6}";
},
{
name = center;
position = "{297, 342}";
},
{
name = top;
position = "{346, 692}";
},
{
name = topright;
position = "{576, 684}";
}
);
layerId = "49C16FD3-6177-408B-A733-AEB3898BB77C";
paths = (
{
closed = 1;
nodes = (
"432 1 LINE",
"438 45 LINE",
"104 45 LINE",
"194 685 LINE",
"146 685 LINE",
"50 1 LINE"
);
}
);
width = 487;
}
);
rightKerningGroup = L;
unicode = 004C;
userData = {
position = 54;
width = 61;
};
},
{
color = 1;
glyphname = Lslash;
layers = (
{
components = (
{
name = L;
transform = "{1, 0, 0, 1, 54, 0}";
}
);
layerId = "873CAA12-270D-4223-A88E-AE8E101FDBE8";
paths = (
{
closed = 1;
nodes = (
"279 427 LINE",
"288 491 LINE",
"46 332 LINE",
"37 269 LINE"
);
}
);
width = 510;
},
{
components = (
{
name = L;
transform = "{1, 0, 0, 1, 55, 0}";
}
);
layerId = "0CAF3BED-C4AC-4024-B3E1-4C69D1EF7EC0";
paths = (
{
closed = 1;
nodes = (
"300 419 LINE",
"311 510 LINE",
"50 339 LINE",
"39 249 LINE"
);
}
);
width = 524;
},
{
components = (
{
name = L;
transform = "{1, 0, 0, 1, 44, 0}";
}
);
layerId = "49C16FD3-6177-408B-A733-AEB3898BB77C";
paths = (
{
closed = 1;
nodes = (
"259 433 LINE",
"265 481 LINE",
"34 329 LINE",
"27 282 LINE"
);
}
);
width = 531;
}
);
rightKerningGroup = L;
unicode = 0141;
userData = {
position = 87;
width = 61;
};
},
{
glyphname = M;
layers = (
{
layerId = "873CAA12-270D-4223-A88E-AE8E101FDBE8";
paths = (
{
closed = 1;
nodes = (
"112 -7 OFFCURVE",
"148 23 OFFCURVE",
"162 62 CURVE SMOOTH",
"332 561 LINE",
"343 601 LINE",
"349 561 LINE",
"472 0 LINE",
"531 0 LINE",
"813 562 LINE",
"829 601 LINE",
"830 563 LINE",
"864 0 LINE",
"921 0 LINE",
"877 684 LINE",
"820 684 LINE",
"529 113 LINE",
"512 74 LINE",
"507 113 LINE",
"378 684 LINE",
"319 684 LINE",
"107 72 LINE",
"100 57 OFFCURVE",
"87 49 OFFCURVE",
"71 49 CURVE SMOOTH",
"57 49 OFFCURVE",
"51 56 OFFCURVE",
"45 68 CURVE",
"-7 49 LINE",
"1 18 OFFCURVE",
"31 -7 OFFCURVE",
"71 -7 CURVE SMOOTH"
);
}
);
width = 978;
},
{
layerId = "0CAF3BED-C4AC-4024-B3E1-4C69D1EF7EC0";
paths = (
{
closed = 1;
nodes = (
"129 -7 OFFCURVE",
"171 27 OFFCURVE",
"186 69 CURVE SMOOTH",
"351 553 LINE",
"351 554 LINE",
"345 538 LINE",
"344 552 LINE",
"345 551 LINE",
"467 -1 LINE",
"540 -1 LINE",
"816 552 LINE",
"817 553 LINE",
"812 540 LINE",
"811 555 LINE",
"845 -1 LINE",
"924 -1 LINE",
"879 686 LINE",
"805 686 LINE",
"520 125 LINE",
"522 126 LINE",
"520 124 LINE",
"519 125 LINE",
"393 686 LINE",
"319 686 LINE",
"110 85 LINE",
"104 75 OFFCURVE",
"99 70 OFFCURVE",
"88 70 CURVE SMOOTH",
"77 70 OFFCURVE",
"76 73 OFFCURVE",
"69 91 CURVE",
"-3 66 LINE",
"2 29 OFFCURVE",
"38 -7 OFFCURVE",
"85 -7 CURVE SMOOTH"
);
}
);
width = 981;
},
{
anchors = (
{
name = bottom;
position = "{497, 0}";
},
{
name = top;
position = "{593, 684}";
}
);
layerId = "49C16FD3-6177-408B-A733-AEB3898BB77C";
paths = (
{
closed = 1;
nodes = (
"102 -6 OFFCURVE",
"136 22 OFFCURVE",
"149 60 CURVE SMOOTH",
"323 568 LINE",
"344 641 LINE",
"354 568 LINE",
"354 569 LINE",
"478 1 LINE",
"528 1 LINE",
"814 570 LINE",
"813 569 LINE",
"843 640 LINE",
"845 569 LINE",
"879 1 LINE",
"922 1 LINE",
"878 685 LINE",
"831 685 LINE",
"537 107 LINE",
"510 43 LINE",
"501 107 LINE",
"370 685 LINE",
"321 685 LINE",
"107 65 LINE",
"106 65 LINE",
"98 48 OFFCURVE",
"81 37 OFFCURVE",
"64 37 CURVE SMOOTH",
"48 37 OFFCURVE",
"39 44 OFFCURVE",
"34 55 CURVE",
"-8 40 LINE",
"3 14 OFFCURVE",
"27 -6 OFFCURVE",
"62 -6 CURVE SMOOTH"
);
}
);
width = 979;
}
);
leftKerningGroup = A;
leftMetricsKey = A;
rightKerningGroup = A;
rightMetricsKey = A;
unicode = 004D;
userData = {
position = 664;
width = 20;
};
},
{
color = 1;
glyphname = M.ss02;
layers = (
{
layerId = "873CAA12-270D-4223-A88E-AE8E101FDBE8";
paths = (
{
closed = 1;
nodes = (
"112 0 LINE",
"175 452 LINE SMOOTH",
"180 482 OFFCURVE",
"181 522 OFFCURVE",
"183 556 CURVE",
"201 522 OFFCURVE",
"224 482 OFFCURVE",
"243 456 CURVE SMOOTH",
"343 304 OFFCURVE",
"365 273 OFFCURVE",
"387 243 CURVE",
"472 322 OFFCURVE",
"630 483 OFFCURVE",
"703 569 CURVE",
"693 536 OFFCURVE",
"683 489 OFFCURVE",
"678 456 CURVE SMOOTH",
"614 0 LINE",
"675 0 LINE",
"772 693 LINE",
"752 693 LINE",
"401 329 LINE",
"388 345 OFFCURVE",
"393 340 OFFCURVE",
"166 692 CURVE",
"148 693 LINE",
"51 0 LINE"
);
}
);
width = 797;
},
{
layerId = "0CAF3BED-C4AC-4024-B3E1-4C69D1EF7EC0";
paths = (
{
closed = 1;
nodes = (
"133 -1 LINE",
"196 450 LINE SMOOTH",
"198 465 OFFCURVE",
"200 484 OFFCURVE",
"202 505 CURVE",
"215 485 OFFCURVE",
"228 463 OFFCURVE",
"240 448 CURVE SMOOTH",
"348 283 OFFCURVE",
"363 264 OFFCURVE",
"387 230 CURVE",
"457 294 OFFCURVE",
"592 430 OFFCURVE",
"674 522 CURVE",
"668 499 OFFCURVE",
"663 474 OFFCURVE",
"661 454 CURVE SMOOTH",
"597 -1 LINE",
"679 -1 LINE",
"777 695 LINE",
"741 695 LINE",
"405 348 LINE",
"183 695 LINE",
"149 695 LINE",
"51 -1 LINE"
);
}
);
width = 802;
},
{
anchors = (
{
name = bottom;
position = "{362, 0}";
},
{
name = top;
position = "{458, 684}";
}
);
layerId = "49C16FD3-6177-408B-A733-AEB3898BB77C";
paths = (
{
closed = 1;
nodes = (
"99 1 LINE",
"163 456 LINE SMOOTH",
"169 497 OFFCURVE",
"170 557 OFFCURVE",
"171 594 CURVE",
"191 553 OFFCURVE",
"221 497 OFFCURVE",
"245 464 CURVE SMOOTH",
"340 319 OFFCURVE",
"366 282 OFFCURVE",
"387 253 CURVE",
"484 343 OFFCURVE",
"662 525 OFFCURVE",
"722 600 CURVE",
"712 569 OFFCURVE",
"695 502 OFFCURVE",
"689 458 CURVE SMOOTH",
"625 1 LINE",
"673 1 LINE",
"770 694 LINE",
"761 694 LINE",
"408 326 LINE",
"396 325 LINE",
"382 341 OFFCURVE",
"326 429 OFFCURVE",
"156 693 CURVE",
"148 694 LINE",
"51 1 LINE"
);
}
);
width = 795;
}
);
userData = {
position = 658;
width = 61;
};
},
{
color = 1;
glyphname = N;
layers = (
{
anchors = (
{
name = bottom;
position = "{396, 0}";
},
{
name = top;
position = "{491, 684}";
}
);
layerId = "873CAA12-270D-4223-A88E-AE8E101FDBE8";
paths = (
{
closed = 1;
nodes = (
"118 -4 OFFCURVE",
"177 23 OFFCURVE",
"186 83 CURVE SMOOTH",
"253 584 LINE",
"265 563 LINE",
"656 0 LINE",
"673 0 LINE",
"769 683 LINE",
"710 683 LINE",
"634 129 LINE",
"622 151 LINE",
"339 559 LINE",
"247 684 LINE",
"210 684 LINE",
"126 87 LINE",
"123 71 OFFCURVE",
"106 52 OFFCURVE",
"83 52 CURVE SMOOTH",
"68 52 OFFCURVE",
"54 62 OFFCURVE",
"57 84 CURVE",
"1 88 LINE",
"0 84 OFFCURVE",
"0 80 OFFCURVE",
"0 76 CURVE SMOOTH",
"0 32 OFFCURVE",
"36 -4 OFFCURVE",
"80 -4 CURVE SMOOTH"
);
}
);
width = 794;
},
{
anchors = (
{
name = bottom;
position = "{397, 11}";
},
{
name = top;
position = "{490, 675}";
}
);
layerId = "0CAF3BED-C4AC-4024-B3E1-4C69D1EF7EC0";
paths = (
{
closed = 1;
nodes = (
"130 -4 OFFCURVE",
"197 26 OFFCURVE",
"206 92 CURVE SMOOTH",
"264 539 LINE",
"258 550 LINE",
"643 -1 LINE",
"677 -1 LINE",
"773 685 LINE",
"692 685 LINE",
"625 177 LINE",
"630 164 LINE",
"353 561 LINE",
"260 686 LINE",
"207 686 LINE",
"124 96 LINE SMOOTH",
"123 86 OFFCURVE",
"110 73 OFFCURVE",
"96 73 CURVE SMOOTH",
"88 73 OFFCURVE",
"80 79 OFFCURVE",
"80 88 CURVE SMOOTH",
"80 91 LINE SMOOTH",
"80 96 OFFCURVE",
"83 100 OFFCURVE",
"85 104 CURVE",
"5 108 LINE",
"3 104 OFFCURVE",
"4 100 OFFCURVE",
"4 98 CURVE SMOOTH",
"3 94 OFFCURVE",
"3 89 OFFCURVE",
"3 85 CURVE SMOOTH",
"3 36 OFFCURVE",
"43 -4 OFFCURVE",
"90 -4 CURVE SMOOTH"
);
}
);
width = 798;
},
{
anchors = (
{
name = bottom;
position = "{393, -6}";
},
{
name = top;
position = "{490, 692}";
}
);
layerId = "49C16FD3-6177-408B-A733-AEB3898BB77C";
paths = (
{
closed = 1;
nodes = (
"108 -3 OFFCURVE",
"164 23 OFFCURVE",
"172 80 CURVE SMOOTH",
"243 614 LINE",
"264 572 LINE",
"264 573 LINE",
"662 1 LINE",
"670 1 LINE",
"766 684 LINE",
"720 684 LINE",
"641 101 LINE",
"620 144 LINE",
"620 143 LINE",
"332 560 LINE",
"238 685 LINE",
"210 685 LINE",
"125 82 LINE SMOOTH",
"122 63 OFFCURVE",
"101 40 OFFCURVE",
"75 40 CURVE SMOOTH",
"58 40 OFFCURVE",
"41 52 OFFCURVE",
"40 74 CURVE",
"-2 76 LINE",
"-6 31 OFFCURVE",
"27 -3 OFFCURVE",
"70 -3 CURVE SMOOTH"
);
}
);
width = 791;
}
);
leftKerningGroup = N;
unicode = 004E;
userData = {
position = 642;
width = 56;
};
},
{
color = 1;
glyphname = N.ss02;
layers = (
{
anchors = (
{
name = bottom;
position = "{343, 0}";
},
{
name = top;
position = "{410, 684}";
}
);
layerId = "873CAA12-270D-4223-A88E-AE8E101FDBE8";
paths = (
{
closed = 1;
nodes = (
"622 -1 LINE",
"718 685 LINE",
"657 685 LINE",
"579 106 LINE",
"573 113 OFFCURVE",
"567 119 OFFCURVE",
"563 126 CURVE SMOOTH",
"549 144 LINE",
"166 694 LINE",
"148 694 LINE",
"51 0 LINE",
"112 0 LINE",
"176 453 LINE SMOOTH",
"178 468 OFFCURVE",
"179 486 OFFCURVE",
"181 505 CURVE SMOOTH",
"185 562 LINE",
"195 543 OFFCURVE",
"207 524 OFFCURVE",
"218 506 CURVE SMOOTH",
"231 485 OFFCURVE",
"239 470 OFFCURVE",
"249 456 CURVE SMOOTH",
"508 98 LINE",
"597 -1 LINE"
);
}
);
width = 744;
},
{
anchors = (
{
name = bottom;
position = "{347, 11}";
},
{
name = top;
position = "{410, 684}";
}
);
layerId = "0CAF3BED-C4AC-4024-B3E1-4C69D1EF7EC0";
paths = (
{
closed = 1;
nodes = (
"133 -1 LINE",
"196 450 LINE SMOOTH",
"198 465 OFFCURVE",
"200 483 OFFCURVE",
"201 502 CURVE",
"204 512 LINE",
"215 495 LINE",
"226 476 OFFCURVE",
"237 461 OFFCURVE",
"247 447 CURVE SMOOTH",
"498 98 LINE",
"587 -1 LINE",
"628 -1 LINE",
"724 687 LINE",
"641 687 LINE",
"571 148 LINE",
"571 146 OFFCURVE",
"572 133 OFFCURVE",
"573 132 CURVE",
"557 159 LINE",
"183 696 LINE",
"149 696 LINE",
"51 -1 LINE"
);
}
);
width = 750;
},
{
anchors = (
{
name = bottom;
position = "{341, -6}";
},
{
name = top;
position = "{421, 684}";
}
);
layerId = "49C16FD3-6177-408B-A733-AEB3898BB77C";
paths = (
{
closed = 1;
nodes = (
"619 0 LINE",
"715 686 LINE",
"667 686 LINE",
"589 103 LINE",
"589 84 LINE",
"583 91 OFFCURVE",
"572 105 OFFCURVE",
"567 111 CURVE SMOOTH",
"547 136 LINE",
"158 695 LINE",
"149 695 LINE",
"51 1 LINE",
"99 1 LINE",
"163 457 LINE",
"169 510 LINE",
"172 593 LINE",
"218 513 LINE",
"230 494 OFFCURVE",
"241 478 OFFCURVE",
"251 464 CURVE SMOOTH",
"513 99 LINE",
"602 0 LINE"
);
}
);
width = 741;
}
);
userData = {
position = 605;
width = 61;
};
},
{
glyphname = Eng;
layers = (
{
components = (
{
name = N;
}
);
layerId = "873CAA12-270D-4223-A88E-AE8E101FDBE8";
paths = (
{
closed = 1;
nodes = (
"598 -200 OFFCURVE",
"640 -162 OFFCURVE",
"647 -112 CURVE SMOOTH",
"701 271 LINE",
"646 271 LINE",
"592 -108 LINE SMOOTH",
"589 -128 OFFCURVE",
"571 -145 OFFCURVE",
"548 -145 CURVE SMOOTH",
"538 -145 OFFCURVE",
"531 -141 OFFCURVE",
"525 -131 CURVE",
"477 -159 LINE",
"491 -186 OFFCURVE",
"516 -200 OFFCURVE",
"548 -200 CURVE SMOOTH"
);
}
);
width = 794;
},
{
components = (
{
name = N;
}
);
layerId = "0CAF3BED-C4AC-4024-B3E1-4C69D1EF7EC0";
paths = (
{
closed = 1;
nodes = (
"598 -205 OFFCURVE",
"646 -162 OFFCURVE",
"653 -111 CURVE SMOOTH",
"699 205 LINE",
"624 205 LINE",
"579 -107 LINE SMOOTH",
"577 -119 OFFCURVE",
"564 -130 OFFCURVE",
"550 -130 CURVE SMOOTH",
"540 -130 OFFCURVE",
"538 -128 OFFCURVE",
"532 -114 CURVE",
"465 -150 LINE",
"480 -184 OFFCURVE",
"510 -205 OFFCURVE",
"547 -205 CURVE SMOOTH"
);
}
);
width = 798;
},
{
components = (
{
name = N;
}
);
layerId = "49C16FD3-6177-408B-A733-AEB3898BB77C";
paths = (
{
closed = 1;
nodes = (
"596 -204 OFFCURVE",
"635 -168 OFFCURVE",
"642 -120 CURVE SMOOTH",
"701 278 LINE",
"659 278 LINE",
"600 -118 LINE SMOOTH",
"596 -142 OFFCURVE",
"575 -162 OFFCURVE",
"549 -162 CURVE SMOOTH",
"539 -162 OFFCURVE",
"528 -159 OFFCURVE",
"521 -150 CURVE",
"485 -171 LINE",
"499 -193 OFFCURVE",
"520 -204 OFFCURVE",
"547 -204 CURVE SMOOTH"
);
}
);
width = 791;
}
);
leftKerningGroup = N;
leftMetricsKey = N;
rightMetricsKey = N;
unicode = 014A;
},
{
color = 1;
glyphname = O;
layers = (
{
anchors = (
{
name = bottom;
position = "{353, -27}";
},
{
name = horn;
position = "{718, 530}";
},
{
name = ogonek;
position = "{619, 83}";
},
{
name = top;
position = "{449, 706}";
}
);
layerId = "873CAA12-270D-4223-A88E-AE8E101FDBE8";
paths = (
{
closed = 1;
nodes = (
"552 -27 OFFCURVE",
"721 126 OFFCURVE",
"753 347 CURVE SMOOTH",
"755 364 OFFCURVE",
"756 380 OFFCURVE",
"756 396 CURVE SMOOTH",
"756 567 OFFCURVE",
"629 706 OFFCURVE",
"449 706 CURVE SMOOTH",
"254 706 OFFCURVE",
"81 542 OFFCURVE",
"54 351 CURVE SMOOTH",
"52 332 LINE SMOOTH",
"28 130 OFFCURVE",
"161 -27 OFFCURVE",
"358 -27 CURVE SMOOTH"
);
},
{
closed = 1;
nodes = (
"196 25 OFFCURVE",
"85 161 OFFCURVE",
"107 328 CURVE SMOOTH",
"110 347 LINE SMOOTH",
"132 507 OFFCURVE",
"281 654 OFFCURVE",
"448 654 CURVE SMOOTH",
"590 654 OFFCURVE",
"700 543 OFFCURVE",
"700 395 CURVE SMOOTH",
"700 381 OFFCURVE",
"699 366 OFFCURVE",
"697 351 CURVE SMOOTH",
"670 162 OFFCURVE",
"523 25 OFFCURVE",
"355 25 CURVE SMOOTH"
);
}
);
width = 783;
},
{
anchors = (
{
name = bottom;
position = "{358, -15}";
},
{
name = horn;
position = "{712, 525}";
},
{
name = ogonek;
position = "{614, 76}";
},
{
name = top;
position = "{452, 708}";
}
);
layerId = "0CAF3BED-C4AC-4024-B3E1-4C69D1EF7EC0";
paths = (
{
closed = 1;
nodes = (
"554 -27 OFFCURVE",
"726 128 OFFCURVE",
"757 348 CURVE SMOOTH",
"759 364 OFFCURVE",
"760 380 OFFCURVE",
"760 396 CURVE SMOOTH",
"760 567 OFFCURVE",
"631 708 OFFCURVE",
"452 708 CURVE SMOOTH",
"258 708 OFFCURVE",
"83 541 OFFCURVE",
"56 352 CURVE SMOOTH",
"54 333 LINE SMOOTH",
"29 137 OFFCURVE",
"165 -27 OFFCURVE",
"361 -27 CURVE SMOOTH"
);
},
{
closed = 1;
nodes = (
"213 44 OFFCURVE",
"109 175 OFFCURVE",
"131 329 CURVE SMOOTH",
"134 348 LINE SMOOTH",
"155 496 OFFCURVE",
"294 637 OFFCURVE",
"449 637 CURVE SMOOTH",
"581 637 OFFCURVE",
"683 531 OFFCURVE",
"683 394 CURVE SMOOTH",
"683 380 OFFCURVE",
"682 366 OFFCURVE",
"680 352 CURVE SMOOTH",
"655 177 OFFCURVE",
"518 44 OFFCURVE",
"361 44 CURVE SMOOTH"
);
}
);
width = 787;
},
{
anchors = (
{
name = bottom;
position = "{350, -34}";
},
{
name = center;
position = "{416, 342}";
},
{
name = horn;
position = "{734, 534}";
},
{
name = ogonek;
position = "{609, 78}";
},
{
name = top;
position = "{449, 707}";
},
{
name = topleft;
position = "{81, 684}";
},
{
name = topright;
position = "{705, 527}";
}
);
layerId = "49C16FD3-6177-408B-A733-AEB3898BB77C";
paths = (
{
closed = 1;
nodes = (
"550 -26 OFFCURVE",
"720 127 OFFCURVE",
"751 349 CURVE SMOOTH",
"753 366 OFFCURVE",
"754 383 OFFCURVE",
"754 399 CURVE SMOOTH",
"754 570 OFFCURVE",
"629 707 OFFCURVE",
"449 707 CURVE SMOOTH",
"252 707 OFFCURVE",
"79 543 OFFCURVE",
"52 351 CURVE SMOOTH",
"50 332 LINE SMOOTH",
"26 130 OFFCURVE",
"157 -26 OFFCURVE",
"354 -26 CURVE SMOOTH"
);
},
{
closed = 1;
nodes = (
"187 13 OFFCURVE",
"69 157 OFFCURVE",
"92 330 CURVE SMOOTH",
"95 349 LINE SMOOTH",
"118 515 OFFCURVE",
"273 667 OFFCURVE",
"446 667 CURVE SMOOTH",
"595 667 OFFCURVE",
"711 550 OFFCURVE",
"711 396 CURVE SMOOTH",
"711 381 OFFCURVE",
"710 366 OFFCURVE",
"708 351 CURVE SMOOTH",
"680 156 OFFCURVE",
"527 13 OFFCURVE",
"353 13 CURVE SMOOTH"
);
}
);
width = 781;
}
);
leftKerningGroup = O;
leftMetricsKey = O;
rightKerningGroup = O;
unicode = 004F;
userData = {
position = 683;
width = 56;
};
},
{
color = 1;
glyphname = P;
layers = (
{
layerId = "873CAA12-270D-4223-A88E-AE8E101FDBE8";
paths = (
{
closed = 1;
nodes = (
"172 -1 LINE",
"260 628 LINE",
"394 628 LINE SMOOTH",
"471 625 OFFCURVE",
"521 591 OFFCURVE",
"521 509 CURVE SMOOTH",
"521 499 OFFCURVE",
"520 487 OFFCURVE",
"518 475 CURVE SMOOTH",
"501 357 OFFCURVE",
"425 314 OFFCURVE",
"324 314 CURVE SMOOTH",
"311 314 OFFCURVE",
"286 315 OFFCURVE",
"255 317 CURVE",
"252 262 LINE",
"280 259 OFFCURVE",
"307 257 OFFCURVE",
"329 257 CURVE SMOOTH",
"444 257 OFFCURVE",
"555 321 OFFCURVE",
"576 468 CURVE SMOOTH",
"578 482 OFFCURVE",
"579 496 OFFCURVE",
"579 509 CURVE SMOOTH",
"579 611 OFFCURVE",
"522 684 OFFCURVE",
"412 684 CURVE SMOOTH",
"182 684 LINE SMOOTH",
"152 684 OFFCURVE",
"127 672 OFFCURVE",
"105 654 CURVE SMOOTH",
"84 634 OFFCURVE",
"71 610 OFFCURVE",
"67 581 CURVE",
"122 577 LINE",
"124 592 OFFCURVE",
"133 604 OFFCURVE",
"144 612 CURVE SMOOTH",
"156 624 OFFCURVE",
"163 628 OFFCURVE",
"201 628 CURVE",
"111 -1 LINE"
);
}
);
width = 583;
},
{
layerId = "0CAF3BED-C4AC-4024-B3E1-4C69D1EF7EC0";
paths = (
{
closed = 1;
nodes = (
"191 -1 LINE",
"276 609 LINE",
"394 609 LINE",
"463 606 OFFCURVE",
"506 576 OFFCURVE",
"506 504 CURVE SMOOTH",
"506 494 OFFCURVE",
"506 483 OFFCURVE",
"504 472 CURVE SMOOTH",
"489 366 OFFCURVE",
"422 327 OFFCURVE",
"330 327 CURVE SMOOTH",
"315 327 OFFCURVE",
"287 329 OFFCURVE",
"251 331 CURVE",
"245 255 LINE",
"276 251 OFFCURVE",
"307 249 OFFCURVE",
"331 249 CURVE SMOOTH",
"446 249 OFFCURVE",
"562 316 OFFCURVE",
"583 465 CURVE SMOOTH",
"585 479 OFFCURVE",
"586 493 OFFCURVE",
"586 507 CURVE SMOOTH",
"586 609 OFFCURVE",
"526 686 OFFCURVE",
"415 686 CURVE SMOOTH",
"191 686 LINE SMOOTH",
"159 686 OFFCURVE",
"131 672 OFFCURVE",
"108 655 CURVE",
"85 632 OFFCURVE",
"67 600 OFFCURVE",
"67 569 CURVE SMOOTH",
"67 567 OFFCURVE",
"67 565 OFFCURVE",
"66 563 CURVE",
"142 559 LINE",
"143 579 OFFCURVE",
"150 588 OFFCURVE",
"161 595 CURVE",
"169 605 OFFCURVE",
"172 608 OFFCURVE",
"195 609 CURVE",
"108 -1 LINE"
);
}
);
width = 590;
},
{
anchors = (
{
name = bottom;
position = "{274, 0}";
},
{
name = top;
position = "{370, 684}";
}
);
layerId = "49C16FD3-6177-408B-A733-AEB3898BB77C";
paths = (
{
closed = 1;
nodes = (
"161 0 LINE",
"251 642 LINE",
"394 642 LINE SMOOTH",
"475 639 OFFCURVE",
"530 600 OFFCURVE",
"530 511 CURVE SMOOTH",
"530 500 OFFCURVE",
"529 489 OFFCURVE",
"527 476 CURVE SMOOTH",
"509 353 OFFCURVE",
"427 307 OFFCURVE",
"323 307 CURVE SMOOTH",
"310 307 OFFCURVE",
"287 308 OFFCURVE",
"259 310 CURVE",
"256 268 LINE",
"282 265 OFFCURVE",
"307 263 OFFCURVE",
"326 263 CURVE SMOOTH",
"443 263 OFFCURVE",
"552 326 OFFCURVE",
"572 473 CURVE SMOOTH",
"574 488 OFFCURVE",
"575 502 OFFCURVE",
"575 515 CURVE SMOOTH",
"575 615 OFFCURVE",
"520 685 OFFCURVE",
"412 685 CURVE SMOOTH",
"177 685 LINE SMOOTH",
"149 685 OFFCURVE",
"126 674 OFFCURVE",
"103 656 CURVE SMOOTH",
"85 638 OFFCURVE",
"73 618 OFFCURVE",
"68 593 CURVE",
"111 591 LINE",
"114 605 OFFCURVE",
"123 616 OFFCURVE",
"134 623 CURVE",
"147 637 OFFCURVE",
"157 642 OFFCURVE",
"204 642 CURVE",
"113 0 LINE"
);
}
);
width = 578;
}
);
leftKerningGroup = E;
rightKerningGroup = F;
unicode = 0050;
userData = {
position = 480;
width = 59;
};
},
{
color = 1;
glyphname = P.ss01;
layers = (
{
layerId = "873CAA12-270D-4223-A88E-AE8E101FDBE8";
paths = (
{
closed = 1;
nodes = (
"454 255 OFFCURVE",
"560 330 OFFCURVE",
"580 470 CURVE SMOOTH",
"582 484 OFFCURVE",
"583 497 OFFCURVE",
"583 510 CURVE SMOOTH",
"583 610 OFFCURVE",
"526 684 OFFCURVE",
"416 684 CURVE SMOOTH",
"186 684 LINE SMOOTH",
"130 684 OFFCURVE",
"78 637 OFFCURVE",
"71 582 CURVE SMOOTH",
"70 576 OFFCURVE",
"70 571 OFFCURVE",
"70 565 CURVE SMOOTH",
"70 535 OFFCURVE",
"84 507 OFFCURVE",
"109 490 CURVE",
"143 536 LINE",
"131 543 OFFCURVE",
"125 554 OFFCURVE",
"125 566 CURVE SMOOTH",
"125 600 OFFCURVE",
"155 628 OFFCURVE",
"184 628 CURVE SMOOTH",
"398 628 LINE SMOOTH",
"479 626 OFFCURVE",
"524 583 OFFCURVE",
"524 508 CURVE SMOOTH",
"524 498 OFFCURVE",
"523 488 OFFCURVE",
"522 478 CURVE SMOOTH",
"508 375 OFFCURVE",
"434 310 OFFCURVE",
"315 310 CURVE SMOOTH",
"296 310 OFFCURVE",
"279 312 OFFCURVE",
"259 315 CURVE",
"255 260 LINE",
"270 257 OFFCURVE",
"287 255 OFFCURVE",
"312 255 CURVE SMOOTH"
);
},
{
closed = 1;
nodes = (
"176 -1 LINE",
"256 571 LINE",
"195 571 LINE",
"115 -1 LINE"
);
}
);
width = 587;
},
{
layerId = "0CAF3BED-C4AC-4024-B3E1-4C69D1EF7EC0";
paths = (
{
closed = 1;
nodes = (
"456 247 OFFCURVE",
"567 326 OFFCURVE",
"586 467 CURVE SMOOTH",
"588 481 OFFCURVE",
"589 494 OFFCURVE",
"589 507 CURVE SMOOTH",
"589 608 OFFCURVE",
"530 686 OFFCURVE",
"418 686 CURVE SMOOTH",
"194 686 LINE SMOOTH",
"130 686 OFFCURVE",
"69 625 OFFCURVE",
"69 561 CURVE SMOOTH",
"69 524 OFFCURVE",
"88 488 OFFCURVE",
"121 471 CURVE",
"167 535 LINE",
"152 542 OFFCURVE",
"146 549 OFFCURVE",
"146 560 CURVE SMOOTH",
"146 585 OFFCURVE",
"168 609 OFFCURVE",
"189 609 CURVE SMOOTH",
"397 609 LINE SMOOTH",
"469 607 OFFCURVE",
"510 569 OFFCURVE",
"510 501 CURVE SMOOTH",
"510 493 OFFCURVE",
"509 484 OFFCURVE",
"508 475 CURVE SMOOTH",
"495 382 OFFCURVE",
"429 323 OFFCURVE",
"320 323 CURVE SMOOTH",
"298 323 OFFCURVE",
"279 326 OFFCURVE",
"254 330 CURVE",
"248 254 LINE",
"264 250 OFFCURVE",
"284 247 OFFCURVE",
"314 247 CURVE SMOOTH"
);
},
{
closed = 1;
nodes = (
"194 -1 LINE",
"275 577 LINE",
"192 577 LINE",
"111 -1 LINE"
);
}
);
width = 593;
},
{
anchors = (
{
name = bottom;
position = "{279, 0}";
},
{
name = top;
position = "{375, 684}";
}
);
layerId = "49C16FD3-6177-408B-A733-AEB3898BB77C";
paths = (
{
closed = 1;
nodes = (
"453 261 OFFCURVE",
"558 335 OFFCURVE",
"578 475 CURVE SMOOTH",
"580 489 OFFCURVE",
"581 502 OFFCURVE",
"581 515 CURVE SMOOTH",
"581 614 OFFCURVE",
"526 685 OFFCURVE",
"417 685 CURVE SMOOTH",
"182 685 LINE SMOOTH",
"124 685 OFFCURVE",
"70 632 OFFCURVE",
"70 572 CURVE SMOOTH",
"70 545 OFFCURVE",
"81 520 OFFCURVE",
"103 504 CURVE",
"128 539 LINE",
"119 547 OFFCURVE",
"113 560 OFFCURVE",
"113 573 CURVE SMOOTH",
"113 609 OFFCURVE",
"147 642 OFFCURVE",
"180 642 CURVE SMOOTH",
"399 642 LINE SMOOTH",
"484 640 OFFCURVE",
"534 592 OFFCURVE",
"534 510 CURVE SMOOTH",
"534 500 OFFCURVE",
"534 490 OFFCURVE",
"532 479 CURVE SMOOTH",
"517 373 OFFCURVE",
"438 303 OFFCURVE",
"315 303 CURVE SMOOTH",
"297 303 OFFCURVE",
"281 305 OFFCURVE",
"264 307 CURVE",
"260 265 LINE",
"274 263 OFFCURVE",
"289 261 OFFCURVE",
"310 261 CURVE SMOOTH"
);
},
{
closed = 1;
nodes = (
"166 0 LINE",
"246 569 LINE",
"198 569 LINE",
"118 0 LINE"
);
}
);
width = 584;
}
);
leftKerningGroup = E;
rightKerningGroup = F;
userData = {
position = 480;
width = 59;
};
},
{
color = 1;
glyphname = P.ss02;
layers = (
{
layerId = "873CAA12-270D-4223-A88E-AE8E101FDBE8";
paths = (
{
closed = 1;
nodes = (
"407 254 OFFCURVE",
"498 335 OFFCURVE",
"516 466 CURVE SMOOTH",
"518 481 OFFCURVE",
"519 495 OFFCURVE",
"519 508 CURVE SMOOTH",
"519 614 OFFCURVE",
"458 684 OFFCURVE",
"353 684 CURVE SMOOTH",
"147 684 LINE",
"139 628 LINE",
"335 628 LINE SMOOTH",
"413 628 OFFCURVE",
"461 585 OFFCURVE",
"461 508 CURVE SMOOTH",
"461 498 OFFCURVE",
"461 488 OFFCURVE",
"459 477 CURVE SMOOTH",
"444 371 OFFCURVE",
"368 312 OFFCURVE",
"242 312 CURVE SMOOTH",
"215 312 OFFCURVE",
"182 314 OFFCURVE",
"146 315 CURVE",
"142 256 LINE",
"147 256 OFFCURVE",
"200 254 OFFCURVE",
"230 254 CURVE SMOOTH"
);
},
{
closed = 1;
nodes = (
"112 -1 LINE",
"208 681 LINE",
"147 681 LINE",
"51 -1 LINE"
);
}
);
width = 523;
},
{
layerId = "0CAF3BED-C4AC-4024-B3E1-4C69D1EF7EC0";
paths = (
{
closed = 1;
nodes = (
"411 246 OFFCURVE",
"507 331 OFFCURVE",
"526 463 CURVE SMOOTH",
"528 477 OFFCURVE",
"529 490 OFFCURVE",
"529 504 CURVE SMOOTH",
"529 611 OFFCURVE",
"464 686 OFFCURVE",
"357 686 CURVE SMOOTH",
"146 686 LINE",
"135 609 LINE",
"337 609 LINE SMOOTH",
"406 609 OFFCURVE",
"449 571 OFFCURVE",
"449 502 CURVE SMOOTH",
"449 493 OFFCURVE",
"448 484 OFFCURVE",
"447 474 CURVE SMOOTH",
"434 378 OFFCURVE",
"366 325 OFFCURVE",
"250 325 CURVE SMOOTH",
"221 325 OFFCURVE",
"185 328 OFFCURVE",
"145 329 CURVE",
"138 259 LINE",
"151 248 LINE",
"154 248 OFFCURVE",
"205 246 OFFCURVE",
"234 246 CURVE SMOOTH"
);
},
{
closed = 1;
nodes = (
"132 -1 LINE",
"228 683 LINE",
"146 683 LINE",
"50 -1 LINE"
);
}
);
width = 534;
},
{
anchors = (
{
name = bottom;
position = "{256, 0}";
},
{
name = top;
position = "{352, 684}";
}
);
layerId = "49C16FD3-6177-408B-A733-AEB3898BB77C";
paths = (
{
closed = 1;
nodes = (
"402 260 OFFCURVE",
"493 340 OFFCURVE",
"511 471 CURVE SMOOTH",
"513 486 OFFCURVE",
"514 500 OFFCURVE",
"514 514 CURVE SMOOTH",
"514 618 OFFCURVE",
"454 685 OFFCURVE",
"351 685 CURVE SMOOTH",
"147 685 LINE",
"141 642 LINE",
"333 642 LINE SMOOTH",
"416 642 OFFCURVE",
"468 594 OFFCURVE",
"468 510 CURVE SMOOTH",
"468 500 OFFCURVE",
"468 489 OFFCURVE",
"466 478 CURVE SMOOTH",
"451 368 OFFCURVE",
"369 305 OFFCURVE",
"239 305 CURVE SMOOTH",
"212 305 OFFCURVE",
"181 307 OFFCURVE",
"147 308 CURVE",
"143 262 LINE",
"160 262 OFFCURVE",
"200 260 OFFCURVE",
"224 260 CURVE SMOOTH"
);
},
{
closed = 1;
nodes = (
"99 0 LINE",
"195 681 LINE",
"147 681 LINE",
"51 0 LINE"
);
}
);
width = 518;
}
);
leftKerningGroup = E;
rightKerningGroup = F;
userData = {
position = 480;
width = 59;
};
},
{
color = 1;
glyphname = Thorn;
layers = (
{
layerId = "873CAA12-270D-4223-A88E-AE8E101FDBE8";
paths = (
{
closed = 1;
nodes = (
"111 0 LINE",
"182 509 LINE",
"321 509 LINE SMOOTH",
"404 509 OFFCURVE",
"452 469 OFFCURVE",
"452 391 CURVE SMOOTH",
"452 381 OFFCURVE",
"452 371 OFFCURVE",
"450 360 CURVE SMOOTH",
"434 243 OFFCURVE",
"347 191 OFFCURVE",
"244 191 CURVE SMOOTH",
"226 191 OFFCURVE",
"207 193 OFFCURVE",
"187 196 CURVE",
"184 141 LINE",
"196 139 OFFCURVE",
"215 137 OFFCURVE",
"241 137 CURVE SMOOTH",
"374 137 OFFCURVE",
"487 199 OFFCURVE",
"508 348 CURVE SMOOTH",
"510 362 OFFCURVE",
"511 376 OFFCURVE",
"511 389 CURVE SMOOTH",
"511 492 OFFCURVE",
"449 557 OFFCURVE",
"344 563 CURVE",
"190 563 LINE",
"207 684 LINE",
"146 684 LINE",
"50 0 LINE"
);
}
);
width = 531;
},
{
layerId = "0CAF3BED-C4AC-4024-B3E1-4C69D1EF7EC0";
paths = (
{
closed = 1;
nodes = (
"133 -1 LINE",
"202 493 LINE",
"325 493 LINE SMOOTH",
"399 493 OFFCURVE",
"442 458 OFFCURVE",
"442 389 CURVE SMOOTH",
"442 380 OFFCURVE",
"442 370 OFFCURVE",
"440 360 CURVE SMOOTH",
"426 255 OFFCURVE",
"348 208 OFFCURVE",
"253 208 CURVE SMOOTH",
"232 208 OFFCURVE",
"212 211 OFFCURVE",
"187 215 CURVE",
"180 138 LINE",
"192 136 OFFCURVE",
"214 132 OFFCURVE",
"247 132 CURVE SMOOTH",
"380 132 OFFCURVE",
"499 198 OFFCURVE",
"520 349 CURVE SMOOTH",
"522 363 OFFCURVE",
"523 376 OFFCURVE",
"523 389 CURVE SMOOTH",
"523 494 OFFCURVE",
"458 563 OFFCURVE",
"352 569 CURVE",
"213 569 LINE",
"229 686 LINE",
"147 686 LINE",
"51 -1 LINE"
);
}
);
width = 543;
},
{
anchors = (
{
name = bottom;
position = "{262, 0}";
},
{
name = top;
position = "{358, 684}";
}
);
layerId = "49C16FD3-6177-408B-A733-AEB3898BB77C";
paths = (
{
closed = 1;
nodes = (
"98 1 LINE",
"171 520 LINE",
"319 520 LINE SMOOTH",
"406 520 OFFCURVE",
"459 475 OFFCURVE",
"459 391 CURVE SMOOTH",
"459 381 OFFCURVE",
"459 370 OFFCURVE",
"457 359 CURVE SMOOTH",
"440 237 OFFCURVE",
"347 182 OFFCURVE",
"240 182 CURVE SMOOTH",
"223 182 OFFCURVE",
"207 183 OFFCURVE",
"189 186 CURVE",
"185 144 LINE",
"198 142 OFFCURVE",
"215 141 OFFCURVE",
"236 141 CURVE SMOOTH",
"371 141 OFFCURVE",
"481 202 OFFCURVE",
"502 351 CURVE SMOOTH",
"504 366 OFFCURVE",
"505 380 OFFCURVE",
"505 393 CURVE SMOOTH",
"505 494 OFFCURVE",
"445 555 OFFCURVE",
"342 561 CURVE",
"177 561 LINE",
"194 685 LINE",
"146 685 LINE",
"50 1 LINE"
);
}
);
width = 525;
}
);
rightKerningGroup = O;
unicode = 00DE;
userData = {
position = 403;
width = 59;
};
},
{
color = 1;
glyphname = Q;
layers = (
{
layerId = "873CAA12-270D-4223-A88E-AE8E101FDBE8";
paths = (
{
closed = 1;
nodes = (
"207 -138 LINE",
"302 -171 LINE SMOOTH",
"346 -186 OFFCURVE",
"382 -193 OFFCURVE",
"432 -193 CURVE SMOOTH",
"466 -193 OFFCURVE",
"490 -190 OFFCURVE",
"550 -151 CURVE",
"528 -105 LINE",
"483 -134 OFFCURVE",
"457 -141 OFFCURVE",
"424 -141 CURVE SMOOTH",
"393 -141 OFFCURVE",
"355 -134 OFFCURVE",
"319 -121 CURVE SMOOTH",
"245 -94 LINE",
"316 -9 LINE",
"344 -10 LINE SMOOTH",
"543 -10 OFFCURVE",
"700 136 OFFCURVE",
"728 337 CURVE SMOOTH",
"731 358 OFFCURVE",
"732 378 OFFCURVE",
"732 397 CURVE SMOOTH",
"732 570 OFFCURVE",
"620 694 OFFCURVE",
"436 694 CURVE SMOOTH",
"238 694 OFFCURVE",
"83 547 OFFCURVE",
"54 346 CURVE SMOOTH",
"51 325 OFFCURVE",
"50 305 OFFCURVE",
"50 285 CURVE SMOOTH",
"50 147 OFFCURVE",
"120 34 OFFCURVE",
"260 0 CURVE",
"117 -166 LINE",
"157 -199 LINE"
);
},
{
closed = 1;
nodes = (
"194 45 OFFCURVE",
"111 145 OFFCURVE",
"111 284 CURVE SMOOTH",
"111 302 OFFCURVE",
"112 320 OFFCURVE",
"115 339 CURVE SMOOTH",
"139 512 OFFCURVE",
"266 639 OFFCURVE",
"438 639 CURVE SMOOTH",
"588 639 OFFCURVE",
"674 540 OFFCURVE",
"674 399 CURVE SMOOTH",
"674 382 OFFCURVE",
"672 365 OFFCURVE",
"670 347 CURVE SMOOTH",
"645 175 OFFCURVE",
"519 45 OFFCURVE",
"345 45 CURVE SMOOTH"
);
}
);
width = 759;
},
{
layerId = "0CAF3BED-C4AC-4024-B3E1-4C69D1EF7EC0";
paths = (
{
closed = 1;
nodes = (
"218 -137 LINE",
"303 -165 LINE SMOOTH",
"346 -180 OFFCURVE",
"381 -188 OFFCURVE",
"430 -188 CURVE SMOOTH",
"466 -188 OFFCURVE",
"496 -184 OFFCURVE",
"562 -139 CURVE",
"530 -74 LINE",
"481 -107 OFFCURVE",
"460 -114 OFFCURVE",
"427 -114 CURVE SMOOTH",
"398 -114 OFFCURVE",
"362 -109 OFFCURVE",
"327 -96 CURVE SMOOTH",
"270 -74 LINE",
"324 -9 LINE",
"345 -10 LINE",
"544 -10 OFFCURVE",
"703 138 OFFCURVE",
"731 338 CURVE SMOOTH",
"734 358 OFFCURVE",
"735 378 OFFCURVE",
"735 398 CURVE SMOOTH",
"735 569 OFFCURVE",
"622 696 OFFCURVE",
"439 696 CURVE SMOOTH",
"242 696 OFFCURVE",
"83 546 OFFCURVE",
"55 347 CURVE SMOOTH",
"52 327 OFFCURVE",
"51 307 OFFCURVE",
"51 287 CURVE SMOOTH",
"51 155 OFFCURVE",
"118 43 OFFCURVE",
"247 5 CURVE",
"112 -152 LINE",
"167 -199 LINE"
);
},
{
closed = 1;
nodes = (
"210 66 OFFCURVE",
"133 159 OFFCURVE",
"133 289 CURVE SMOOTH",
"133 305 OFFCURVE",
"135 322 OFFCURVE",
"137 340 CURVE SMOOTH",
"159 501 OFFCURVE",
"277 619 OFFCURVE",
"437 619 CURVE SMOOTH",
"575 619 OFFCURVE",
"656 527 OFFCURVE",
"656 397 CURVE SMOOTH",
"656 381 OFFCURVE",
"654 365 OFFCURVE",
"652 348 CURVE SMOOTH",
"629 187 OFFCURVE",
"511 66 OFFCURVE",
"350 66 CURVE SMOOTH"
);
}
);
width = 762;
},
{
anchors = (
{
name = bottom;
position = "{355, 0}";
},
{
name = top;
position = "{451, 684}";
}
);
layerId = "49C16FD3-6177-408B-A733-AEB3898BB77C";
paths = (
{
closed = 1;
nodes = (
"198 -138 LINE",
"300 -174 LINE SMOOTH",
"345 -189 OFFCURVE",
"380 -196 OFFCURVE",
"429 -196 CURVE SMOOTH",
"463 -196 OFFCURVE",
"487 -193 OFFCURVE",
"542 -158 CURVE",
"526 -123 LINE",
"482 -150 OFFCURVE",
"456 -157 OFFCURVE",
"424 -157 CURVE SMOOTH",
"390 -157 OFFCURVE",
"349 -150 OFFCURVE",
"312 -136 CURVE SMOOTH",
"227 -106 LINE",
"308 -8 LINE",
"342 -9 LINE SMOOTH",
"541 -9 OFFCURVE",
"697 137 OFFCURVE",
"726 340 CURVE SMOOTH",
"729 361 OFFCURVE",
"730 381 OFFCURVE",
"730 400 CURVE SMOOTH",
"730 572 OFFCURVE",
"620 695 OFFCURVE",
"437 695 CURVE SMOOTH",
"237 695 OFFCURVE",
"81 548 OFFCURVE",
"52 345 CURVE SMOOTH",
"49 325 OFFCURVE",
"48 304 OFFCURVE",
"48 285 CURVE SMOOTH",
"48 143 OFFCURVE",
"121 30 OFFCURVE",
"268 -1 CURVE",
"119 -174 LINE",
"149 -199 LINE"
);
},
{
closed = 1;
nodes = (
"185 33 OFFCURVE",
"96 140 OFFCURVE",
"96 286 CURVE SMOOTH",
"96 304 OFFCURVE",
"97 323 OFFCURVE",
"100 342 CURVE SMOOTH",
"125 520 OFFCURVE",
"258 653 OFFCURVE",
"436 653 CURVE SMOOTH",
"592 653 OFFCURVE",
"683 548 OFFCURVE",
"683 401 CURVE SMOOTH",
"683 383 OFFCURVE",
"682 365 OFFCURVE",
"679 346 CURVE SMOOTH",
"655 169 OFFCURVE",
"523 33 OFFCURVE",
"344 33 CURVE SMOOTH"
);
}
);
width = 757;
}
);
leftKerningGroup = O;
leftMetricsKey = O;
rightKerningGroup = O;
unicode = 0051;
userData = {
position = 652;
width = 60;
};
},
{
color = 1;
glyphname = R;
layers = (
{
anchors = (
{
name = bottom;
position = "{293, 0}";
},
{
name = top;
position = "{386, 684}";
}
);
layerId = "873CAA12-270D-4223-A88E-AE8E101FDBE8";
paths = (
{
closed = 1;
nodes = (
"605 -10 OFFCURVE",
"650 24 OFFCURVE",
"658 77 CURVE",
"602 83 LINE",
"596 46 OFFCURVE",
"554 32 OFFCURVE",
"536 60 CURVE SMOOTH",
"412 256 LINE SMOOTH",
"405 267 OFFCURVE",
"388 280 OFFCURVE",
"379 284 CURVE SMOOTH",
"367 289 LINE",
"395 290 LINE SMOOTH",
"483 296 OFFCURVE",
"563 366 OFFCURVE",
"578 473 CURVE SMOOTH",
"580 485 OFFCURVE",
"580 497 OFFCURVE",
"580 508 CURVE SMOOTH",
"580 579 OFFCURVE",
"549 638 OFFCURVE",
"495 665 CURVE SMOOTH",
"477 676 OFFCURVE",
"452 684 OFFCURVE",
"418 684 CURVE SMOOTH",
"182 684 LINE SMOOTH",
"154 684 OFFCURVE",
"130 675 OFFCURVE",
"105 654 CURVE SMOOTH",
"83 632 OFFCURVE",
"71 610 OFFCURVE",
"67 581 CURVE",
"122 577 LINE",
"126 605 OFFCURVE",
"153 628 OFFCURVE",
"180 628 CURVE SMOOTH",
"197 628 LINE",
"109 0 LINE",
"170 0 LINE",
"258 628 LINE",
"410 628 LINE SMOOTH",
"480 628 OFFCURVE",
"521 579 OFFCURVE",
"521 509 CURVE SMOOTH",
"521 406 OFFCURVE",
"454 332 OFFCURVE",
"354 332 CURVE SMOOTH",
"269 332 LINE",
"263 276 LINE",
"330 270 OFFCURVE",
"356 242 OFFCURVE",
"384 194 CURVE SMOOTH",
"488 30 LINE SMOOTH",
"503 4 OFFCURVE",
"527 -10 OFFCURVE",
"558 -10 CURVE SMOOTH"
);
}
);
width = 703;
},
{
anchors = (
{
name = bottom;
position = "{298, 11}";
},
{
name = top;
position = "{389, 675}";
}
);
layerId = "0CAF3BED-C4AC-4024-B3E1-4C69D1EF7EC0";
paths = (
{
closed = 1;
nodes = (
"608 -10 OFFCURVE",
"664 35 OFFCURVE",
"665 97 CURVE",
"588 102 LINE",
"592 98 OFFCURVE",
"587 96 OFFCURVE",
"587 94 CURVE SMOOTH",
"585 80 OFFCURVE",
"569 66 OFFCURVE",
"562 66 CURVE SMOOTH",
"552 66 OFFCURVE",
"544 76 OFFCURVE",
"539 85 CURVE",
"424 265 LINE SMOOTH",
"416 277 OFFCURVE",
"397 293 OFFCURVE",
"387 297 CURVE",
"427 292 LINE",
"518 298 OFFCURVE",
"572 361 OFFCURVE",
"587 470 CURVE SMOOTH",
"589 481 OFFCURVE",
"589 492 OFFCURVE",
"589 503 CURVE SMOOTH",
"589 576 OFFCURVE",
"556 639 OFFCURVE",
"500 667 CURVE SMOOTH",
"482 678 OFFCURVE",
"456 686 OFFCURVE",
"421 686 CURVE SMOOTH",
"192 686 LINE SMOOTH",
"163 686 OFFCURVE",
"135 676 OFFCURVE",
"109 655 CURVE SMOOTH",
"83 629 OFFCURVE",
"68 599 OFFCURVE",
"66 563 CURVE",
"143 559 LINE",
"143 563 OFFCURVE",
"144 567 OFFCURVE",
"144 569 CURVE SMOOTH",
"147 591 OFFCURVE",
"168 609 OFFCURVE",
"187 609 CURVE SMOOTH",
"192 609 LINE",
"107 -1 LINE",
"190 -1 LINE",
"275 609 LINE",
"411 609 LINE SMOOTH",
"472 609 OFFCURVE",
"509 566 OFFCURVE",
"509 503 CURVE SMOOTH",
"509 411 OFFCURVE",
"448 345 OFFCURVE",
"359 345 CURVE SMOOTH",
"265 345 LINE",
"257 268 LINE",
"326 264 OFFCURVE",
"349 242 OFFCURVE",
"377 193 CURVE SMOOTH",
"478 34 LINE SMOOTH",
"494 7 OFFCURVE",
"521 -10 OFFCURVE",
"554 -10 CURVE SMOOTH"
);
}
);
width = 709;
},
{
anchors = (
{
name = bottom;
position = "{290, -6}";
},
{
name = top;
position = "{385, 692}";
}
);
layerId = "49C16FD3-6177-408B-A733-AEB3898BB77C";
paths = (
{
closed = 1;
nodes = (
"605 -9 OFFCURVE",
"645 20 OFFCURVE",
"654 67 CURVE",
"611 70 LINE",
"604 51 OFFCURVE",
"582 33 OFFCURVE",
"562 33 CURVE SMOOTH",
"550 33 OFFCURVE",
"539 39 OFFCURVE",
"532 51 CURVE SMOOTH",
"406 250 LINE SMOOTH",
"400 261 OFFCURVE",
"383 274 OFFCURVE",
"375 277 CURVE SMOOTH",
"329 294 LINE",
"394 297 LINE SMOOTH",
"481 303 OFFCURVE",
"560 371 OFFCURVE",
"575 479 CURVE SMOOTH",
"577 491 OFFCURVE",
"577 502 OFFCURVE",
"577 513 CURVE SMOOTH",
"577 583 OFFCURVE",
"546 640 OFFCURVE",
"494 668 CURVE SMOOTH",
"475 678 OFFCURVE",
"452 685 OFFCURVE",
"418 685 CURVE SMOOTH",
"177 685 LINE SMOOTH",
"150 685 OFFCURVE",
"127 676 OFFCURVE",
"103 656 CURVE SMOOTH",
"83 636 OFFCURVE",
"73 617 OFFCURVE",
"68 593 CURVE",
"111 591 LINE",
"118 619 OFFCURVE",
"147 642 OFFCURVE",
"175 642 CURVE SMOOTH",
"201 642 LINE",
"111 1 LINE",
"159 1 LINE",
"249 642 LINE",
"410 642 LINE SMOOTH",
"485 642 OFFCURVE",
"531 587 OFFCURVE",
"531 510 CURVE SMOOTH",
"531 501 OFFCURVE",
"530 492 OFFCURVE",
"529 483 CURVE SMOOTH",
"516 391 OFFCURVE",
"449 325 OFFCURVE",
"353 325 CURVE SMOOTH",
"272 325 LINE",
"266 282 LINE",
"333 274 OFFCURVE",
"361 244 OFFCURVE",
"389 196 CURVE SMOOTH",
"495 29 LINE SMOOTH",
"510 4 OFFCURVE",
"532 -9 OFFCURVE",
"561 -9 CURVE SMOOTH"
);
}
);
width = 700;
}
);
leftKerningGroup = E;
rightKerningGroup = K;
unicode = 0052;
userData = {
position = 619;
width = 57;
};
},
{
color = 1;
glyphname = R.ss01;
layers = (
{
anchors = (
{
name = bottom;
position = "{335, 0}";
},
{
name = top;
position = "{335, 0}";
}
);
layerId = "873CAA12-270D-4223-A88E-AE8E101FDBE8";
paths = (
{
closed = 1;
nodes = (
"616 -10 OFFCURVE",
"655 30 OFFCURVE",
"662 77 CURVE",
"606 83 LINE",
"602 60 OFFCURVE",
"582 45 OFFCURVE",
"563 45 CURVE SMOOTH",
"555 45 OFFCURVE",
"548 48 OFFCURVE",
"540 60 CURVE SMOOTH",
"416 256 LINE SMOOTH",
"409 268 OFFCURVE",
"395 283 OFFCURVE",
"370 289 CURVE",
"399 290 LINE SMOOTH",
"502 299 OFFCURVE",
"569 377 OFFCURVE",
"582 474 CURVE SMOOTH",
"584 486 OFFCURVE",
"585 498 OFFCURVE",
"585 509 CURVE SMOOTH",
"585 606 OFFCURVE",
"525 684 OFFCURVE",
"422 684 CURVE SMOOTH",
"186 684 LINE SMOOTH",
"124 684 OFFCURVE",
"70 629 OFFCURVE",
"70 565 CURVE SMOOTH",
"70 533 OFFCURVE",
"84 506 OFFCURVE",
"109 490 CURVE",
"143 536 LINE",
"131 543 OFFCURVE",
"125 554 OFFCURVE",
"125 566 CURVE SMOOTH",
"125 601 OFFCURVE",
"155 628 OFFCURVE",
"184 628 CURVE SMOOTH",
"414 628 LINE SMOOTH",
"486 628 OFFCURVE",
"525 576 OFFCURVE",
"525 508 CURVE SMOOTH",
"525 402 OFFCURVE",
"454 332 OFFCURVE",
"358 332 CURVE SMOOTH",
"273 332 LINE",
"267 276 LINE",
"334 270 OFFCURVE",
"360 242 OFFCURVE",
"388 194 CURVE SMOOTH",
"492 30 LINE SMOOTH",
"507 4 OFFCURVE",
"531 -10 OFFCURVE",
"563 -10 CURVE SMOOTH"
);
},
{
closed = 1;
nodes = (
"174 0 LINE",
"256 582 LINE",
"195 582 LINE",
"113 0 LINE"
);
}
);
width = 707;
},
{
anchors = (
{
name = bottom;
position = "{337, 11}";
},
{
name = top;
position = "{337, 11}";
}
);
layerId = "0CAF3BED-C4AC-4024-B3E1-4C69D1EF7EC0";
paths = (
{
closed = 1;
nodes = (
"619 -10 OFFCURVE",
"666 43 OFFCURVE",
"667 97 CURVE",
"589 104 LINE",
"590 100 OFFCURVE",
"589 96 OFFCURVE",
"589 94 CURVE SMOOTH",
"587 77 OFFCURVE",
"572 66 OFFCURVE",
"560 66 CURVE SMOOTH",
"555 66 OFFCURVE",
"552 66 OFFCURVE",
"547 75 CURVE",
"426 265 LINE SMOOTH",
"424 270 OFFCURVE",
"420 276 OFFCURVE",
"415 281 CURVE",
"399 281 LINE",
"505 290 OFFCURVE",
"575 373 OFFCURVE",
"589 471 CURVE SMOOTH",
"591 482 OFFCURVE",
"591 494 OFFCURVE",
"591 505 CURVE SMOOTH",
"591 604 OFFCURVE",
"529 686 OFFCURVE",
"423 686 CURVE SMOOTH",
"194 686 LINE SMOOTH",
"130 686 OFFCURVE",
"69 626 OFFCURVE",
"69 559 CURVE SMOOTH",
"69 521 OFFCURVE",
"89 487 OFFCURVE",
"121 471 CURVE",
"168 536 LINE",
"151 543 OFFCURVE",
"146 550 OFFCURVE",
"146 561 CURVE SMOOTH",
"146 587 OFFCURVE",
"168 609 OFFCURVE",
"189 609 CURVE SMOOTH",
"413 609 LINE SMOOTH",
"476 609 OFFCURVE",
"511 563 OFFCURVE",
"511 501 CURVE SMOOTH",
"511 406 OFFCURVE",
"446 345 OFFCURVE",
"361 345 CURVE SMOOTH",
"267 345 LINE",
"259 268 LINE",
"328 264 OFFCURVE",
"351 242 OFFCURVE",
"379 193 CURVE SMOOTH",
"480 34 LINE SMOOTH",
"496 7 OFFCURVE",
"523 -10 OFFCURVE",
"557 -10 CURVE SMOOTH"
);
},
{
closed = 1;
nodes = (
"192 -1 LINE",
"274 587 LINE",
"191 587 LINE",
"109 -1 LINE"
);
}
);
width = 711;
},
{
anchors = (
{
name = bottom;
position = "{334, -6}";
},
{
name = top;
position = "{334, -6}";
}
);
layerId = "49C16FD3-6177-408B-A733-AEB3898BB77C";
paths = (
{
closed = 1;
nodes = (
"616 -9 OFFCURVE",
"650 24 OFFCURVE",
"659 67 CURVE",
"616 70 LINE",
"610 48 OFFCURVE",
"588 33 OFFCURVE",
"569 33 CURVE SMOOTH",
"558 33 OFFCURVE",
"546 37 OFFCURVE",
"537 51 CURVE SMOOTH",
"411 250 LINE SMOOTH",
"404 262 OFFCURVE",
"391 276 OFFCURVE",
"367 282 CURVE",
"372 296 LINE",
"399 297 LINE",
"501 306 OFFCURVE",
"567 382 OFFCURVE",
"580 480 CURVE SMOOTH",
"582 492 OFFCURVE",
"583 504 OFFCURVE",
"583 515 CURVE SMOOTH",
"583 610 OFFCURVE",
"525 685 OFFCURVE",
"423 685 CURVE SMOOTH",
"182 685 LINE SMOOTH",
"123 685 OFFCURVE",
"70 634 OFFCURVE",
"70 571 CURVE SMOOTH",
"70 543 OFFCURVE",
"82 519 OFFCURVE",
"103 504 CURVE",
"128 539 LINE",
"118 547 OFFCURVE",
"113 560 OFFCURVE",
"113 573 CURVE SMOOTH",
"113 610 OFFCURVE",
"147 642 OFFCURVE",
"180 642 CURVE SMOOTH",
"415 642 LINE SMOOTH",
"493 642 OFFCURVE",
"536 582 OFFCURVE",
"536 509 CURVE SMOOTH",
"536 500 OFFCURVE",
"535 491 OFFCURVE",
"534 482 CURVE SMOOTH",
"520 388 OFFCURVE",
"449 325 OFFCURVE",
"358 325 CURVE SMOOTH",
"277 325 LINE",
"271 282 LINE",
"338 274 OFFCURVE",
"366 244 OFFCURVE",
"394 196 CURVE SMOOTH",
"500 29 LINE SMOOTH",
"515 4 OFFCURVE",
"537 -9 OFFCURVE",
"567 -9 CURVE SMOOTH"
);
},
{
closed = 1;
nodes = (
"164 1 LINE",
"245 580 LINE",
"197 580 LINE",
"116 1 LINE"
);
}
);
width = 705;
}
);
leftKerningGroup = E;
rightKerningGroup = K;
userData = {
position = 619;
width = 57;
};
},
{
color = 1;
glyphname = R.ss02;
layers = (
{
anchors = (
{
name = bottom;
position = "{272, 0}";
},
{
name = top;
position = "{336, 684}";
}
);
layerId = "873CAA12-270D-4223-A88E-AE8E101FDBE8";
paths = (
{
closed = 1;
nodes = (
"515 -10 OFFCURVE",
"533 -7 OFFCURVE",
"551 5 CURVE",
"522 54 LINE",
"518 50 OFFCURVE",
"508 47 OFFCURVE",
"499 47 CURVE SMOOTH",
"491 47 OFFCURVE",
"483 50 OFFCURVE",
"477 60 CURVE SMOOTH",
"353 256 LINE SMOOTH",
"348 265 OFFCURVE",
"336 278 OFFCURVE",
"320 284 CURVE SMOOTH",
"308 289 LINE",
"336 290 LINE SMOOTH",
"442 299 OFFCURVE",
"506 379 OFFCURVE",
"519 474 CURVE SMOOTH",
"521 486 OFFCURVE",
"522 498 OFFCURVE",
"522 510 CURVE SMOOTH",
"522 605 OFFCURVE",
"466 684 OFFCURVE",
"359 684 CURVE SMOOTH",
"146 684 LINE",
"138 628 LINE",
"351 628 LINE SMOOTH",
"423 628 OFFCURVE",
"462 577 OFFCURVE",
"462 509 CURVE SMOOTH",
"462 410 OFFCURVE",
"398 332 OFFCURVE",
"295 332 CURVE SMOOTH",
"210 332 LINE",
"204 276 LINE",
"270 271 OFFCURVE",
"296 241 OFFCURVE",
"325 194 CURVE SMOOTH",
"429 30 LINE SMOOTH",
"444 4 OFFCURVE",
"468 -10 OFFCURVE",
"500 -10 CURVE SMOOTH"
);
},
{
closed = 1;
nodes = (
"111 0 LINE",
"205 672 LINE",
"144 672 LINE",
"50 0 LINE"
);
}
);
width = 604;
},
{
anchors = (
{
name = bottom;
position = "{279, 0}";
},
{
name = top;
position = "{330, 684}";
}
);
layerId = "0CAF3BED-C4AC-4024-B3E1-4C69D1EF7EC0";
paths = (
{
closed = 1;
nodes = (
"518 -10 OFFCURVE",
"543 -5 OFFCURVE",
"565 14 CURVE",
"534 69 LINE",
"529 66 OFFCURVE",
"516 59 OFFCURVE",
"509 59 CURVE SMOOTH",
"501 59 OFFCURVE",
"492 68 OFFCURVE",
"488 75 CURVE SMOOTH",
"368 266 LINE",
"363 275 OFFCURVE",
"354 291 OFFCURVE",
"336 298 CURVE",
"420 291 OFFCURVE",
"513 340 OFFCURVE",
"531 471 CURVE SMOOTH",
"533 483 OFFCURVE",
"534 494 OFFCURVE",
"534 506 CURVE SMOOTH",
"534 602 OFFCURVE",
"474 686 OFFCURVE",
"365 686 CURVE SMOOTH",
"147 686 LINE",
"136 609 LINE",
"354 609 LINE SMOOTH",
"418 609 OFFCURVE",
"452 564 OFFCURVE",
"452 502 CURVE SMOOTH",
"452 495 OFFCURVE",
"451 486 OFFCURVE",
"450 478 CURVE SMOOTH",
"439 401 OFFCURVE",
"385 345 OFFCURVE",
"302 345 CURVE SMOOTH",
"208 345 LINE",
"200 268 LINE",
"268 266 OFFCURVE",
"291 241 OFFCURVE",
"321 193 CURVE SMOOTH",
"422 34 LINE SMOOTH",
"438 7 OFFCURVE",
"465 -10 OFFCURVE",
"499 -10 CURVE SMOOTH"
);
},
{
closed = 1;
nodes = (
"133 -1 LINE",
"228 675 LINE",
"146 675 LINE",
"51 -1 LINE"
);
}
);
width = 616;
},
{
anchors = (
{
name = bottom;
position = "{269, 0}";
},
{
name = top;
position = "{329, 684}";
}
);
layerId = "49C16FD3-6177-408B-A733-AEB3898BB77C";
paths = (
{
closed = 1;
nodes = (
"515 -9 OFFCURVE",
"529 -7 OFFCURVE",
"543 1 CURVE",
"521 39 LINE",
"515 36 OFFCURVE",
"509 35 OFFCURVE",
"502 35 CURVE SMOOTH",
"491 35 OFFCURVE",
"478 39 OFFCURVE",
"472 51 CURVE",
"346 251 LINE",
"340 259 OFFCURVE",
"329 272 OFFCURVE",
"314 278 CURVE",
"264 294 LINE",
"334 297 LINE",
"438 306 OFFCURVE",
"501 384 OFFCURVE",
"514 480 CURVE SMOOTH",
"516 492 OFFCURVE",
"517 505 OFFCURVE",
"517 517 CURVE SMOOTH",
"517 609 OFFCURVE",
"462 685 OFFCURVE",
"357 685 CURVE SMOOTH",
"146 685 LINE",
"140 642 LINE",
"349 642 LINE SMOOTH",
"427 642 OFFCURVE",
"470 584 OFFCURVE",
"470 511 CURVE SMOOTH",
"470 502 OFFCURVE",
"469 492 OFFCURVE",
"468 483 CURVE SMOOTH",
"455 394 OFFCURVE",
"390 325 OFFCURVE",
"292 325 CURVE SMOOTH",
"211 325 LINE",
"205 282 LINE",
"272 275 OFFCURVE",
"300 243 OFFCURVE",
"329 196 CURVE SMOOTH",
"434 29 LINE SMOOTH",
"450 4 OFFCURVE",
"471 -9 OFFCURVE",
"501 -9 CURVE SMOOTH"
);
},
{
closed = 1;
nodes = (
"98 1 LINE",
"192 672 LINE",
"144 672 LINE",
"50 1 LINE"
);
}
);
width = 595;
}
);
leftKerningGroup = E;
leftMetricsKey = L;
rightKerningGroup = K;
userData = {
position = 619;
width = 57;
};
},
{
color = 1;
glyphname = S;
layers = (
{
anchors = (
{
name = bottom;
position = "{245, 0}";
},
{
name = top;
position = "{337, 706}";
}
);
layerId = "873CAA12-270D-4223-A88E-AE8E101FDBE8";
paths = (
{
closed = 1;
nodes = (
"367 -25 OFFCURVE",
"481 91 OFFCURVE",
"481 195 CURVE SMOOTH",
"481 277 OFFCURVE",
"449 327 OFFCURVE",
"376 367 CURVE SMOOTH",
"310 407 OFFCURVE",
"186 445 OFFCURVE",
"186 528 CURVE SMOOTH",
"186 594 OFFCURVE",
"256 655 OFFCURVE",
"333 655 CURVE SMOOTH",
"374 655 OFFCURVE",
"421 635 OFFCURVE",
"421 599 CURVE SMOOTH",
"421 573 OFFCURVE",
"401 546 OFFCURVE",
"378 553 CURVE",
"369 501 LINE",
"373 501 OFFCURVE",
"377 500 OFFCURVE",
"381 500 CURVE SMOOTH",
"435 500 OFFCURVE",
"477 544 OFFCURVE",
"477 599 CURVE SMOOTH",
"477 643 OFFCURVE",
"450 680 OFFCURVE",
"396 697 CURVE SMOOTH",
"379 703 OFFCURVE",
"356 706 OFFCURVE",
"333 706 CURVE SMOOTH",
"228 706 OFFCURVE",
"131 631 OFFCURVE",
"131 523 CURVE SMOOTH",
"131 409 OFFCURVE",
"262 366 OFFCURVE",
"345 321 CURVE SMOOTH",
"391 294 OFFCURVE",
"427 267 OFFCURVE",
"427 194 CURVE SMOOTH",
"427 118 OFFCURVE",
"341 26 OFFCURVE",
"232 26 CURVE SMOOTH",
"154 26 OFFCURVE",
"86 78 OFFCURVE",
"62 163 CURVE",
"9 145 LINE",
"33 45 OFFCURVE",
"99 -25 OFFCURVE",
"233 -25 CURVE SMOOTH"
);
}
);
width = 525;
},
{
anchors = (
{
name = bottom;
position = "{247, -25}";
},
{
name = top;
position = "{343, 696}";
}
);
layerId = "0CAF3BED-C4AC-4024-B3E1-4C69D1EF7EC0";
paths = (
{
closed = 1;
nodes = (
"382 -25 OFFCURVE",
"494 96 OFFCURVE",
"494 203 CURVE SMOOTH",
"494 283 OFFCURVE",
"460 337 OFFCURVE",
"386 377 CURVE SMOOTH",
"322 417 OFFCURVE",
"207 452 OFFCURVE",
"207 525 CURVE SMOOTH",
"207 581 OFFCURVE",
"270 637 OFFCURVE",
"338 637 CURVE SMOOTH",
"373 637 OFFCURVE",
"414 616 OFFCURVE",
"414 590 CURVE SMOOTH",
"414 572 OFFCURVE",
"400 560 OFFCURVE",
"393 558 CURVE SMOOTH",
"384 555 OFFCURVE",
"374 559 OFFCURVE",
"369 561 CURVE",
"360 487 LINE",
"367 486 OFFCURVE",
"374 485 OFFCURVE",
"383 485 CURVE SMOOTH",
"441 485 OFFCURVE",
"490 534 OFFCURVE",
"490 592 CURVE SMOOTH",
"490 639 OFFCURVE",
"459 680 OFFCURVE",
"402 696 CURVE SMOOTH",
"386 703 OFFCURVE",
"363 708 OFFCURVE",
"340 708 CURVE SMOOTH",
"234 708 OFFCURVE",
"131 628 OFFCURVE",
"131 517 CURVE SMOOTH",
"131 399 OFFCURVE",
"264 355 OFFCURVE",
"346 312 CURVE SMOOTH",
"388 286 OFFCURVE",
"417 263 OFFCURVE",
"417 200 CURVE SMOOTH",
"417 131 OFFCURVE",
"343 45 OFFCURVE",
"249 45 CURVE SMOOTH",
"174 45 OFFCURVE",
"104 98 OFFCURVE",
"84 184 CURVE",
"11 159 LINE",
"30 53 OFFCURVE",
"137 -25 OFFCURVE",
"247 -25 CURVE SMOOTH"
);
}
);
width = 537;
},
{
anchors = (
{
name = bottom;
position = "{240, -6}";
},
{
name = top;
position = "{333, 714}";
}
);
layerId = "49C16FD3-6177-408B-A733-AEB3898BB77C";
paths = (
{
closed = 1;
nodes = (
"361 -24 OFFCURVE",
"474 89 OFFCURVE",
"474 197 CURVE SMOOTH",
"474 273 OFFCURVE",
"443 322 OFFCURVE",
"370 362 CURVE SMOOTH",
"303 403 OFFCURVE",
"173 444 OFFCURVE",
"173 533 CURVE SMOOTH",
"173 603 OFFCURVE",
"248 667 OFFCURVE",
"328 667 CURVE SMOOTH",
"373 667 OFFCURVE",
"427 646 OFFCURVE",
"427 604 CURVE SMOOTH",
"427 576 OFFCURVE",
"406 548 OFFCURVE",
"381 550 CURVE",
"375 512 LINE",
"428 509 OFFCURVE",
"469 550 OFFCURVE",
"469 607 CURVE SMOOTH",
"469 647 OFFCURVE",
"444 681 OFFCURVE",
"391 698 CURVE SMOOTH",
"374 704 OFFCURVE",
"352 707 OFFCURVE",
"330 707 CURVE SMOOTH",
"226 707 OFFCURVE",
"130 633 OFFCURVE",
"130 527 CURVE SMOOTH",
"130 417 OFFCURVE",
"260 374 OFFCURVE",
"346 328 CURVE SMOOTH",
"393 300 OFFCURVE",
"432 270 OFFCURVE",
"432 194 CURVE SMOOTH",
"432 109 OFFCURVE",
"337 15 OFFCURVE",
"227 15 CURVE SMOOTH",
"147 15 OFFCURVE",
"75 66 OFFCURVE",
"48 151 CURVE",
"7 138 LINE",
"34 42 OFFCURVE",
"118 -24 OFFCURVE",
"226 -24 CURVE SMOOTH"
);
}
);
width = 516;
}
);
leftKerningGroup = S;
rightKerningGroup = S;
unicode = 0053;
userData = {
position = 433;
width = 55;
};
},
{
color = 1;
glyphname = S.ss02;
layers = (
{
anchors = (
{
name = bottom;
position = "{244, 0}";
},
{
name = top;
position = "{336, 706}";
}
);
layerId = "873CAA12-270D-4223-A88E-AE8E101FDBE8";
paths = (
{
closed = 1;
nodes = (
"313 -25 OFFCURVE",
"410 27 OFFCURVE",
"453 103 CURVE SMOOTH",
"466 128 OFFCURVE",
"474 154 OFFCURVE",
"477 182 CURVE SMOOTH",
"479 193 OFFCURVE",
"479 204 OFFCURVE",
"479 215 CURVE SMOOTH",
"479 280 OFFCURVE",
"447 327 OFFCURVE",
"375 367 CURVE SMOOTH",
"303 411 OFFCURVE",
"185 448 OFFCURVE",
"185 528 CURVE SMOOTH",
"185 595 OFFCURVE",
"256 651 OFFCURVE",
"332 651 CURVE SMOOTH",
"376 651 OFFCURVE",
"426 633 OFFCURVE",
"420 588 CURVE",
"475 581 LINE",
"476 588 OFFCURVE",
"477 594 OFFCURVE",
"477 600 CURVE SMOOTH",
"477 662 OFFCURVE",
"415 706 OFFCURVE",
"334 706 CURVE SMOOTH",
"236 706 OFFCURVE",
"145 642 OFFCURVE",
"131 545 CURVE SMOOTH",
"130 538 OFFCURVE",
"130 530 OFFCURVE",
"130 523 CURVE SMOOTH",
"130 432 OFFCURVE",
"214 387 OFFCURVE",
"344 321 CURVE SMOOTH",
"395 293 OFFCURVE",
"426 262 OFFCURVE",
"426 212 CURVE SMOOTH",
"426 174 OFFCURVE",
"412 144 OFFCURVE",
"401 128 CURVE SMOOTH",
"366 63 OFFCURVE",
"293 30 OFFCURVE",
"229 30 CURVE SMOOTH",
"154 30 OFFCURVE",
"85 78 OFFCURVE",
"61 163 CURVE",
"8 145 LINE",
"31 46 OFFCURVE",
"128 -25 OFFCURVE",
"229 -25 CURVE SMOOTH"
);
}
);
width = 521;
},
{
anchors = (
{
name = bottom;
position = "{237, -25}";
},
{
name = top;
position = "{343, 696}";
}
);
layerId = "0CAF3BED-C4AC-4024-B3E1-4C69D1EF7EC0";
paths = (
{
closed = 1;
nodes = (
"372 -25 OFFCURVE",
"493 67 OFFCURVE",
"493 209 CURVE SMOOTH",
"493 277 OFFCURVE",
"458 337 OFFCURVE",
"386 377 CURVE SMOOTH",
"314 421 OFFCURVE",
"207 455 OFFCURVE",
"207 525 CURVE SMOOTH",
"207 581 OFFCURVE",
"271 631 OFFCURVE",
"338 631 CURVE SMOOTH",
"375 631 OFFCURVE",
"413 616 OFFCURVE",
"413 588 CURVE SMOOTH",
"413 579 OFFCURVE",
"410 576 OFFCURVE",
"408 571 CURVE",
"486 562 LINE",
"488 568 OFFCURVE",
"489 574 OFFCURVE",
"489 577 CURVE SMOOTH",
"490 582 OFFCURVE",
"490 587 OFFCURVE",
"490 592 CURVE SMOOTH",
"490 660 OFFCURVE",
"423 708 OFFCURVE",
"342 708 CURVE SMOOTH",
"235 708 OFFCURVE",
"131 629 OFFCURVE",
"131 516 CURVE SMOOTH",
"131 422 OFFCURVE",
"219 376 OFFCURVE",
"346 312 CURVE SMOOTH",
"393 285 OFFCURVE",
"417 250 OFFCURVE",
"417 205 CURVE SMOOTH",
"417 120 OFFCURVE",
"336 52 OFFCURVE",
"240 52 CURVE SMOOTH",
"168 52 OFFCURVE",
"104 98 OFFCURVE",
"84 184 CURVE",
"11 159 LINE",
"29 54 OFFCURVE",
"132 -25 OFFCURVE",
"237 -25 CURVE SMOOTH"
);
}
);
width = 536;
},
{
anchors = (
{
name = bottom;
position = "{240, -6}";
},
{
name = top;
position = "{333, 714}";
}
);
layerId = "49C16FD3-6177-408B-A733-AEB3898BB77C";
paths = (
{
closed = 1;
nodes = (
"308 -24 OFFCURVE",
"403 26 OFFCURVE",
"445 102 CURVE SMOOTH",
"459 127 OFFCURVE",
"467 153 OFFCURVE",
"471 182 CURVE SMOOTH",
"473 193 OFFCURVE",
"473 204 OFFCURVE",
"473 214 CURVE SMOOTH",
"473 277 OFFCURVE",
"441 322 OFFCURVE",
"370 362 CURVE SMOOTH",
"296 407 OFFCURVE",
"173 447 OFFCURVE",
"173 533 CURVE SMOOTH",
"173 604 OFFCURVE",
"250 665 OFFCURVE",
"328 665 CURVE SMOOTH",
"373 665 OFFCURVE",
"428 646 OFFCURVE",
"426 599 CURVE",
"469 595 LINE",
"470 599 OFFCURVE",
"470 604 OFFCURVE",
"470 608 CURVE SMOOTH",
"470 667 OFFCURVE",
"411 707 OFFCURVE",
"333 707 CURVE SMOOTH",
"226 707 OFFCURVE",
"130 634 OFFCURVE",
"130 526 CURVE SMOOTH",
"130 438 OFFCURVE",
"214 393 OFFCURVE",
"346 326 CURVE SMOOTH",
"399 298 OFFCURVE",
"432 264 OFFCURVE",
"432 210 CURVE SMOOTH",
"432 170 OFFCURVE",
"418 138 OFFCURVE",
"408 122 CURVE SMOOTH",
"369 53 OFFCURVE",
"291 17 OFFCURVE",
"225 17 CURVE SMOOTH",
"148 17 OFFCURVE",
"76 66 OFFCURVE",
"48 151 CURVE",
"7 138 LINE",
"33 43 OFFCURVE",
"126 -24 OFFCURVE",
"223 -24 CURVE SMOOTH"
);
}
);
width = 514;
}
);
leftKerningGroup = S;
rightKerningGroup = S;
userData = {
position = 433;
width = 55;
};
},
{
color = 1;
glyphname = T;
layers = (
{
anchors = (
{
name = bottom;
position = "{267, 0}";
},
{
name = center;
position = "{318, 360}";
},
{
name = top;
position = "{368, 684}";
}
);
layerId = "873CAA12-270D-4223-A88E-AE8E101FDBE8";
paths = (
{
closed = 1;
nodes = (
"297 0 LINE",
"385 627 LINE",
"624 627 LINE",
"632 684 LINE",
"166 684 LINE SMOOTH",
"142 684 OFFCURVE",
"121 675 OFFCURVE",
"100 659 CURVE SMOOTH",
"82 641 OFFCURVE",
"71 620 OFFCURVE",
"68 596 CURVE",
"124 592 LINE",
"126 608 OFFCURVE",
"143 627 OFFCURVE",
"165 627 CURVE SMOOTH",
"324 627 LINE",
"236 0 LINE"
);
}
);
width = 598;
},
{
anchors = (
{
name = bottom;
position = "{274, 11}";
},
{
name = center;
position = "{318, 360}";
},
{
name = top;
position = "{373, 675}";
}
);
layerId = "0CAF3BED-C4AC-4024-B3E1-4C69D1EF7EC0";
paths = (
{
closed = 1;
nodes = (
"314 -1 LINE",
"399 608 LINE",
"630 608 LINE",
"641 686 LINE",
"178 686 LINE SMOOTH",
"152 686 OFFCURVE",
"127 676 OFFCURVE",
"106 660 CURVE SMOOTH",
"83 638 OFFCURVE",
"69 607 OFFCURVE",
"68 578 CURVE",
"150 575 LINE",
"146 578 OFFCURVE",
"147 581 OFFCURVE",
"147 583 CURVE SMOOTH",
"148 595 OFFCURVE",
"160 608 OFFCURVE",
"174 608 CURVE SMOOTH",
"316 608 LINE",
"231 -1 LINE"
);
}
);
width = 609;
},
{
anchors = (
{
name = bottom;
position = "{264, -1}";
},
{
name = center;
position = "{314, 360}";
},
{
name = top;
position = "{367, 692}";
}
);
layerId = "49C16FD3-6177-408B-A733-AEB3898BB77C";
paths = (
{
closed = 1;
nodes = (
"289 1 LINE",
"379 641 LINE",
"622 641 LINE",
"628 685 LINE",
"161 685 LINE SMOOTH",
"138 685 OFFCURVE",
"119 677 OFFCURVE",
"99 661 CURVE SMOOTH",
"83 645 OFFCURVE",
"73 628 OFFCURVE",
"69 608 CURVE",
"113 606 LINE",
"119 623 OFFCURVE",
"137 641 OFFCURVE",
"160 641 CURVE SMOOTH",
"331 641 LINE",
"241 1 LINE"
);
}
);
width = 593;
}
);
leftKerningGroup = T;
rightKerningGroup = T;
unicode = 0054;
userData = {
position = 277;
width = 61;
};
},
{
color = 1;
glyphname = T.ss01;
layers = (
{
anchors = (
{
name = bottom;
position = "{276, 0}";
},
{
name = center;
position = "{324, 342}";
},
{
name = top;
position = "{372, 684}";
}
);
layerId = "873CAA12-270D-4223-A88E-AE8E101FDBE8";
paths = (
{
closed = 1;
nodes = (
"301 0 LINE",
"389 627 LINE",
"628 627 LINE",
"636 684 LINE",
"170 684 LINE SMOOTH",
"130 684 OFFCURVE",
"71 650 OFFCURVE",
"71 582 CURVE SMOOTH",
"71 556 OFFCURVE",
"82 534 OFFCURVE",
"102 519 CURVE",
"139 564 LINE",
"132 568 OFFCURVE",
"128 575 OFFCURVE",
"128 584 CURVE SMOOTH",
"128 589 LINE SMOOTH",
"130 608 OFFCURVE",
"147 627 OFFCURVE",
"169 627 CURVE SMOOTH",
"328 627 LINE",
"240 0 LINE"
);
}
);
width = 602;
},
{
anchors = (
{
name = bottom;
position = "{281, 11}";
},
{
name = center;
position = "{328, 343}";
},
{
name = top;
position = "{375, 675}";
}
);
layerId = "0CAF3BED-C4AC-4024-B3E1-4C69D1EF7EC0";
paths = (
{
closed = 1;
nodes = (
"316 -1 LINE",
"401 608 LINE",
"632 608 LINE",
"643 686 LINE",
"180 686 LINE SMOOTH",
"137 686 OFFCURVE",
"71 648 OFFCURVE",
"71 576 CURVE SMOOTH",
"71 542 OFFCURVE",
"88 515 OFFCURVE",
"114 499 CURVE",
"158 553 LINE",
"162 557 LINE",
"159 559 OFFCURVE",
"149 571 OFFCURVE",
"149 582 CURVE SMOOTH",
"150 595 OFFCURVE",
"162 608 OFFCURVE",
"176 608 CURVE SMOOTH",
"318 608 LINE",
"233 -1 LINE"
);
}
);
width = 611;
},
{
anchors = (
{
name = bottom;
position = "{274, -6}";
},
{
name = center;
position = "{323, 343}";
},
{
name = top;
position = "{372, 692}";
}
);
layerId = "49C16FD3-6177-408B-A733-AEB3898BB77C";
paths = (
{
closed = 1;
nodes = (
"294 1 LINE",
"384 641 LINE",
"627 641 LINE",
"633 685 LINE",
"166 685 LINE SMOOTH",
"128 685 OFFCURVE",
"72 652 OFFCURVE",
"72 588 CURVE SMOOTH",
"72 565 OFFCURVE",
"80 547 OFFCURVE",
"97 533 CURVE",
"124 568 LINE",
"119 574 OFFCURVE",
"116 582 OFFCURVE",
"116 590 CURVE SMOOTH",
"117 597 LINE SMOOTH",
"120 617 OFFCURVE",
"139 641 OFFCURVE",
"165 641 CURVE SMOOTH",
"336 641 LINE",
"246 1 LINE"
);
}
);
width = 598;
}
);
leftKerningGroup = T;
rightKerningGroup = T;
userData = {
position = 277;
width = 61;
};
},
{
color = 1;
glyphname = T.ss02;
layers = (
{
anchors = (
{
name = bottom;
position = "{259, 0}";
},
{
name = center;
position = "{303, 356}";
},
{
name = top;
position = "{348, 684}";
}
);
layerId = "873CAA12-270D-4223-A88E-AE8E101FDBE8";
paths = (
{
closed = 1;
nodes = (
"286 0 LINE",
"374 627 LINE",
"613 627 LINE",
"621 684 LINE",
"82 684 LINE",
"74 627 LINE",
"313 627 LINE",
"225 0 LINE"
);
}
);
width = 587;
},
{
anchors = (
{
name = bottom;
position = "{252, 0}";
},
{
name = center;
position = "{306, 360}";
},
{
name = top;
position = "{358, 684}";
}
);
layerId = "0CAF3BED-C4AC-4024-B3E1-4C69D1EF7EC0";
paths = (
{
closed = 1;
nodes = (
"303 -1 LINE",
"388 608 LINE",
"620 608 LINE",
"631 686 LINE",
"85 686 LINE",
"74 608 LINE",
"306 608 LINE",
"221 -1 LINE"
);
}
);
width = 599;
},
{
anchors = (
{
name = bottom;
position = "{257, 0}";
},
{
name = center;
position = "{307, 388}";
},
{
name = top;
position = "{345, 684}";
}
);
layerId = "49C16FD3-6177-408B-A733-AEB3898BB77C";
paths = (
{
closed = 1;
nodes = (
"277 1 LINE",
"367 641 LINE",
"610 641 LINE",
"616 685 LINE",
"81 685 LINE",
"75 641 LINE",
"319 641 LINE",
"229 1 LINE"
);
}
);
width = 581;
}
);
leftKerningGroup = T;
rightKerningGroup = T;
userData = {
position = 254;
width = 61;
};
},
{
color = 1;
glyphname = U;
layers = (
{
anchors = (
{
name = bottom;
position = "{366, -10}";
},
{
name = horn;
position = "{708, 535}";
},
{
name = ogonek;
position = "{543, 43}";
},
{
name = top;
position = "{462, 684}";
}
);
layerId = "873CAA12-270D-4223-A88E-AE8E101FDBE8";
paths = (
{
closed = 1;
nodes = (
"555 -9 OFFCURVE",
"652 131 OFFCURVE",
"671 266 CURVE SMOOTH",
"730 685 LINE",
"669 685 LINE",
"611 270 LINE SMOOTH",
"596 164 OFFCURVE",
"520 46 OFFCURVE",
"369 46 CURVE SMOOTH",
"249 46 OFFCURVE",
"194 122 OFFCURVE",
"194 223 CURVE SMOOTH",
"194 237 OFFCURVE",
"195 251 OFFCURVE",
"197 266 CURVE SMOOTH",
"243 593 LINE SMOOTH",
"244 600 OFFCURVE",
"244 606 OFFCURVE",
"244 613 CURVE SMOOTH",
"244 664 OFFCURVE",
"211 693 OFFCURVE",
"156 693 CURVE SMOOTH",
"127 693 OFFCURVE",
"93 677 OFFCURVE",
"71 651 CURVE",
"118 615 LINE",
"127 626 OFFCURVE",
"142 633 OFFCURVE",
"158 633 CURVE SMOOTH",
"170 633 OFFCURVE",
"186 629 OFFCURVE",
"183 597 CURVE SMOOTH",
"137 270 LINE SMOOTH",
"135 254 OFFCURVE",
"134 238 OFFCURVE",
"134 223 CURVE SMOOTH",
"134 95 OFFCURVE",
"212 -9 OFFCURVE",
"371 -9 CURVE SMOOTH"
);
}
);
width = 740;
},
{
anchors = (
{
name = bottom;
position = "{374, 2}";
},
{
name = horn;
position = "{705, 531}";
},
{
name = ogonek;
position = "{540, 53}";
},
{
name = top;
position = "{467, 675}";
}
);
layerId = "0CAF3BED-C4AC-4024-B3E1-4C69D1EF7EC0";
paths = (
{
closed = 1;
nodes = (
"562 -9 OFFCURVE",
"663 135 OFFCURVE",
"682 269 CURVE SMOOTH",
"740 687 LINE",
"657 687 LINE",
"599 273 LINE SMOOTH",
"585 175 OFFCURVE",
"515 67 OFFCURVE",
"378 67 CURVE SMOOTH",
"269 67 OFFCURVE",
"219 135 OFFCURVE",
"219 228 CURVE SMOOTH",
"219 241 OFFCURVE",
"220 255 OFFCURVE",
"222 269 CURVE SMOOTH",
"266 586 LINE SMOOTH",
"267 593 OFFCURVE",
"268 600 OFFCURVE",
"268 606 CURVE SMOOTH",
"268 661 OFFCURVE",
"230 695 OFFCURVE",
"172 695 CURVE SMOOTH",
"137 695 OFFCURVE",
"92 673 OFFCURVE",
"72 640 CURVE",
"137 589 LINE",
"143 605 OFFCURVE",
"153 613 OFFCURVE",
"170 613 CURVE SMOOTH",
"174 613 OFFCURVE",
"184 613 OFFCURVE",
"184 597 CURVE SMOOTH",
"184 590 LINE",
"139 273 LINE SMOOTH",
"137 258 OFFCURVE",
"136 242 OFFCURVE",
"136 227 CURVE SMOOTH",
"136 99 OFFCURVE",
"217 -9 OFFCURVE",
"377 -9 CURVE SMOOTH"
);
}
);
width = 751;
},
{
anchors = (
{
name = bottom;
position = "{360, -16}";
},
{
name = horn;
position = "{708, 540}";
},
{
name = ogonek;
position = "{539, 38}";
},
{
name = top;
position = "{457, 692}";
},
{
name = topright;
position = "{781, 684}";
}
);
layerId = "49C16FD3-6177-408B-A733-AEB3898BB77C";
paths = (
{
closed = 1;
nodes = (
"548 -8 OFFCURVE",
"644 131 OFFCURVE",
"663 266 CURVE SMOOTH",
"722 686 LINE",
"674 686 LINE",
"616 268 LINE SMOOTH",
"600 159 OFFCURVE",
"521 34 OFFCURVE",
"364 34 CURVE SMOOTH",
"236 34 OFFCURVE",
"177 117 OFFCURVE",
"177 224 CURVE SMOOTH",
"177 238 OFFCURVE",
"178 252 OFFCURVE",
"180 266 CURVE SMOOTH",
"227 600 LINE SMOOTH",
"228 607 OFFCURVE",
"229 614 OFFCURVE",
"229 620 CURVE SMOOTH",
"229 669 OFFCURVE",
"198 694 OFFCURVE",
"146 694 CURVE SMOOTH",
"119 694 OFFCURVE",
"90 681 OFFCURVE",
"69 660 CURVE",
"107 631 LINE",
"117 640 OFFCURVE",
"132 647 OFFCURVE",
"146 647 CURVE SMOOTH",
"159 647 OFFCURVE",
"180 641 OFFCURVE",
"180 612 CURVE SMOOTH",
"179 602 LINE",
"133 268 LINE SMOOTH",
"131 252 OFFCURVE",
"130 235 OFFCURVE",
"130 220 CURVE SMOOTH",
"130 93 OFFCURVE",
"205 -8 OFFCURVE",
"363 -8 CURVE SMOOTH"
);
}
);
width = 732;
}
);
leftKerningGroup = E;
leftMetricsKey = E;
rightKerningGroup = U;
unicode = 0055;
userData = {
position = 606;
width = 61;
};
},
{
color = 1;
glyphname = U.ss02;
layers = (
{
anchors = (
{
name = horn;
position = "{640, 537}";
},
{
name = ogonek;
position = "{505, 67}";
},
{
name = top;
position = "{403, 684}";
}
);
layerId = "873CAA12-270D-4223-A88E-AE8E101FDBE8";
paths = (
{
closed = 1;
nodes = (
"459 -10 OFFCURVE",
"582 96 OFFCURVE",
"606 265 CURVE SMOOTH",
"665 684 LINE",
"604 684 LINE",
"546 269 LINE SMOOTH",
"527 135 OFFCURVE",
"431 45 OFFCURVE",
"304 45 CURVE SMOOTH",
"196 45 OFFCURVE",
"129 112 OFFCURVE",
"129 222 CURVE SMOOTH",
"129 236 OFFCURVE",
"130 250 OFFCURVE",
"132 265 CURVE SMOOTH",
"191 684 LINE",
"130 684 LINE",
"72 269 LINE SMOOTH",
"70 252 OFFCURVE",
"68 235 OFFCURVE",
"68 219 CURVE SMOOTH",
"68 86 OFFCURVE",
"153 -10 OFFCURVE",
"302 -10 CURVE SMOOTH"
);
}
);
width = 676;
},
{
anchors = (
{
name = horn;
position = "{644, 521}";
},
{
name = ogonek;
position = "{505, 76}";
},
{
name = top;
position = "{405, 675}";
}
);
layerId = "0CAF3BED-C4AC-4024-B3E1-4C69D1EF7EC0";
paths = (
{
closed = 1;
nodes = (
"462 -10 OFFCURVE",
"590 99 OFFCURVE",
"614 268 CURVE SMOOTH",
"672 686 LINE",
"590 686 LINE",
"532 272 LINE SMOOTH",
"515 149 OFFCURVE",
"427 66 OFFCURVE",
"310 66 CURVE SMOOTH",
"212 66 OFFCURVE",
"151 127 OFFCURVE",
"151 228 CURVE SMOOTH",
"151 240 OFFCURVE",
"152 254 OFFCURVE",
"154 268 CURVE SMOOTH",
"212 686 LINE",
"130 686 LINE",
"72 272 LINE SMOOTH",
"70 256 OFFCURVE",
"69 240 OFFCURVE",
"69 225 CURVE SMOOTH",
"69 90 OFFCURVE",
"155 -10 OFFCURVE",
"305 -10 CURVE SMOOTH"
);
}
);
width = 682;
},
{
anchors = (
{
name = bottom;
position = "{308, 0}";
},
{
name = horn;
position = "{640, 549}";
},
{
name = ogonek;
position = "{507, 62}";
},
{
name = top;
position = "{403, 692}";
},
{
name = topright;
position = "{642, 553}";
}
);
layerId = "49C16FD3-6177-408B-A733-AEB3898BB77C";
paths = (
{
closed = 1;
nodes = (
"458 -9 OFFCURVE",
"579 96 OFFCURVE",
"603 265 CURVE SMOOTH",
"662 685 LINE",
"614 685 LINE",
"555 267 LINE SMOOTH",
"536 128 OFFCURVE",
"435 33 OFFCURVE",
"303 33 CURVE SMOOTH",
"189 33 OFFCURVE",
"116 106 OFFCURVE",
"116 222 CURVE SMOOTH",
"116 236 OFFCURVE",
"117 250 OFFCURVE",
"119 265 CURVE SMOOTH",
"178 685 LINE",
"130 685 LINE",
"71 267 LINE SMOOTH",
"69 250 OFFCURVE",
"68 234 OFFCURVE",
"68 218 CURVE SMOOTH",
"68 85 OFFCURVE",
"150 -9 OFFCURVE",
"299 -9 CURVE SMOOTH"
);
}
);
width = 673;
}
);
rightKerningGroup = U;
userData = {
position = 564;
width = 61;
};
},
{
color = 1;
glyphname = V;
layers = (
{
layerId = "873CAA12-270D-4223-A88E-AE8E101FDBE8";
paths = (
{
closed = 1;
nodes = (
"365 0 LINE",
"684 685 LINE",
"624 685 LINE",
"348 86 LINE",
"238 639 LINE SMOOTH",
"232 668 OFFCURVE",
"206 690 OFFCURVE",
"166 690 CURVE SMOOTH",
"127 690 OFFCURVE",
"88 666 OFFCURVE",
"70 624 CURVE",
"124 606 LINE",
"132 621 OFFCURVE",
"148 630 OFFCURVE",
"163 630 CURVE SMOOTH",
"174 630 OFFCURVE",
"185 624 OFFCURVE",
"188 611 CURVE SMOOTH",
"307 0 LINE"
);
}
);
width = 653;
},
{
layerId = "0CAF3BED-C4AC-4024-B3E1-4C69D1EF7EC0";
paths = (
{
closed = 1;
nodes = (
"379 -1 LINE",
"698 687 LINE",
"614 687 LINE",
"357 132 LINE",
"258 634 LINE SMOOTH",
"252 665 OFFCURVE",
"222 692 OFFCURVE",
"179 692 CURVE SMOOTH",
"134 692 OFFCURVE",
"86 661 OFFCURVE",
"69 609 CURVE",
"142 583 LINE",
"147 601 OFFCURVE",
"160 611 OFFCURVE",
"174 611 CURVE SMOOTH",
"181 611 OFFCURVE",
"185 609 OFFCURVE",
"187 601 CURVE SMOOTH",
"305 -1 LINE"
);
}
);
width = 667;
},
{
anchors = (
{
name = bottom;
position = "{275, 0}";
},
{
name = top;
position = "{371, 684}";
}
);
layerId = "49C16FD3-6177-408B-A733-AEB3898BB77C";
paths = (
{
closed = 1;
nodes = (
"358 1 LINE",
"677 686 LINE",
"630 686 LINE",
"342 59 LINE",
"226 643 LINE SMOOTH",
"220 671 OFFCURVE",
"197 691 OFFCURVE",
"160 691 CURVE SMOOTH",
"124 691 OFFCURVE",
"90 671 OFFCURVE",
"71 635 CURVE",
"114 621 LINE",
"124 635 OFFCURVE",
"141 644 OFFCURVE",
"155 644 CURVE SMOOTH",
"169 644 OFFCURVE",
"183 635 OFFCURVE",
"187 620 CURVE",
"309 1 LINE"
);
}
);
width = 646;
}
);
leftKerningGroup = V;
rightKerningGroup = V;
unicode = 0056;
userData = {
position = 631;
width = 59;
};
},
{
color = 1;
glyphname = V.ss02;
layers = (
{
layerId = "873CAA12-270D-4223-A88E-AE8E101FDBE8";
paths = (
{
closed = 1;
nodes = (
"287 0 LINE",
"606 685 LINE",
"546 685 LINE",
"270 86 LINE",
"166 624 LINE SMOOTH",
"160 651 OFFCURVE",
"136 690 OFFCURVE",
"85 690 CURVE",
"81 631 LINE",
"95 629 OFFCURVE",
"106 626 OFFCURVE",
"109 611 CURVE SMOOTH",
"229 0 LINE"
);
}
);
width = 575;
},
{
layerId = "0CAF3BED-C4AC-4024-B3E1-4C69D1EF7EC0";
paths = (
{
closed = 1;
nodes = (
"300 -1 LINE",
"620 687 LINE",
"535 687 LINE",
"278 132 LINE",
"184 619 LINE SMOOTH",
"180 647 OFFCURVE",
"153 692 OFFCURVE",
"96 692 CURVE SMOOTH",
"94 692 OFFCURVE",
"90 691 OFFCURVE",
"86 691 CURVE",
"79 613 LINE",
"99 610 OFFCURVE",
"107 612 OFFCURVE",
"108 601 CURVE",
"227 -1 LINE"
);
}
);
width = 589;
},
{
anchors = (
{
name = bottom;
position = "{232, 0}";
},
{
name = top;
position = "{328, 684}";
}
);
layerId = "49C16FD3-6177-408B-A733-AEB3898BB77C";
paths = (
{
closed = 1;
nodes = (
"278 1 LINE",
"597 686 LINE",
"551 686 LINE",
"262 59 LINE",
"152 628 LINE SMOOTH",
"147 653 OFFCURVE",
"127 687 OFFCURVE",
"84 690 CURVE",
"79 644 LINE",
"93 641 OFFCURVE",
"105 636 OFFCURVE",
"108 619 CURVE SMOOTH",
"229 1 LINE"
);
}
);
width = 566;
}
);
leftKerningGroup = V;
rightKerningGroup = V;
rightMetricsKey = V;
userData = {
position = 631;
width = 59;
};
},
{
color = 1;
glyphname = W;
layers = (
{
anchors = (
{
name = top;
position = "{651, 684}";
}
);
layerId = "873CAA12-270D-4223-A88E-AE8E101FDBE8";
paths = (
{
closed = 1;
nodes = (
"362 0 LINE",
"637 591 LINE",
"747 0 LINE",
"806 0 LINE",
"1125 685 LINE",
"1065 685 LINE",
"795 100 LINE",
"791 87 LINE",
"790 85 OFFCURVE",
"789 82 OFFCURVE",
"789 78 CURVE SMOOTH",
"788 72 LINE",
"786 100 LINE",
"680 685 LINE",
"621 685 LINE",
"351 100 LINE",
"343 79 LINE",
"342 89 LINE",
"342 100 LINE",
"245 630 LINE SMOOTH",
"240 667 OFFCURVE",
"206 694 OFFCURVE",
"164 694 CURVE SMOOTH",
"129 694 OFFCURVE",
"89 672 OFFCURVE",
"71 629 CURVE",
"125 611 LINE",
"133 628 OFFCURVE",
"148 637 OFFCURVE",
"163 637 CURVE SMOOTH",
"174 637 OFFCURVE",
"185 630 OFFCURVE",
"189 614 CURVE SMOOTH",
"303 0 LINE"
);
}
);
width = 1094;
},
{
anchors = (
{
name = top;
position = "{647, 675}";
}
);
layerId = "0CAF3BED-C4AC-4024-B3E1-4C69D1EF7EC0";
paths = (
{
closed = 1;
nodes = (
"375 -1 LINE",
"630 547 LINE",
"731 -1 LINE",
"805 -1 LINE",
"1125 687 LINE",
"1041 687 LINE",
"774 111 LINE",
"770 90 LINE",
"769 85 LINE",
"784 191 LINE",
"788 111 LINE",
"684 687 LINE",
"610 687 LINE",
"346 112 LINE",
"345 111 LINE",
"357 142 LINE",
"360 100 LINE",
"358 111 LINE",
"263 625 LINE",
"258 664 OFFCURVE",
"222 696 OFFCURVE",
"177 696 CURVE SMOOTH",
"137 696 OFFCURVE",
"86 667 OFFCURVE",
"70 614 CURVE",
"142 588 LINE",
"148 609 OFFCURVE",
"160 617 OFFCURVE",
"173 617 CURVE SMOOTH",
"180 617 OFFCURVE",
"185 615 OFFCURVE",
"188 604 CURVE SMOOTH",
"301 -1 LINE"
);
}
);
width = 1094;
},
{
anchors = (
{
name = bottom;
position = "{568, 0}";
},
{
name = top;
position = "{654, 692}";
}
);
layerId = "49C16FD3-6177-408B-A733-AEB3898BB77C";
paths = (
{
closed = 1;
nodes = (
"784 94 LINE",
"677 686 LINE",
"627 686 LINE",
"354 94 LINE",
"335 41 LINE",
"331 95 LINE",
"331 94 LINE",
"233 634 LINE SMOOTH",
"227 670 OFFCURVE",
"198 695 OFFCURVE",
"159 695 CURVE SMOOTH",
"126 695 OFFCURVE",
"91 677 OFFCURVE",
"72 640 CURVE",
"113 626 LINE",
"123 642 OFFCURVE",
"140 651 OFFCURVE",
"155 651 CURVE SMOOTH",
"169 651 OFFCURVE",
"184 641 OFFCURVE",
"188 623 CURVE SMOOTH",
"305 1 LINE",
"355 1 LINE",
"643 620 LINE",
"758 1 LINE",
"808 1 LINE",
"1126 686 LINE",
"1080 686 LINE",
"807 94 LINE",
"804 84 OFFCURVE",
"803 79 OFFCURVE",
"801 72 CURVE SMOOTH",
"789 34 LINE"
);
}
);
width = 1095;
}
);
leftKerningGroup = V;
rightKerningGroup = V;
unicode = 0057;
userData = {
position = 665;
width = 20;
};
},
{
color = 1;
glyphname = W.ss02;
layers = (
{
anchors = (
{
name = top;
position = "{571, 684}";
}
);
layerId = "873CAA12-270D-4223-A88E-AE8E101FDBE8";
paths = (
{
closed = 1;
nodes = (
"282 0 LINE",
"557 591 LINE",
"667 0 LINE",
"726 0 LINE",
"1045 685 LINE",
"985 685 LINE",
"715 100 LINE",
"711 87 LINE SMOOTH",
"710 84 OFFCURVE",
"709 82 OFFCURVE",
"709 78 CURVE SMOOTH",
"708 72 LINE",
"706 100 LINE",
"600 685 LINE",
"541 685 LINE",
"271 100 LINE",
"263 79 LINE",
"262 89 LINE",
"262 100 LINE",
"165 630 LINE SMOOTH",
"162 649 OFFCURVE",
"152 665 OFFCURVE",
"137 675 CURVE SMOOTH",
"126 685 OFFCURVE",
"106 694 OFFCURVE",
"85 694 CURVE",
"81 636 LINE",
"98 636 OFFCURVE",
"105 629 OFFCURVE",
"108 614 CURVE SMOOTH",
"223 0 LINE"
);
}
);
width = 1014;
},
{
anchors = (
{
name = top;
position = "{569, 675}";
}
);
layerId = "0CAF3BED-C4AC-4024-B3E1-4C69D1EF7EC0";
paths = (
{
closed = 1;
nodes = (
"296 -1 LINE",
"552 547 LINE",
"652 -1 LINE",
"726 -1 LINE",
"1046 687 LINE",
"962 687 LINE",
"695 111 LINE",
"690 89 LINE",
"690 85 LINE",
"705 191 LINE",
"709 111 LINE",
"605 687 LINE",
"531 687 LINE",
"267 112 LINE",
"266 111 LINE",
"278 142 LINE",
"281 100 LINE",
"279 111 LINE",
"185 625 LINE SMOOTH",
"182 645 OFFCURVE",
"170 665 OFFCURVE",
"153 675 CURVE SMOOTH",
"141 686 OFFCURVE",
"119 696 OFFCURVE",
"91 696 CURVE SMOOTH",
"87 696 LINE",
"79 616 LINE",
"84 616 OFFCURVE",
"88 617 OFFCURVE",
"94 617 CURVE SMOOTH",
"104 617 OFFCURVE",
"106 615 OFFCURVE",
"109 604 CURVE SMOOTH",
"222 -1 LINE"
);
}
);
width = 1015;
},
{
anchors = (
{
name = bottom;
position = "{454, 0}";
},
{
name = top;
position = "{572, 692}";
}
);
layerId = "49C16FD3-6177-408B-A733-AEB3898BB77C";
paths = (
{
closed = 1;
nodes = (
"703 94 LINE",
"596 686 LINE",
"546 686 LINE",
"273 94 LINE",
"253 41 LINE",
"251 83 LINE",
"250 95 LINE",
"250 94 LINE",
"152 634 LINE SMOOTH",
"149 653 OFFCURVE",
"140 667 OFFCURVE",
"125 677 CURVE",
"116 685 OFFCURVE",
"101 693 OFFCURVE",
"84 694 CURVE",
"80 649 LINE",
"96 647 OFFCURVE",
"105 638 OFFCURVE",
"107 622 CURVE SMOOTH",
"223 1 LINE",
"273 1 LINE",
"561 620 LINE",
"676 1 LINE",
"726 1 LINE",
"1045 686 LINE",
"999 686 LINE",
"726 94 LINE",
"720 74 LINE",
"720 71 LINE",
"710 0 LINE"
);
}
);
width = 1014;
}
);
leftKerningGroup = V;
rightKerningGroup = V;
rightMetricsKey = V;
userData = {
position = 665;
width = 20;
};
},
{
color = 1;
glyphname = X;
layers = (
{
layerId = "873CAA12-270D-4223-A88E-AE8E101FDBE8";
paths = (
{
closed = 1;
nodes = (
"530 -7 OFFCURVE",
"577 22 OFFCURVE",
"588 78 CURVE",
"531 85 LINE",
"525 67 OFFCURVE",
"509 51 OFFCURVE",
"488 51 CURVE SMOOTH",
"478 51 OFFCURVE",
"471 56 OFFCURVE",
"467 64 CURVE SMOOTH",
"338 351 LINE",
"596 684 LINE",
"523 684 LINE",
"300 395 LINE",
"160 684 LINE",
"93 684 LINE",
"256 351 LINE",
"-3 0 LINE",
"70 0 LINE",
"295 306 LINE",
"401 66 LINE SMOOTH",
"419 21 OFFCURVE",
"438 -7 OFFCURVE",
"484 -7 CURVE SMOOTH"
);
}
);
width = 633;
},
{
layerId = "0CAF3BED-C4AC-4024-B3E1-4C69D1EF7EC0";
paths = (
{
closed = 1;
nodes = (
"542 -7 OFFCURVE",
"599 31 OFFCURVE",
"606 98 CURVE",
"528 106 LINE",
"527 89 OFFCURVE",
"513 72 OFFCURVE",
"497 72 CURVE SMOOTH",
"491 72 OFFCURVE",
"488 73 OFFCURVE",
"486 78 CURVE SMOOTH",
"364 351 LINE",
"623 686 LINE",
"524 686 LINE",
"316 416 LINE",
"185 686 LINE",
"93 686 LINE",
"257 351 LINE",
"-3 -1 LINE",
"95 -1 LINE",
"305 285 LINE",
"401 70 LINE SMOOTH",
"418 26 OFFCURVE",
"440 -7 OFFCURVE",
"490 -7 CURVE SMOOTH"
);
}
);
width = 650;
},
{
anchors = (
{
name = bottom;
position = "{281, 0}";
},
{
name = top;
position = "{377, 684}";
}
);
layerId = "49C16FD3-6177-408B-A733-AEB3898BB77C";
paths = (
{
closed = 1;
nodes = (
"523 -6 OFFCURVE",
"566 19 OFFCURVE",
"578 68 CURVE",
"533 72 LINE",
"526 55 OFFCURVE",
"507 39 OFFCURVE",
"486 39 CURVE SMOOTH",
"472 39 OFFCURVE",
"461 46 OFFCURVE",
"457 55 CURVE SMOOTH",
"323 352 LINE",
"580 685 LINE",
"524 685 LINE",
"294 383 LINE",
"146 685 LINE",
"93 685 LINE",
"256 352 LINE",
"-2 1 LINE",
"54 1 LINE",
"288 320 LINE",
"402 65 LINE SMOOTH",
"421 19 OFFCURVE",
"437 -6 OFFCURVE",
"480 -6 CURVE SMOOTH"
);
}
);
width = 623;
}
);
leftKerningGroup = X;
rightKerningGroup = K;
unicode = 0058;
userData = {
position = 566;
width = 58;
};
},
{
color = 1;
glyphname = X.ss02;
layers = (
{
layerId = "873CAA12-270D-4223-A88E-AE8E101FDBE8";
paths = (
{
closed = 1;
nodes = (
"499 51 LINE",
"482 51 OFFCURVE",
"471 54 OFFCURVE",
"467 64 CURVE SMOOTH",
"338 351 LINE",
"596 684 LINE",
"523 684 LINE",
"300 395 LINE",
"160 684 LINE",
"93 684 LINE",
"256 351 LINE",
"-3 0 LINE",
"70 0 LINE",
"295 306 LINE",
"401 66 LINE SMOOTH",
"422 17 OFFCURVE",
"437 -7 OFFCURVE",
"495 -7 CURVE"
);
}
);
width = 569;
},
{
layerId = "0CAF3BED-C4AC-4024-B3E1-4C69D1EF7EC0";
paths = (
{
closed = 1;
nodes = (
"519 73 LINE",
"513 73 OFFCURVE",
"509 72 OFFCURVE",
"503 72 CURVE SMOOTH",
"492 72 OFFCURVE",
"488 73 OFFCURVE",
"486 78 CURVE SMOOTH",
"364 351 LINE",
"623 686 LINE",
"524 686 LINE",
"316 416 LINE",
"185 686 LINE",
"93 686 LINE",
"257 351 LINE",
"-3 -1 LINE",
"95 -1 LINE",
"305 285 LINE",
"401 70 LINE SMOOTH",
"423 19 OFFCURVE",
"440 -11 OFFCURVE",
"512 -7 CURVE"
);
}
);
width = 596;
},
{
anchors = (
{
name = bottom;
position = "{239, 0}";
},
{
name = top;
position = "{335, 684}";
}
);
layerId = "49C16FD3-6177-408B-A733-AEB3898BB77C";
paths = (
{
closed = 1;
nodes = (
"489 39 LINE",
"474 41 OFFCURVE",
"462 45 OFFCURVE",
"457 55 CURVE",
"323 352 LINE",
"580 685 LINE",
"524 685 LINE",
"294 383 LINE",
"146 685 LINE",
"93 685 LINE",
"256 352 LINE",
"-2 1 LINE",
"54 1 LINE",
"288 320 LINE",
"402 65 LINE SMOOTH",
"423 17 OFFCURVE",
"435 -4 OFFCURVE",
"485 -6 CURVE"
);
}
);
width = 554;
}
);
leftKerningGroup = X;
leftMetricsKey = X;
rightKerningGroup = K;
userData = {
position = 566;
width = 58;
};
},
{
color = 1;
glyphname = Y;
layers = (
{
anchors = (
{
name = bottom;
position = "{307, 1}";
},
{
name = top;
position = "{402, 684}";
}
);
layerId = "873CAA12-270D-4223-A88E-AE8E101FDBE8";
paths = (
{
closed = 1;
nodes = (
"343 0 LINE",
"384 299 LINE",
"654 685 LINE",
"582 685 LINE",
"359 366 LINE",
"245 645 LINE",
"229 680 OFFCURVE",
"200 694 OFFCURVE",
"170 694 CURVE SMOOTH",
"129 694 OFFCURVE",
"82 667 OFFCURVE",
"69 613 CURVE",
"127 603 LINE",
"130 622 OFFCURVE",
"149 635 OFFCURVE",
"167 635 CURVE SMOOTH",
"176 635 OFFCURVE",
"186 631 OFFCURVE",
"192 619 CURVE",
"323 297 LINE",
"277 0 LINE"
);
}
);
width = 618;
},
{
anchors = (
{
name = bottom;
position = "{313, 12}";
},
{
name = top;
position = "{405, 675}";
}
);
layerId = "0CAF3BED-C4AC-4024-B3E1-4C69D1EF7EC0";
paths = (
{
closed = 1;
nodes = (
"357 -1 LINE",
"399 298 LINE",
"670 687 LINE",
"574 687 LINE",
"367 390 LINE",
"263 641 LINE SMOOTH",
"246 679 OFFCURVE",
"213 696 OFFCURVE",
"182 696 CURVE SMOOTH",
"136 696 OFFCURVE",
"77 661 OFFCURVE",
"68 595 CURVE",
"150 583 LINE",
"148 587 OFFCURVE",
"148 591 OFFCURVE",
"148 593 CURVE SMOOTH",
"150 606 OFFCURVE",
"163 615 OFFCURVE",
"175 615 CURVE SMOOTH",
"181 615 OFFCURVE",
"185 615 OFFCURVE",
"190 607 CURVE",
"315 296 LINE",
"270 -1 LINE"
);
}
);
width = 634;
},
{
anchors = (
{
name = bottom;
position = "{305, -5}";
},
{
name = top;
position = "{402, 692}";
},
{
name = topleft;
position = "{87, 684}";
}
);
layerId = "49C16FD3-6177-408B-A733-AEB3898BB77C";
paths = (
{
closed = 1;
nodes = (
"335 1 LINE",
"375 301 LINE",
"645 686 LINE",
"590 686 LINE",
"358 353 LINE",
"235 648 LINE SMOOTH",
"220 682 OFFCURVE",
"195 695 OFFCURVE",
"167 695 CURVE SMOOTH",
"128 695 OFFCURVE",
"85 672 OFFCURVE",
"71 625 CURVE",
"116 618 LINE",
"123 636 OFFCURVE",
"144 649 OFFCURVE",
"161 649 CURVE SMOOTH",
"173 649 OFFCURVE",
"186 643 OFFCURVE",
"194 629 CURVE",
"327 299 LINE",
"282 1 LINE"
);
}
);
width = 609;
}
);
leftKerningGroup = Y;
rightKerningGroup = Y;
unicode = 0059;
userData = {
position = 308;
width = 66;
};
},
{
color = 1;
glyphname = Y.ss02;
layers = (
{
anchors = (
{
name = bottom;
position = "{225, 1}";
},
{
name = top;
position = "{320, 684}";
}
);
layerId = "873CAA12-270D-4223-A88E-AE8E101FDBE8";
paths = (
{
closed = 1;
nodes = (
"261 0 LINE",
"302 299 LINE",
"572 685 LINE",
"500 685 LINE",
"277 366 LINE",
"163 645 LINE SMOOTH",
"149 677 OFFCURVE",
"123 694 OFFCURVE",
"83 694 CURVE",
"79 635 LINE",
"96 635 OFFCURVE",
"104 630 OFFCURVE",
"110 619 CURVE",
"241 297 LINE",
"195 0 LINE"
);
}
);
width = 536;
},
{
anchors = (
{
name = bottom;
position = "{232, 12}";
},
{
name = top;
position = "{324, 675}";
}
);
layerId = "0CAF3BED-C4AC-4024-B3E1-4C69D1EF7EC0";
paths = (
{
closed = 1;
nodes = (
"277 -1 LINE",
"318 298 LINE",
"589 687 LINE",
"493 687 LINE",
"286 390 LINE",
"182 641 LINE SMOOTH",
"166 678 OFFCURVE",
"132 699 OFFCURVE",
"85 695 CURVE",
"77 615 LINE",
"99 616 OFFCURVE",
"105 617 OFFCURVE",
"109 606 CURVE",
"108 605 LINE",
"234 296 LINE",
"189 -1 LINE"
);
}
);
width = 553;
},
{
anchors = (
{
name = bottom;
position = "{218, -5}";
},
{
name = top;
position = "{315, 692}";
},
{
name = topleft;
position = "{78, 684}";
}
);
layerId = "49C16FD3-6177-408B-A733-AEB3898BB77C";
paths = (
{
closed = 1;
nodes = (
"249 1 LINE",
"289 301 LINE",
"558 686 LINE",
"503 686 LINE",
"271 353 LINE",
"149 648 LINE SMOOTH",
"136 677 OFFCURVE",
"115 693 OFFCURVE",
"82 695 CURVE",
"77 648 LINE",
"92 647 OFFCURVE",
"102 640 OFFCURVE",
"107 629 CURVE",
"241 299 LINE",
"196 1 LINE"
);
}
);
width = 522;
}
);
leftKerningGroup = Y;
rightKerningGroup = Y;
rightMetricsKey = Y;
userData = {
position = 308;
width = 66;
};
},
{
color = 1;
glyphname = Z;
layers = (
{
anchors = (
{
name = top;
position = "{355, 683}";
}
);
layerId = "873CAA12-270D-4223-A88E-AE8E101FDBE8";
paths = (
{
closed = 1;
nodes = (
"81 46 LINE",
"176 28 OFFCURVE",
"241 -14 OFFCURVE",
"331 -14 CURVE SMOOTH",
"386 -14 OFFCURVE",
"434 3 OFFCURVE",
"494 53 CURVE",
"459 92 LINE",
"421 60 OFFCURVE",
"379 39 OFFCURVE",
"330 39 CURVE SMOOTH",
"273 39 OFFCURVE",
"205 71 OFFCURVE",
"143 84 CURVE SMOOTH",
"113 90 LINE",
"549 681 LINE",
"142 681 LINE",
"134 628 LINE",
"446 628 LINE",
"-8 12 LINE",
"35 -15 LINE"
);
}
);
width = 544;
},
{
anchors = (
{
name = top;
position = "{361, 674}";
}
);
layerId = "0CAF3BED-C4AC-4024-B3E1-4C69D1EF7EC0";
paths = (
{
closed = 1;
nodes = (
"100 43 LINE",
"185 25 OFFCURVE",
"248 -14 OFFCURVE",
"336 -14 CURVE SMOOTH",
"395 -14 OFFCURVE",
"449 6 OFFCURVE",
"513 62 CURVE",
"463 118 LINE",
"426 83 OFFCURVE",
"386 61 OFFCURVE",
"338 61 CURVE SMOOTH",
"285 61 OFFCURVE",
"221 91 OFFCURVE",
"158 104 CURVE SMOOTH",
"146 107 LINE",
"571 683 LINE",
"144 683 LINE",
"133 609 LINE",
"427 609 LINE",
"-8 19 LINE",
"52 -19 LINE"
);
}
);
width = 562;
},
{
anchors = (
{
name = bottom;
position = "{254, 0}";
},
{
name = top;
position = "{351, 691}";
}
);
layerId = "49C16FD3-6177-408B-A733-AEB3898BB77C";
paths = (
{
closed = 1;
nodes = (
"379 -13 OFFCURVE",
"425 2 OFFCURVE",
"483 48 CURVE",
"457 78 LINE",
"417 47 OFFCURVE",
"376 27 OFFCURVE",
"327 27 CURVE SMOOTH",
"267 27 OFFCURVE",
"195 60 OFFCURVE",
"133 73 CURVE SMOOTH",
"90 81 LINE",
"534 681 LINE",
"140 681 LINE",
"134 642 LINE",
"458 642 LINE",
"-9 9 LINE",
"22 -11 LINE",
"68 49 LINE",
"168 31 OFFCURVE",
"235 -13 OFFCURVE",
"325 -13 CURVE SMOOTH"
);
}
);
width = 532;
}
);
leftKerningGroup = S;
rightKerningGroup = S;
unicode = 005A;
userData = {
position = 628;
width = 53;
};
},
{
color = 1;
glyphname = Z.ss02;
layers = (
{
anchors = (
{
name = top;
position = "{311, 684}";
}
);
layerId = "873CAA12-270D-4223-A88E-AE8E101FDBE8";
paths = (
{
closed = 1;
nodes = (
"462 0 LINE",
"470 57 LINE",
"92 57 LINE",
"537 671 LINE",
"538 684 LINE",
"107 684 LINE",
"99 627 LINE",
"437 627 LINE",
"-8 13 LINE",
"-9 0 LINE"
);
}
);
width = 528;
},
{
anchors = (
{
name = top;
position = "{319, 684}";
}
);
layerId = "0CAF3BED-C4AC-4024-B3E1-4C69D1EF7EC0";
paths = (
{
closed = 1;
nodes = (
"470 -1 LINE",
"481 78 LINE",
"123 78 LINE",
"543 659 LINE",
"546 686 LINE",
"105 686 LINE",
"94 608 LINE",
"413 608 LINE",
"-7 27 LINE",
"-10 -1 LINE"
);
}
);
width = 539;
},
{
anchors = (
{
name = bottom;
position = "{237, 10}";
},
{
name = top;
position = "{310, 684}";
}
);
layerId = "49C16FD3-6177-408B-A733-AEB3898BB77C";
paths = (
{
closed = 1;
nodes = (
"456 1 LINE",
"462 45 LINE",
"70 45 LINE",
"530 680 LINE",
"531 685 LINE",
"106 685 LINE",
"100 641 LINE",
"451 641 LINE",
"-9 5 LINE",
"-10 1 LINE"
);
}
);
width = 518;
}
);
leftKerningGroup = S;
leftMetricsKey = Z;
rightKerningGroup = S;
userData = {
position = 627;
width = 57;
};
},
{
color = 1;
glyphname = a;
layers = (
{
anchors = (
{
name = bottom;
position = "{208, -8}";
},
{
name = ogonek;
position = "{506, 10}";
},
{
name = top;
position = "{306, 508}";
}
);
layerId = "873CAA12-270D-4223-A88E-AE8E101FDBE8";
paths = (
{
closed = 1;
nodes = (
"273 -10 OFFCURVE",
"331 13 OFFCURVE",
"371 69 CURVE",
"370 26 OFFCURVE",
"404 -10 OFFCURVE",
"452 -10 CURVE SMOOTH",
"476 -10 OFFCURVE",
"506 0 OFFCURVE",
"528 29 CURVE",
"486 62 LINE",
"477 51 OFFCURVE",
"464 45 OFFCURVE",
"451 45 CURVE SMOOTH",
"436 45 OFFCURVE",
"422 56 OFFCURVE",
"425 78 CURVE SMOOTH",
"484 499 LINE",
"427 499 LINE",
"392 504 OFFCURVE",
"338 508 OFFCURVE",
"306 508 CURVE SMOOTH",
"155 508 OFFCURVE",
"51 402 OFFCURVE",
"30 250 CURVE SMOOTH",
"28 233 OFFCURVE",
"26 215 OFFCURVE",
"26 199 CURVE SMOOTH",
"26 83 OFFCURVE",
"84 -10 OFFCURVE",
"211 -10 CURVE SMOOTH"
);
},
{
closed = 1;
nodes = (
"121 42 OFFCURVE",
"83 116 OFFCURVE",
"83 201 CURVE SMOOTH",
"83 215 OFFCURVE",
"84 230 OFFCURVE",
"86 244 CURVE SMOOTH",
"103 362 OFFCURVE",
"180 456 OFFCURVE",
"301 456 CURVE SMOOTH",
"334 456 OFFCURVE",
"393 448 OFFCURVE",
"424 448 CURVE",
"386 190 LINE SMOOTH",
"382 165 OFFCURVE",
"373 143 OFFCURVE",
"361 126 CURVE SMOOTH",
"332 78 OFFCURVE",
"277 42 OFFCURVE",
"212 42 CURVE SMOOTH"
);
}
);
width = 561;
},
{
anchors = (
{
name = bottom;
position = "{213, 4}";
},
{
name = ogonek;
position = "{516, 22}";
},
{
name = top;
position = "{310, 516}";
}
);
layerId = "0CAF3BED-C4AC-4024-B3E1-4C69D1EF7EC0";
paths = (
{
closed = 1;
nodes = (
"269 -10 OFFCURVE",
"323 7 OFFCURVE",
"364 51 CURVE",
"374 18 OFFCURVE",
"407 -10 OFFCURVE",
"449 -10 CURVE SMOOTH",
"477 -10 OFFCURVE",
"516 3 OFFCURVE",
"540 42 CURVE",
"480 89 LINE",
"472 73 OFFCURVE",
"464 66 OFFCURVE",
"451 66 CURVE SMOOTH",
"444 66 OFFCURVE",
"436 72 OFFCURVE",
"436 83 CURVE SMOOTH",
"436 87 LINE",
"495 507 LINE",
"429 507 LINE",
"394 512 OFFCURVE",
"342 516 OFFCURVE",
"310 516 CURVE SMOOTH",
"159 516 OFFCURVE",
"51 405 OFFCURVE",
"30 254 CURVE SMOOTH",
"27 237 OFFCURVE",
"26 219 OFFCURVE",
"26 203 CURVE SMOOTH",
"26 87 OFFCURVE",
"87 -10 OFFCURVE",
"215 -10 CURVE SMOOTH"
);
},
{
closed = 1;
nodes = (
"140 64 OFFCURVE",
"105 129 OFFCURVE",
"105 206 CURVE SMOOTH",
"105 220 OFFCURVE",
"106 234 OFFCURVE",
"108 248 CURVE SMOOTH",
"123 357 OFFCURVE",
"193 442 OFFCURVE",
"303 442 CURVE SMOOTH",
"330 442 OFFCURVE",
"378 436 OFFCURVE",
"410 434 CURVE",
"374 195 LINE SMOOTH",
"371 173 OFFCURVE",
"364 155 OFFCURVE",
"353 141 CURVE SMOOTH",
"326 96 OFFCURVE",
"279 64 OFFCURVE",
"219 64 CURVE SMOOTH"
);
}
);
width = 572;
},
{
anchors = (
{
name = bottom;
position = "{205, -14}";
},
{
name = ogonek;
position = "{509, 4}";
},
{
name = top;
position = "{307, 505}";
}
);
layerId = "49C16FD3-6177-408B-A733-AEB3898BB77C";
paths = (
{
closed = 1;
nodes = (
"282 -9 OFFCURVE",
"344 21 OFFCURVE",
"382 96 CURVE",
"378 79 LINE SMOOTH",
"377 75 OFFCURVE",
"377 70 OFFCURVE",
"377 66 CURVE SMOOTH",
"377 23 OFFCURVE",
"408 -9 OFFCURVE",
"454 -9 CURVE SMOOTH",
"476 -9 OFFCURVE",
"501 -2 OFFCURVE",
"522 22 CURVE",
"488 47 LINE",
"479 38 OFFCURVE",
"467 33 OFFCURVE",
"455 33 CURVE SMOOTH",
"436 33 OFFCURVE",
"416 48 OFFCURVE",
"419 75 CURVE SMOOTH",
"479 496 LINE",
"428 496 LINE",
"392 501 OFFCURVE",
"338 505 OFFCURVE",
"307 505 CURVE SMOOTH",
"155 505 OFFCURVE",
"52 400 OFFCURVE",
"31 247 CURVE SMOOTH",
"28 229 OFFCURVE",
"27 211 OFFCURVE",
"27 193 CURVE SMOOTH",
"27 80 OFFCURVE",
"84 -9 OFFCURVE",
"208 -9 CURVE SMOOTH"
);
},
{
closed = 1;
nodes = (
"113 30 OFFCURVE",
"71 110 OFFCURVE",
"71 201 CURVE SMOOTH",
"71 216 OFFCURVE",
"72 230 OFFCURVE",
"74 245 CURVE SMOOTH",
"91 366 OFFCURVE",
"172 466 OFFCURVE",
"299 466 CURVE SMOOTH",
"337 466 OFFCURVE",
"404 457 OFFCURVE",
"432 458 CURVE",
"393 187 LINE SMOOTH",
"389 160 OFFCURVE",
"380 137 OFFCURVE",
"368 119 CURVE SMOOTH",
"338 69 OFFCURVE",
"278 30 OFFCURVE",
"210 30 CURVE SMOOTH"
);
}
);
width = 555;
}
);
leftKerningGroup = o;
leftMetricsKey = c;
rightKerningGroup = m;
unicode = 0061;
userData = {
position = 407;
width = 55;
};
},
{
color = 1;
glyphname = a.ss02;
layers = (
{
anchors = (
{
name = ogonek;
position = "{394, 25}";
},
{
name = top;
position = "{254, 509}";
}
);
layerId = "873CAA12-270D-4223-A88E-AE8E101FDBE8";
paths = (
{
closed = 1;
nodes = (
"223 -10 OFFCURVE",
"280 15 OFFCURVE",
"316 72 CURVE",
"321 42 OFFCURVE",
"329 17 OFFCURVE",
"357 -7 CURVE",
"394 24 LINE",
"377 45 OFFCURVE",
"369 72 OFFCURVE",
"369 105 CURVE SMOOTH",
"369 116 OFFCURVE",
"370 129 OFFCURVE",
"372 142 CURVE SMOOTH",
"400 345 LINE SMOOTH",
"402 358 OFFCURVE",
"403 371 OFFCURVE",
"403 383 CURVE SMOOTH",
"403 463 OFFCURVE",
"358 508 OFFCURVE",
"264 508 CURVE SMOOTH",
"193 508 OFFCURVE",
"127 481 OFFCURVE",
"79 445 CURVE",
"103 401 LINE",
"152 435 OFFCURVE",
"210 456 OFFCURVE",
"264 456 CURVE SMOOTH",
"324 456 OFFCURVE",
"347 429 OFFCURVE",
"347 375 CURVE SMOOTH",
"347 364 OFFCURVE",
"346 352 OFFCURVE",
"344 338 CURVE SMOOTH",
"339 300 LINE",
"240 300 LINE SMOOTH",
"155 300 OFFCURVE",
"28 281 OFFCURVE",
"10 150 CURVE SMOOTH",
"9 140 OFFCURVE",
"8 131 OFFCURVE",
"8 121 CURVE SMOOTH",
"8 42 OFFCURVE",
"62 -10 OFFCURVE",
"157 -10 CURVE SMOOTH"
);
},
{
closed = 1;
nodes = (
"98 42 OFFCURVE",
"65 69 OFFCURVE",
"65 123 CURVE SMOOTH",
"65 129 OFFCURVE",
"65 136 OFFCURVE",
"66 143 CURVE SMOOTH",
"79 237 OFFCURVE",
"157 249 OFFCURVE",
"237 249 CURVE SMOOTH",
"332 249 LINE",
"322 179 LINE SMOOTH",
"312 106 OFFCURVE",
"251 42 OFFCURVE",
"158 42 CURVE SMOOTH"
);
}
);
width = 427;
},
{
anchors = (
{
name = ogonek;
position = "{461, 10}";
},
{
name = top;
position = "{257, 0}";
}
);
associatedMasterId = "873CAA12-270D-4223-A88E-AE8E101FDBE8";
layerId = "67035B91-209B-4EB7-AE83-3C0B90A7279F";
name = "Regular Mar 21 13, 13:36";
paths = (
{
closed = 1;
nodes = (
"210 508 OFFCURVE",
"178 502 OFFCURVE",
"147 489 CURVE SMOOTH",
"120 478 OFFCURVE",
"90 461 OFFCURVE",
"70 444 CURVE",
"97 402 LINE",
"106 409 OFFCURVE",
"112 413 OFFCURVE",
"128 422 CURVE SMOOTH",
"145 432 OFFCURVE",
"154 436 OFFCURVE",
"165 440 CURVE SMOOTH",
"178 445 OFFCURVE",
"195 450 OFFCURVE",
"205 452 CURVE SMOOTH",
"218 455 OFFCURVE",
"233 456 OFFCURVE",
"245 456 CURVE SMOOTH",
"282 456 OFFCURVE",
"307 447 OFFCURVE",
"324 428 CURVE SMOOTH",
"341 409 OFFCURVE",
"349 378 OFFCURVE",
"349 336 CURVE SMOOTH",
"349 280 LINE",
"252 280 LINE SMOOTH",
"226 280 OFFCURVE",
"201 278 OFFCURVE",
"176 273 CURVE SMOOTH",
"151 268 OFFCURVE",
"131 262 OFFCURVE",
"109 249 CURVE SMOOTH",
"88 237 OFFCURVE",
"71 221 OFFCURVE",
"60 204 CURVE SMOOTH",
"47 183 OFFCURVE",
"41 161 OFFCURVE",
"41 133 CURVE SMOOTH",
"41 85 OFFCURVE",
"58 49 OFFCURVE",
"86 26 CURVE SMOOTH",
"119 -1 OFFCURVE",
"165 -10 OFFCURVE",
"204 -10 CURVE SMOOTH",
"244 -10 OFFCURVE",
"277 -1 OFFCURVE",
"301 12 CURVE SMOOTH",
"332 29 OFFCURVE",
"346 50 OFFCURVE",
"357 72 CURVE",
"362 57 OFFCURVE",
"367 44 OFFCURVE",
"376 29 CURVE SMOOTH",
"384 15 OFFCURVE",
"395 3 OFFCURVE",
"409 -8 CURVE",
"443 25 LINE",
"417 53 OFFCURVE",
"404 93 OFFCURVE",
"404 144 CURVE SMOOTH",
"404 347 LINE SMOOTH",
"404 394 OFFCURVE",
"393 437 OFFCURVE",
"367 466 CURVE SMOOTH",
"342 494 OFFCURVE",
"301 508 OFFCURVE",
"246 508 CURVE SMOOTH"
);
},
{
closed = 1;
nodes = (
"349 177 LINE SMOOTH",
"349 155 OFFCURVE",
"345 136 OFFCURVE",
"338 119 CURVE SMOOTH",
"332 105 OFFCURVE",
"319 88 OFFCURVE",
"306 77 CURVE SMOOTH",
"296 68 OFFCURVE",
"276 57 OFFCURVE",
"258 51 CURVE SMOOTH",
"240 45 OFFCURVE",
"221 42 OFFCURVE",
"202 42 CURVE SMOOTH",
"141 42 OFFCURVE",
"98 60 OFFCURVE",
"98 125 CURVE SMOOTH",
"98 150 OFFCURVE",
"102 169 OFFCURVE",
"112 183 CURVE SMOOTH",
"120 194 OFFCURVE",
"133 205 OFFCURVE",
"147 212 CURVE SMOOTH",
"162 219 OFFCURVE",
"182 224 OFFCURVE",
"197 226 CURVE SMOOTH",
"215 228 OFFCURVE",
"233 229 OFFCURVE",
"252 229 CURVE SMOOTH",
"349 229 LINE"
);
}
);
width = 487;
},
{
anchors = (
{
name = bottom;
position = "{165, -10}";
},
{
name = ogonek;
position = "{412, 34}";
},
{
name = top;
position = "{272, 513}";
}
);
layerId = "0CAF3BED-C4AC-4024-B3E1-4C69D1EF7EC0";
paths = (
{
closed = 1;
nodes = (
"412 34 LINE",
"392 53 OFFCURVE",
"384 77 OFFCURVE",
"384 110 CURVE SMOOTH",
"384 122 OFFCURVE",
"385 135 OFFCURVE",
"387 149 CURVE SMOOTH",
"414 346 LINE SMOOTH",
"416 359 OFFCURVE",
"417 371 OFFCURVE",
"417 382 CURVE SMOOTH",
"417 466 OFFCURVE",
"369 516 OFFCURVE",
"272 516 CURVE SMOOTH",
"196 516 OFFCURVE",
"123 484 OFFCURVE",
"75 445 CURVE",
"110 383 LINE",
"159 420 OFFCURVE",
"214 442 OFFCURVE",
"269 442 CURVE SMOOTH",
"320 442 OFFCURVE",
"339 420 OFFCURVE",
"339 372 CURVE SMOOTH",
"339 362 OFFCURVE",
"339 351 OFFCURVE",
"337 339 CURVE SMOOTH",
"333 314 LINE",
"248 314 LINE SMOOTH",
"165 314 OFFCURVE",
"31 294 OFFCURVE",
"12 157 CURVE SMOOTH",
"11 147 OFFCURVE",
"10 138 OFFCURVE",
"10 129 CURVE SMOOTH",
"10 46 OFFCURVE",
"68 -10 OFFCURVE",
"165 -10 CURVE SMOOTH",
"222 -10 OFFCURVE",
"276 9 OFFCURVE",
"315 54 CURVE",
"321 32 OFFCURVE",
"333 9 OFFCURVE",
"360 -11 CURVE"
);
},
{
closed = 1;
nodes = (
"117 64 OFFCURVE",
"89 86 OFFCURVE",
"89 132 CURVE SMOOTH",
"89 137 OFFCURVE",
"89 144 OFFCURVE",
"90 150 CURVE SMOOTH",
"101 231 OFFCURVE",
"166 241 OFFCURVE",
"242 241 CURVE SMOOTH",
"323 241 LINE",
"315 185 LINE SMOOTH",
"306 120 OFFCURVE",
"251 64 OFFCURVE",
"169 64 CURVE SMOOTH"
);
}
);
width = 444;
},
{
anchors = (
{
name = bottom;
position = "{151, -9}";
},
{
name = ogonek;
position = "{383, 19}";
},
{
name = top;
position = "{262, 505}";
}
);
layerId = "49C16FD3-6177-408B-A733-AEB3898BB77C";
paths = (
{
closed = 1;
nodes = (
"225 -9 OFFCURVE",
"282 20 OFFCURVE",
"316 88 CURVE",
"323 50 OFFCURVE",
"328 23 OFFCURVE",
"356 -4 CURVE",
"383 19 LINE",
"368 40 OFFCURVE",
"361 68 OFFCURVE",
"361 100 CURVE SMOOTH",
"361 113 OFFCURVE",
"362 126 OFFCURVE",
"364 140 CURVE SMOOTH",
"393 347 LINE SMOOTH",
"395 360 OFFCURVE",
"396 373 OFFCURVE",
"396 385 CURVE SMOOTH",
"396 463 OFFCURVE",
"354 505 OFFCURVE",
"262 505 CURVE SMOOTH",
"193 505 OFFCURVE",
"129 480 OFFCURVE",
"82 446 CURVE",
"99 413 LINE",
"149 446 OFFCURVE",
"206 466 OFFCURVE",
"259 466 CURVE SMOOTH",
"325 466 OFFCURVE",
"352 434 OFFCURVE",
"352 375 CURVE SMOOTH",
"352 363 OFFCURVE",
"351 351 OFFCURVE",
"349 338 CURVE SMOOTH",
"343 293 LINE",
"236 293 LINE SMOOTH",
"150 293 OFFCURVE",
"26 274 OFFCURVE",
"8 145 CURVE SMOOTH",
"7 136 OFFCURVE",
"6 126 OFFCURVE",
"6 118 CURVE SMOOTH",
"6 39 OFFCURVE",
"58 -9 OFFCURVE",
"151 -9 CURVE SMOOTH"
);
},
{
closed = 1;
nodes = (
"88 30 OFFCURVE",
"50 61 OFFCURVE",
"50 120 CURVE SMOOTH",
"50 127 OFFCURVE",
"51 134 OFFCURVE",
"52 142 CURVE SMOOTH",
"66 243 OFFCURVE",
"151 255 OFFCURVE",
"233 255 CURVE SMOOTH",
"338 255 LINE",
"327 176 LINE SMOOTH",
"316 99 OFFCURVE",
"250 30 OFFCURVE",
"153 30 CURVE SMOOTH"
);
}
);
width = 417;
}
);
leftKerningGroup = a;
rightKerningGroup = a.2;
rightMetricsKey = n;
userData = {
position = 347;
width = 55;
};
},
{
color = 1;
glyphname = ae;
layers = (
{
anchors = (
{
name = top;
position = "{415, 502}";
}
);
layerId = "873CAA12-270D-4223-A88E-AE8E101FDBE8";
paths = (
{
closed = 1;
nodes = (
"196 -10 OFFCURVE",
"239 2 OFFCURVE",
"273 22 CURVE SMOOTH",
"319 53 OFFCURVE",
"332 90 OFFCURVE",
"340 113 CURVE",
"352 66 OFFCURVE",
"372 42 OFFCURVE",
"400 24 CURVE SMOOTH",
"429 2 OFFCURVE",
"463 -10 OFFCURVE",
"521 -10 CURVE SMOOTH",
"557 -10 OFFCURVE",
"587 -6 OFFCURVE",
"624 5 CURVE SMOOTH",
"657 18 OFFCURVE",
"683 30 OFFCURVE",
"710 47 CURVE",
"688 91 LINE",
"664 79 OFFCURVE",
"634 66 OFFCURVE",
"607 58 CURVE SMOOTH",
"578 47 OFFCURVE",
"553 42 OFFCURVE",
"522 42 CURVE SMOOTH",
"468 42 OFFCURVE",
"436 56 OFFCURVE",
"412 80 CURVE SMOOTH",
"387 110 OFFCURVE",
"380 148 OFFCURVE",
"381 198 CURVE",
"501 200 LINE SMOOTH",
"528 200 OFFCURVE",
"559 203 OFFCURVE",
"586 208 CURVE SMOOTH",
"639 219 OFFCURVE",
"684 243 OFFCURVE",
"713 280 CURVE SMOOTH",
"731 307 OFFCURVE",
"742 335 OFFCURVE",
"742 374 CURVE SMOOTH",
"742 412 OFFCURVE",
"727 443 OFFCURVE",
"701 465 CURVE SMOOTH",
"672 494 OFFCURVE",
"626 508 OFFCURVE",
"576 508 CURVE SMOOTH",
"534 508 OFFCURVE",
"505 498 OFFCURVE",
"473 480 CURVE SMOOTH",
"446 461 OFFCURVE",
"419 438 OFFCURVE",
"394 400 CURVE",
"391 431 OFFCURVE",
"379 457 OFFCURVE",
"357 476 CURVE SMOOTH",
"338 496 OFFCURVE",
"310 508 OFFCURVE",
"258 508 CURVE SMOOTH",
"218 508 OFFCURVE",
"190 501 OFFCURVE",
"160 491 CURVE SMOOTH",
"126 477 OFFCURVE",
"100 462 OFFCURVE",
"77 445 CURVE",
"101 401 LINE",
"123 417 OFFCURVE",
"151 431 OFFCURVE",
"174 438 CURVE SMOOTH",
"193 446 OFFCURVE",
"228 456 OFFCURVE",
"262 456 CURVE SMOOTH",
"289 456 OFFCURVE",
"314 450 OFFCURVE",
"331 430 CURVE SMOOTH",
"340 416 OFFCURVE",
"345 399 OFFCURVE",
"345 376 CURVE SMOOTH",
"345 365 OFFCURVE",
"344 352 OFFCURVE",
"342 338 CURVE SMOOTH",
"334 280 LINE",
"235 280 LINE SMOOTH",
"173 280 OFFCURVE",
"79 266 OFFCURVE",
"32 205 CURVE SMOOTH",
"17 184 OFFCURVE",
"4 155 OFFCURVE",
"4 110 CURVE SMOOTH",
"4 73 OFFCURVE",
"17 46 OFFCURVE",
"38 28 CURVE SMOOTH",
"62 3 OFFCURVE",
"104 -10 OFFCURVE",
"151 -10 CURVE SMOOTH"
);
},
{
closed = 1;
nodes = (
"104 42 OFFCURVE",
"60 52 OFFCURVE",
"60 107 CURVE SMOOTH",
"60 113 OFFCURVE",
"60 119 OFFCURVE",
"61 125 CURVE SMOOTH",
"67 165 OFFCURVE",
"86 195 OFFCURVE",
"124 210 CURVE SMOOTH",
"153 224 OFFCURVE",
"195 229 OFFCURVE",
"232 229 CURVE SMOOTH",
"327 229 LINE",
"320 179 LINE SMOOTH",
"315 140 OFFCURVE",
"293 102 OFFCURVE",
"261 79 CURVE SMOOTH",
"229 53 OFFCURVE",
"187 42 OFFCURVE",
"145 42 CURVE SMOOTH"
);
},
{
closed = 1;
nodes = (
"392 299 OFFCURVE",
"415 353 OFFCURVE",
"451 393 CURVE SMOOTH",
"480 429 OFFCURVE",
"523 459 OFFCURVE",
"583 459 CURVE SMOOTH",
"636 459 OFFCURVE",
"685 435 OFFCURVE",
"685 376 CURVE SMOOTH",
"685 343 OFFCURVE",
"674 310 OFFCURVE",
"643 288 CURVE SMOOTH",
"610 261 OFFCURVE",
"553 252 OFFCURVE",
"504 252 CURVE SMOOTH",
"385 250 LINE"
);
}
);
width = 762;
},
{
anchors = (
{
name = top;
position = "{417, 498}";
}
);
layerId = "0CAF3BED-C4AC-4024-B3E1-4C69D1EF7EC0";
paths = (
{
closed = 1;
nodes = (
"204 -10 OFFCURVE",
"250 2 OFFCURVE",
"286 23 CURVE SMOOTH",
"315 43 OFFCURVE",
"331 66 OFFCURVE",
"343 87 CURVE",
"355 59 OFFCURVE",
"373 39 OFFCURVE",
"396 25 CURVE SMOOTH",
"425 2 OFFCURVE",
"460 -10 OFFCURVE",
"518 -10 CURVE SMOOTH",
"554 -10 OFFCURVE",
"586 -6 OFFCURVE",
"624 5 CURVE SMOOTH",
"660 19 OFFCURVE",
"689 33 OFFCURVE",
"719 53 CURVE",
"686 115 LINE",
"662 102 OFFCURVE",
"629 87 OFFCURVE",
"598 78 CURVE SMOOTH",
"572 68 OFFCURVE",
"551 64 OFFCURVE",
"522 64 CURVE SMOOTH",
"472 64 OFFCURVE",
"444 75 OFFCURVE",
"422 96 CURVE SMOOTH",
"403 121 OFFCURVE",
"395 151 OFFCURVE",
"395 191 CURVE",
"498 193 LINE SMOOTH",
"525 193 OFFCURVE",
"557 197 OFFCURVE",
"583 201 CURVE",
"636 213 OFFCURVE",
"684 237 OFFCURVE",
"715 275 CURVE",
"734 303 OFFCURVE",
"745 336 OFFCURVE",
"745 373 CURVE SMOOTH",
"745 414 OFFCURVE",
"728 448 OFFCURVE",
"701 471 CURVE SMOOTH",
"672 501 OFFCURVE",
"624 516 OFFCURVE",
"574 516 CURVE SMOOTH",
"531 516 OFFCURVE",
"499 505 OFFCURVE",
"466 486 CURVE SMOOTH",
"445 471 OFFCURVE",
"425 454 OFFCURVE",
"402 427 CURVE",
"397 447 OFFCURVE",
"384 467 OFFCURVE",
"367 482 CURVE",
"347 502 OFFCURVE",
"318 516 OFFCURVE",
"266 516 CURVE SMOOTH",
"225 516 OFFCURVE",
"195 508 OFFCURVE",
"164 498 CURVE SMOOTH",
"127 483 OFFCURVE",
"98 465 OFFCURVE",
"74 445 CURVE",
"108 383 LINE",
"130 401 OFFCURVE",
"161 417 OFFCURVE",
"188 425 CURVE SMOOTH",
"204 433 OFFCURVE",
"235 442 OFFCURVE",
"267 442 CURVE SMOOTH",
"291 442 OFFCURVE",
"311 438 OFFCURVE",
"326 422 CURVE SMOOTH",
"334 409 OFFCURVE",
"338 395 OFFCURVE",
"338 375 CURVE SMOOTH",
"338 364 OFFCURVE",
"337 353 OFFCURVE",
"335 339 CURVE SMOOTH",
"328 294 LINE",
"243 294 LINE SMOOTH",
"182 294 OFFCURVE",
"85 281 OFFCURVE",
"36 218 CURVE SMOOTH",
"21 196 OFFCURVE",
"6 161 OFFCURVE",
"6 118 CURVE SMOOTH",
"6 79 OFFCURVE",
"21 48 OFFCURVE",
"44 29 CURVE SMOOTH",
"68 4 OFFCURVE",
"112 -10 OFFCURVE",
"159 -10 CURVE SMOOTH"
);
},
{
closed = 1;
nodes = (
"118 64 OFFCURVE",
"84 71 OFFCURVE",
"84 117 CURVE SMOOTH",
"84 121 OFFCURVE",
"84 126 OFFCURVE",
"85 132 CURVE SMOOTH",
"90 168 OFFCURVE",
"106 191 OFFCURVE",
"140 204 CURVE SMOOTH",
"165 217 OFFCURVE",
"202 222 OFFCURVE",
"237 222 CURVE SMOOTH",
"318 222 LINE",
"313 185 LINE SMOOTH",
"308 149 OFFCURVE",
"288 117 OFFCURVE",
"259 97 CURVE SMOOTH",
"232 73 OFFCURVE",
"195 64 OFFCURVE",
"156 64 CURVE SMOOTH"
);
},
{
closed = 1;
nodes = (
"409 307 OFFCURVE",
"429 351 OFFCURVE",
"460 384 CURVE SMOOTH",
"487 418 OFFCURVE",
"524 445 OFFCURVE",
"578 445 CURVE SMOOTH",
"625 445 OFFCURVE",
"667 424 OFFCURVE",
"667 374 CURVE SMOOTH",
"667 344 OFFCURVE",
"656 317 OFFCURVE",
"630 299 CURVE",
"601 275 OFFCURVE",
"551 267 OFFCURVE",
"504 267 CURVE SMOOTH",
"401 265 LINE"
);
}
);
width = 768;
},
{
anchors = (
{
name = bottom;
position = "{361, 0}";
},
{
name = top;
position = "{416, 506}";
}
);
layerId = "49C16FD3-6177-408B-A733-AEB3898BB77C";
paths = (
{
closed = 1;
nodes = (
"192 -9 OFFCURVE",
"234 3 OFFCURVE",
"267 22 CURVE SMOOTH",
"330 64 OFFCURVE",
"329 118 OFFCURVE",
"340 132 CURVE",
"353 71 OFFCURVE",
"373 45 OFFCURVE",
"405 24 CURVE SMOOTH",
"434 3 OFFCURVE",
"466 -9 OFFCURVE",
"523 -9 CURVE SMOOTH",
"561 -9 OFFCURVE",
"590 -4 OFFCURVE",
"627 8 CURVE SMOOTH",
"659 19 OFFCURVE",
"682 29 OFFCURVE",
"707 44 CURVE",
"691 76 LINE",
"667 65 OFFCURVE",
"638 53 OFFCURVE",
"612 44 CURVE SMOOTH",
"583 34 OFFCURVE",
"557 30 OFFCURVE",
"525 30 CURVE SMOOTH",
"468 30 OFFCURVE",
"432 45 OFFCURVE",
"407 70 CURVE",
"379 104 OFFCURVE",
"372 149 OFFCURVE",
"374 204 CURVE",
"503 205 LINE SMOOTH",
"531 205 OFFCURVE",
"562 208 OFFCURVE",
"588 213 CURVE SMOOTH",
"641 224 OFFCURVE",
"686 247 OFFCURVE",
"714 283 CURVE SMOOTH",
"732 310 OFFCURVE",
"742 338 OFFCURVE",
"742 376 CURVE SMOOTH",
"742 412 OFFCURVE",
"727 441 OFFCURVE",
"702 463 CURVE SMOOTH",
"674 491 OFFCURVE",
"630 505 OFFCURVE",
"581 505 CURVE SMOOTH",
"539 505 OFFCURVE",
"510 496 OFFCURVE",
"478 478 CURVE SMOOTH",
"446 456 OFFCURVE",
"418 429 OFFCURVE",
"389 380 CURVE",
"388 421 OFFCURVE",
"377 452 OFFCURVE",
"350 474 CURVE",
"332 494 OFFCURVE",
"308 505 OFFCURVE",
"257 505 CURVE SMOOTH",
"216 505 OFFCURVE",
"188 497 OFFCURVE",
"157 486 CURVE SMOOTH",
"125 474 OFFCURVE",
"102 462 OFFCURVE",
"81 446 CURVE",
"98 413 LINE",
"120 428 OFFCURVE",
"147 442 OFFCURVE",
"169 449 CURVE",
"187 457 OFFCURVE",
"223 466 OFFCURVE",
"258 466 CURVE SMOOTH",
"287 466 OFFCURVE",
"317 459 OFFCURVE",
"336 437 CURVE SMOOTH",
"346 422 OFFCURVE",
"351 403 OFFCURVE",
"351 378 CURVE SMOOTH",
"351 366 OFFCURVE",
"350 353 OFFCURVE",
"348 338 CURVE SMOOTH",
"339 272 LINE",
"232 272 LINE SMOOTH",
"169 272 OFFCURVE",
"76 259 OFFCURVE",
"30 199 CURVE",
"16 179 OFFCURVE",
"3 150 OFFCURVE",
"3 105 CURVE SMOOTH",
"3 70 OFFCURVE",
"16 45 OFFCURVE",
"36 28 CURVE SMOOTH",
"60 3 OFFCURVE",
"100 -9 OFFCURVE",
"146 -9 CURVE SMOOTH"
);
},
{
closed = 1;
nodes = (
"97 30 OFFCURVE",
"47 43 OFFCURVE",
"47 105 CURVE SMOOTH",
"47 154 OFFCURVE",
"70 196 OFFCURVE",
"117 217 CURVE SMOOTH",
"148 230 OFFCURVE",
"191 235 OFFCURVE",
"229 235 CURVE SMOOTH",
"334 235 LINE",
"326 176 LINE SMOOTH",
"320 134 OFFCURVE",
"297 94 OFFCURVE",
"263 69 CURVE SMOOTH",
"229 42 OFFCURVE",
"184 30 OFFCURVE",
"141 30 CURVE SMOOTH"
);
},
{
closed = 1;
nodes = (
"382 296 OFFCURVE",
"408 355 OFFCURVE",
"447 399 CURVE SMOOTH",
"477 437 OFFCURVE",
"524 469 OFFCURVE",
"586 469 CURVE SMOOTH",
"643 469 OFFCURVE",
"698 442 OFFCURVE",
"698 376 CURVE SMOOTH",
"698 345 OFFCURVE",
"687 307 OFFCURVE",
"652 282 CURVE SMOOTH",
"616 253 OFFCURVE",
"557 244 OFFCURVE",
"506 244 CURVE SMOOTH",
"377 243 LINE"
);
}
);
width = 759;
}
);
leftKerningGroup = o;
rightKerningGroup = c;
unicode = 00E6;
userData = {
position = 687;
width = 57;
};
},
{
color = 1;
glyphname = b;
layers = (
{
layerId = "873CAA12-270D-4223-A88E-AE8E101FDBE8";
paths = (
{
closed = 1;
nodes = (
"379 -10 OFFCURVE",
"464 108 OFFCURVE",
"483 245 CURVE SMOOTH",
"486 264 OFFCURVE",
"487 282 OFFCURVE",
"487 299 CURVE SMOOTH",
"487 424 OFFCURVE",
"419 508 OFFCURVE",
"305 508 CURVE SMOOTH",
"249 508 OFFCURVE",
"188 487 OFFCURVE",
"146 434 CURVE",
"188 726 LINE",
"133 726 LINE",
"33 10 LINE",
"51 4 OFFCURVE",
"86 -2 OFFCURVE",
"103 -4 CURVE SMOOTH",
"132 -8 OFFCURVE",
"173 -10 OFFCURVE",
"199 -10 CURVE SMOOTH"
);
},
{
closed = 1;
nodes = (
"185 42 OFFCURVE",
"162 43 OFFCURVE",
"143 45 CURVE SMOOTH",
"93 51 LINE",
"132 326 LINE",
"140 364 OFFCURVE",
"162 397 OFFCURVE",
"201 422 CURVE SMOOTH",
"230 443 OFFCURVE",
"267 456 OFFCURVE",
"303 456 CURVE SMOOTH",
"376 456 OFFCURVE",
"431 401 OFFCURVE",
"431 299 CURVE SMOOTH",
"431 285 OFFCURVE",
"429 269 OFFCURVE",
"427 252 CURVE SMOOTH",
"412 142 OFFCURVE",
"350 42 OFFCURVE",
"198 42 CURVE SMOOTH"
);
}
);
width = 514;
},
{
layerId = "0CAF3BED-C4AC-4024-B3E1-4C69D1EF7EC0";
paths = (
{
closed = 1;
nodes = (
"386 -10 OFFCURVE",
"474 113 OFFCURVE",
"493 249 CURVE SMOOTH",
"495 267 OFFCURVE",
"497 284 OFFCURVE",
"497 300 CURVE SMOOTH",
"497 427 OFFCURVE",
"427 516 OFFCURVE",
"310 516 CURVE SMOOTH",
"264 516 OFFCURVE",
"212 501 OFFCURVE",
"170 465 CURVE",
"208 727 LINE",
"132 727 LINE",
"34 14 LINE",
"48 7 OFFCURVE",
"90 -2 OFFCURVE",
"110 -4 CURVE SMOOTH",
"138 -8 OFFCURVE",
"179 -10 OFFCURVE",
"204 -10 CURVE SMOOTH"
);
},
{
closed = 1;
nodes = (
"194 63 OFFCURVE",
"173 64 OFFCURVE",
"154 67 CURVE",
"116 71 LINE",
"152 326 LINE",
"160 361 OFFCURVE",
"178 388 OFFCURVE",
"216 411 CURVE SMOOTH",
"241 430 OFFCURVE",
"272 442 OFFCURVE",
"305 442 CURVE SMOOTH",
"370 442 OFFCURVE",
"419 392 OFFCURVE",
"419 299 CURVE SMOOTH",
"419 286 OFFCURVE",
"418 271 OFFCURVE",
"416 256 CURVE SMOOTH",
"401 153 OFFCURVE",
"345 64 OFFCURVE",
"206 64 CURVE"
);
}
);
width = 522;
},
{
anchors = (
{
name = bottom;
position = "{246, 0}";
},
{
name = top;
position = "{316, 500}";
}
);
layerId = "49C16FD3-6177-408B-A733-AEB3898BB77C";
paths = (
{
closed = 1;
nodes = (
"375 -9 OFFCURVE",
"458 107 OFFCURVE",
"477 246 CURVE SMOOTH",
"480 265 OFFCURVE",
"481 284 OFFCURVE",
"481 302 CURVE SMOOTH",
"481 425 OFFCURVE",
"416 505 OFFCURVE",
"304 505 CURVE SMOOTH",
"239 505 OFFCURVE",
"172 478 OFFCURVE",
"130 409 CURVE",
"175 727 LINE",
"133 727 LINE",
"33 10 LINE",
"52 4 OFFCURVE",
"82 -1 OFFCURVE",
"96 -3 CURVE SMOOTH",
"127 -7 OFFCURVE",
"169 -9 OFFCURVE",
"194 -9 CURVE SMOOTH"
);
},
{
closed = 1;
nodes = (
"180 30 OFFCURVE",
"156 31 OFFCURVE",
"137 33 CURVE SMOOTH",
"78 40 LINE",
"119 328 LINE",
"128 368 OFFCURVE",
"152 404 OFFCURVE",
"193 430 CURVE SMOOTH",
"223 452 OFFCURVE",
"262 466 OFFCURVE",
"299 466 CURVE SMOOTH",
"379 466 OFFCURVE",
"438 408 OFFCURVE",
"438 299 CURVE SMOOTH",
"438 283 OFFCURVE",
"437 267 OFFCURVE",
"434 249 CURVE SMOOTH",
"418 136 OFFCURVE",
"353 30 OFFCURVE",
"194 30 CURVE SMOOTH"
);
}
);
width = 508;
}
);
rightKerningGroup = o;
unicode = 0062;
userData = {
position = 415;
width = 57;
};
},
{
color = 1;
glyphname = c;
layers = (
{
anchors = (
{
name = bottom;
position = "{214, 0}";
},
{
name = top;
position = "{282, 500}";
}
);
layerId = "873CAA12-270D-4223-A88E-AE8E101FDBE8";
paths = (
{
closed = 1;
nodes = (
"286 -6 OFFCURVE",
"348 11 OFFCURVE",
"413 51 CURVE",
"390 95 LINE",
"338 69 OFFCURVE",
"284 46 OFFCURVE",
"223 46 CURVE SMOOTH",
"131 46 OFFCURVE",
"81 99 OFFCURVE",
"81 191 CURVE SMOOTH",
"81 204 OFFCURVE",
"82 218 OFFCURVE",
"84 233 CURVE SMOOTH",
"99 340 OFFCURVE",
"166 463 OFFCURVE",
"286 463 CURVE SMOOTH",
"341 463 OFFCURVE",
"388 436 OFFCURVE",
"388 378 CURVE SMOOTH",
"388 373 OFFCURVE",
"388 367 OFFCURVE",
"387 362 CURVE",
"443 358 LINE",
"444 365 OFFCURVE",
"444 372 OFFCURVE",
"444 378 CURVE SMOOTH",
"444 460 OFFCURVE",
"370 512 OFFCURVE",
"281 512 CURVE SMOOTH",
"147 512 OFFCURVE",
"50 393 OFFCURVE",
"29 242 CURVE SMOOTH",
"26 224 OFFCURVE",
"25 206 OFFCURVE",
"25 189 CURVE SMOOTH",
"25 71 OFFCURVE",
"90 -6 OFFCURVE",
"224 -6 CURVE SMOOTH"
);
}
);
width = 458;
},
{
anchors = (
{
name = bottom;
position = "{219, 11}";
},
{
name = top;
position = "{286, 496}";
}
);
layerId = "0CAF3BED-C4AC-4024-B3E1-4C69D1EF7EC0";
paths = (
{
closed = 1;
nodes = (
"293 -6 OFFCURVE",
"362 13 OFFCURVE",
"429 57 CURVE",
"396 119 LINE",
"342 91 OFFCURVE",
"290 67 OFFCURVE",
"230 67 CURVE SMOOTH",
"147 67 OFFCURVE",
"102 114 OFFCURVE",
"102 198 CURVE SMOOTH",
"102 210 OFFCURVE",
"103 223 OFFCURVE",
"105 237 CURVE SMOOTH",
"119 337 OFFCURVE",
"182 449 OFFCURVE",
"288 449 CURVE SMOOTH",
"337 449 OFFCURVE",
"376 425 OFFCURVE",
"376 377 CURVE SMOOTH",
"376 369 OFFCURVE",
"375 360 OFFCURVE",
"373 351 CURVE",
"452 347 LINE",
"454 358 OFFCURVE",
"455 369 OFFCURVE",
"455 379 CURVE SMOOTH",
"455 465 OFFCURVE",
"376 519 OFFCURVE",
"286 519 CURVE SMOOTH",
"150 519 OFFCURVE",
"50 396 OFFCURVE",
"28 246 CURVE SMOOTH",
"26 229 OFFCURVE",
"25 212 OFFCURVE",
"25 196 CURVE SMOOTH",
"25 75 OFFCURVE",
"92 -6 OFFCURVE",
"228 -6 CURVE SMOOTH"
);
}
);
width = 473;
},
{
anchors = (
{
name = bottom;
position = "{212, -6}";
},
{
name = top;
position = "{282, 504}";
}
);
layerId = "49C16FD3-6177-408B-A733-AEB3898BB77C";
paths = (
{
closed = 1;
nodes = (
"283 -5 OFFCURVE",
"343 11 OFFCURVE",
"406 48 CURVE",
"389 81 LINE",
"337 56 OFFCURVE",
"284 34 OFFCURVE",
"223 34 CURVE SMOOTH",
"126 34 OFFCURVE",
"70 93 OFFCURVE",
"70 191 CURVE SMOOTH",
"70 204 OFFCURVE",
"71 219 OFFCURVE",
"73 234 CURVE SMOOTH",
"88 343 OFFCURVE",
"158 473 OFFCURVE",
"284 473 CURVE SMOOTH",
"346 473 OFFCURVE",
"403 439 OFFCURVE",
"397 369 CURVE",
"439 367 LINE",
"439 372 OFFCURVE",
"440 377 OFFCURVE",
"440 381 CURVE SMOOTH",
"440 461 OFFCURVE",
"368 509 OFFCURVE",
"281 509 CURVE SMOOTH",
"147 509 OFFCURVE",
"52 392 OFFCURVE",
"30 239 CURVE SMOOTH",
"28 221 OFFCURVE",
"26 203 OFFCURVE",
"26 186 CURVE SMOOTH",
"26 69 OFFCURVE",
"89 -5 OFFCURVE",
"221 -5 CURVE SMOOTH"
);
}
);
width = 450;
}
);
leftKerningGroup = o;
rightKerningGroup = c;
unicode = 0063;
userData = {
position = 382;
width = 57;
};
},
{
color = 1;
glyphname = c.ss02;
layers = (
{
anchors = (
{
name = bottom;
position = "{215, 0}";
},
{
name = top;
position = "{283, 500}";
}
);
layerId = "873CAA12-270D-4223-A88E-AE8E101FDBE8";
paths = (
{
closed = 1;
nodes = (
"287 -7 OFFCURVE",
"358 16 OFFCURVE",
"414 51 CURVE",
"391 95 LINE",
"342 70 OFFCURVE",
"286 46 OFFCURVE",
"224 46 CURVE SMOOTH",
"131 46 OFFCURVE",
"82 102 OFFCURVE",
"82 195 CURVE SMOOTH",
"82 208 OFFCURVE",
"83 221 OFFCURVE",
"85 236 CURVE SMOOTH",
"100 343 OFFCURVE",
"168 463 OFFCURVE",
"294 463 CURVE SMOOTH",
"340 463 OFFCURVE",
"368 446 OFFCURVE",
"392 417 CURVE",
"434 451 LINE",
"418 466 OFFCURVE",
"384 513 OFFCURVE",
"293 513 CURVE SMOOTH",
"150 513 OFFCURVE",
"51 396 OFFCURVE",
"30 247 CURVE SMOOTH",
"27 229 OFFCURVE",
"26 212 OFFCURVE",
"26 195 CURVE SMOOTH",
"26 74 OFFCURVE",
"93 -7 OFFCURVE",
"220 -7 CURVE SMOOTH"
);
}
);
width = 449;
},
{
anchors = (
{
name = bottom;
position = "{220, 11}";
},
{
name = top;
position = "{287, 496}";
}
);
layerId = "0CAF3BED-C4AC-4024-B3E1-4C69D1EF7EC0";
paths = (
{
closed = 1;
nodes = (
"295 -7 OFFCURVE",
"374 19 OFFCURVE",
"430 57 CURVE",
"397 119 LINE",
"346 93 OFFCURVE",
"293 67 OFFCURVE",
"231 67 CURVE SMOOTH",
"148 67 OFFCURVE",
"104 117 OFFCURVE",
"104 201 CURVE SMOOTH",
"104 213 OFFCURVE",
"105 226 OFFCURVE",
"107 240 CURVE SMOOTH",
"121 339 OFFCURVE",
"183 449 OFFCURVE",
"296 449 CURVE SMOOTH",
"342 449 OFFCURVE",
"365 432 OFFCURVE",
"390 400 CURVE",
"442 441 LINE",
"440 457 LINE",
"426 471 OFFCURVE",
"392 520 OFFCURVE",
"298 520 CURVE SMOOTH",
"153 520 OFFCURVE",
"50 399 OFFCURVE",
"29 251 CURVE SMOOTH",
"27 234 OFFCURVE",
"25 217 OFFCURVE",
"25 201 CURVE SMOOTH",
"25 78 OFFCURVE",
"96 -7 OFFCURVE",
"224 -7 CURVE SMOOTH"
);
}
);
width = 464;
},
{
anchors = (
{
name = bottom;
position = "{211, -6}";
},
{
name = top;
position = "{281, 504}";
}
);
layerId = "49C16FD3-6177-408B-A733-AEB3898BB77C";
paths = (
{
closed = 1;
nodes = (
"281 -6 OFFCURVE",
"350 15 OFFCURVE",
"405 48 CURVE",
"388 81 LINE",
"338 57 OFFCURVE",
"284 34 OFFCURVE",
"222 34 CURVE SMOOTH",
"123 34 OFFCURVE",
"69 96 OFFCURVE",
"69 195 CURVE SMOOTH",
"69 208 OFFCURVE",
"70 222 OFFCURVE",
"72 237 CURVE SMOOTH",
"87 346 OFFCURVE",
"158 473 OFFCURVE",
"290 473 CURVE SMOOTH",
"338 473 OFFCURVE",
"369 457 OFFCURVE",
"394 429 CURVE",
"424 454 LINE",
"406 473 OFFCURVE",
"372 510 OFFCURVE",
"292 510 CURVE SMOOTH",
"149 510 OFFCURVE",
"50 395 OFFCURVE",
"29 244 CURVE SMOOTH",
"26 226 OFFCURVE",
"25 208 OFFCURVE",
"25 191 CURVE SMOOTH",
"25 72 OFFCURVE",
"90 -6 OFFCURVE",
"215 -6 CURVE SMOOTH"
);
}
);
width = 439;
}
);
leftKerningGroup = o;
rightKerningGroup = c;
userData = {
position = 382;
width = 57;
};
},
{
color = 1;
glyphname = d;
layers = (
{
anchors = (
{
name = center;
position = "{444, 604}";
}
);
layerId = "873CAA12-270D-4223-A88E-AE8E101FDBE8";
paths = (
{
closed = 1;
nodes = (
"273 -10 OFFCURVE",
"331 13 OFFCURVE",
"371 69 CURVE",
"370 26 OFFCURVE",
"404 -10 OFFCURVE",
"452 -10 CURVE SMOOTH",
"476 -10 OFFCURVE",
"506 0 OFFCURVE",
"528 29 CURVE",
"486 62 LINE",
"477 51 OFFCURVE",
"465 45 OFFCURVE",
"452 45 CURVE SMOOTH",
"434 45 OFFCURVE",
"422 60 OFFCURVE",
"425 78 CURVE SMOOTH",
"516 727 LINE",
"461 727 LINE",
"427 499 LINE",
"392 504 OFFCURVE",
"338 508 OFFCURVE",
"306 508 CURVE SMOOTH",
"155 508 OFFCURVE",
"51 401 OFFCURVE",
"30 250 CURVE SMOOTH",
"27 232 OFFCURVE",
"26 215 OFFCURVE",
"26 198 CURVE SMOOTH",
"26 82 OFFCURVE",
"87 -10 OFFCURVE",
"212 -10 CURVE SMOOTH"
);
},
{
closed = 1;
nodes = (
"123 42 OFFCURVE",
"83 111 OFFCURVE",
"83 201 CURVE SMOOTH",
"83 216 OFFCURVE",
"85 232 OFFCURVE",
"87 249 CURVE SMOOTH",
"103 367 OFFCURVE",
"171 456 OFFCURVE",
"328 456 CURVE SMOOTH",
"373 456 OFFCURVE",
"403 448 OFFCURVE",
"424 446 CURVE",
"386 190 LINE SMOOTH",
"382 165 OFFCURVE",
"373 143 OFFCURVE",
"361 126 CURVE SMOOTH",
"329 74 OFFCURVE",
"274 42 OFFCURVE",
"212 42 CURVE SMOOTH"
);
}
);
width = 560;
},
{
anchors = (
{
name = center;
position = "{265, 11}";
}
);
layerId = "0CAF3BED-C4AC-4024-B3E1-4C69D1EF7EC0";
paths = (
{
closed = 1;
nodes = (
"269 -10 OFFCURVE",
"323 7 OFFCURVE",
"364 51 CURVE",
"374 18 OFFCURVE",
"407 -10 OFFCURVE",
"449 -10 CURVE SMOOTH",
"477 -10 OFFCURVE",
"516 3 OFFCURVE",
"540 42 CURVE",
"480 89 LINE",
"471 72 OFFCURVE",
"465 66 OFFCURVE",
"452 66 CURVE SMOOTH",
"443 66 OFFCURVE",
"436 75 OFFCURVE",
"436 85 CURVE SMOOTH",
"436 87 LINE",
"526 728 LINE",
"449 728 LINE",
"416 508 LINE",
"383 512 OFFCURVE",
"338 516 OFFCURVE",
"310 516 CURVE SMOOTH",
"159 516 OFFCURVE",
"51 404 OFFCURVE",
"30 254 CURVE SMOOTH",
"28 237 OFFCURVE",
"26 220 OFFCURVE",
"26 203 CURVE SMOOTH",
"26 86 OFFCURVE",
"89 -10 OFFCURVE",
"216 -10 CURVE SMOOTH"
);
},
{
closed = 1;
nodes = (
"141 64 OFFCURVE",
"105 125 OFFCURVE",
"105 209 CURVE SMOOTH",
"105 223 OFFCURVE",
"106 238 OFFCURVE",
"108 253 CURVE SMOOTH",
"124 362 OFFCURVE",
"185 442 OFFCURVE",
"329 442 CURVE SMOOTH",
"364 442 OFFCURVE",
"390 436 OFFCURVE",
"410 433 CURVE",
"374 195 LINE SMOOTH",
"371 173 OFFCURVE",
"364 155 OFFCURVE",
"353 141 CURVE SMOOTH",
"324 93 OFFCURVE",
"278 64 OFFCURVE",
"222 64 CURVE SMOOTH"
);
}
);
width = 572;
},
{
anchors = (
{
name = bottom;
position = "{260, 0}";
},
{
name = center;
position = "{451, 605}";
},
{
name = top;
position = "{330, 500}";
},
{
name = topright;
position = "{612, 500}";
}
);
layerId = "49C16FD3-6177-408B-A733-AEB3898BB77C";
paths = (
{
closed = 1;
nodes = (
"281 -9 OFFCURVE",
"344 21 OFFCURVE",
"382 96 CURVE",
"378 79 LINE SMOOTH",
"377 75 OFFCURVE",
"377 70 OFFCURVE",
"377 66 CURVE SMOOTH",
"377 23 OFFCURVE",
"408 -9 OFFCURVE",
"454 -9 CURVE SMOOTH",
"476 -9 OFFCURVE",
"501 -2 OFFCURVE",
"522 22 CURVE",
"488 47 LINE",
"479 38 OFFCURVE",
"468 33 OFFCURVE",
"456 33 CURVE SMOOTH",
"433 33 OFFCURVE",
"416 53 OFFCURVE",
"419 75 CURVE SMOOTH",
"511 728 LINE",
"469 728 LINE",
"435 495 LINE",
"400 500 OFFCURVE",
"340 505 OFFCURVE",
"307 505 CURVE SMOOTH",
"155 505 OFFCURVE",
"52 399 OFFCURVE",
"31 247 CURVE SMOOTH",
"28 229 OFFCURVE",
"27 211 OFFCURVE",
"27 194 CURVE SMOOTH",
"27 79 OFFCURVE",
"86 -9 OFFCURVE",
"209 -9 CURVE SMOOTH"
);
},
{
closed = 1;
nodes = (
"115 30 OFFCURVE",
"72 106 OFFCURVE",
"72 202 CURVE SMOOTH",
"72 217 OFFCURVE",
"73 234 OFFCURVE",
"75 250 CURVE SMOOTH",
"92 371 OFFCURVE",
"163 466 OFFCURVE",
"326 466 CURVE SMOOTH",
"379 466 OFFCURVE",
"412 456 OFFCURVE",
"432 456 CURVE",
"393 187 LINE SMOOTH",
"389 160 OFFCURVE",
"380 137 OFFCURVE",
"368 119 CURVE",
"335 64 OFFCURVE",
"274 30 OFFCURVE",
"210 30 CURVE SMOOTH"
);
}
);
width = 555;
}
);
leftKerningGroup = o;
leftMetricsKey = c;
rightKerningGroup = m;
unicode = 0064;
userData = {
position = 404;
width = 55;
};
},
{
color = 1;
glyphname = d.ss02;
layers = (
{
anchors = (
{
name = center;
position = "{444, 604}";
}
);
layerId = "873CAA12-270D-4223-A88E-AE8E101FDBE8";
paths = (
{
closed = 1;
nodes = (
"270 -10 OFFCURVE",
"337 14 OFFCURVE",
"378 79 CURVE",
"380 46 OFFCURVE",
"393 14 OFFCURVE",
"419 -7 CURVE",
"456 24 LINE",
"439 45 OFFCURVE",
"431 72 OFFCURVE",
"431 105 CURVE SMOOTH",
"431 116 OFFCURVE",
"432 129 OFFCURVE",
"434 142 CURVE SMOOTH",
"516 727 LINE",
"461 727 LINE",
"427 499 LINE",
"392 504 OFFCURVE",
"338 508 OFFCURVE",
"305 508 CURVE SMOOTH",
"152 508 OFFCURVE",
"51 399 OFFCURVE",
"30 250 CURVE SMOOTH",
"28 233 OFFCURVE",
"26 216 OFFCURVE",
"26 199 CURVE SMOOTH",
"26 83 OFFCURVE",
"88 -10 OFFCURVE",
"210 -10 CURVE SMOOTH"
);
},
{
closed = 1;
nodes = (
"124 42 OFFCURVE",
"83 113 OFFCURVE",
"83 202 CURVE SMOOTH",
"83 216 OFFCURVE",
"84 230 OFFCURVE",
"86 245 CURVE SMOOTH",
"103 363 OFFCURVE",
"183 456 OFFCURVE",
"297 456 CURVE SMOOTH",
"323 456 OFFCURVE",
"343 456 OFFCURVE",
"424 446 CURVE",
"386 190 LINE SMOOTH",
"382 165 OFFCURVE",
"373 143 OFFCURVE",
"361 126 CURVE SMOOTH",
"331 76 OFFCURVE",
"276 42 OFFCURVE",
"213 42 CURVE SMOOTH"
);
}
);
width = 523;
},
{
anchors = (
{
name = center;
position = "{433, 606}";
}
);
layerId = "0CAF3BED-C4AC-4024-B3E1-4C69D1EF7EC0";
paths = (
{
closed = 1;
nodes = (
"471 34 LINE",
"451 53 OFFCURVE",
"442 78 OFFCURVE",
"442 112 CURVE SMOOTH",
"442 123 OFFCURVE",
"443 135 OFFCURVE",
"445 149 CURVE SMOOTH",
"526 728 LINE",
"449 728 LINE",
"416 508 LINE",
"383 512 OFFCURVE",
"338 516 OFFCURVE",
"309 516 CURVE SMOOTH",
"156 516 OFFCURVE",
"50 402 OFFCURVE",
"30 254 CURVE SMOOTH",
"28 237 OFFCURVE",
"26 220 OFFCURVE",
"26 204 CURVE SMOOTH",
"26 86 OFFCURVE",
"89 -10 OFFCURVE",
"214 -10 CURVE SMOOTH",
"267 -10 OFFCURVE",
"328 8 OFFCURVE",
"372 59 CURVE",
"379 33 OFFCURVE",
"394 6 OFFCURVE",
"418 -11 CURVE"
);
},
{
closed = 1;
nodes = (
"142 64 OFFCURVE",
"105 127 OFFCURVE",
"105 208 CURVE SMOOTH",
"105 221 OFFCURVE",
"106 235 OFFCURVE",
"108 249 CURVE SMOOTH",
"123 357 OFFCURVE",
"196 442 OFFCURVE",
"299 442 CURVE SMOOTH",
"323 442 OFFCURVE",
"341 442 OFFCURVE",
"410 433 CURVE",
"374 195 LINE SMOOTH",
"371 173 OFFCURVE",
"364 155 OFFCURVE",
"353 141 CURVE SMOOTH",
"325 94 OFFCURVE",
"278 64 OFFCURVE",
"220 64 CURVE SMOOTH"
);
}
);
width = 532;
},
{
anchors = (
{
name = bottom;
position = "{207, -9}";
},
{
name = center;
position = "{451, 605}";
},
{
name = top;
position = "{306, 505}";
},
{
name = topright;
position = "{539, 500}";
}
);
layerId = "49C16FD3-6177-408B-A733-AEB3898BB77C";
paths = (
{
closed = 1;
nodes = (
"274 -9 OFFCURVE",
"344 19 OFFCURVE",
"383 94 CURVE",
"385 56 OFFCURVE",
"395 20 OFFCURVE",
"421 -4 CURVE",
"448 19 LINE",
"433 40 OFFCURVE",
"426 69 OFFCURVE",
"426 102 CURVE SMOOTH",
"426 114 OFFCURVE",
"427 127 OFFCURVE",
"429 140 CURVE SMOOTH",
"511 728 LINE",
"469 728 LINE",
"435 495 LINE",
"400 500 OFFCURVE",
"340 505 OFFCURVE",
"306 505 CURVE SMOOTH",
"152 505 OFFCURVE",
"52 397 OFFCURVE",
"31 247 CURVE SMOOTH",
"28 229 OFFCURVE",
"27 212 OFFCURVE",
"27 195 CURVE SMOOTH",
"27 80 OFFCURVE",
"87 -9 OFFCURVE",
"207 -9 CURVE SMOOTH"
);
},
{
closed = 1;
nodes = (
"115 30 OFFCURVE",
"71 108 OFFCURVE",
"71 203 CURVE SMOOTH",
"71 217 OFFCURVE",
"72 231 OFFCURVE",
"74 246 CURVE SMOOTH",
"92 368 OFFCURVE",
"176 466 OFFCURVE",
"295 466 CURVE SMOOTH",
"323 466 OFFCURVE",
"344 466 OFFCURVE",
"432 455 CURVE",
"393 187 LINE SMOOTH",
"389 160 OFFCURVE",
"380 137 OFFCURVE",
"368 119 CURVE SMOOTH",
"336 67 OFFCURVE",
"277 30 OFFCURVE",
"211 30 CURVE SMOOTH"
);
}
);
width = 519;
}
);
leftKerningGroup = o;
leftMetricsKey = d;
rightKerningGroup = a.2;
userData = {
position = 414;
width = 55;
};
},
{
color = 1;
glyphname = eth;
layers = (
{
layerId = "873CAA12-270D-4223-A88E-AE8E101FDBE8";
paths = (
{
closed = 1;
nodes = (
"378 -10 OFFCURVE",
"473 86 OFFCURVE",
"496 252 CURVE SMOOTH",
"498 269 OFFCURVE",
"500 284 OFFCURVE",
"500 301 CURVE SMOOTH",
"500 352 OFFCURVE",
"487 416 OFFCURVE",
"454 588 CURVE",
"552 619 LINE",
"545 674 LINE",
"442 644 LINE",
"419 748 LINE",
"358 730 LINE",
"384 626 LINE",
"289 596 LINE",
"296 541 LINE",
"395 571 LINE",
"408 497 LINE",
"375 503 OFFCURVE",
"333 508 OFFCURVE",
"300 508 CURVE SMOOTH",
"154 508 OFFCURVE",
"51 397 OFFCURVE",
"30 250 CURVE SMOOTH",
"28 233 OFFCURVE",
"26 217 OFFCURVE",
"26 201 CURVE SMOOTH",
"26 78 OFFCURVE",
"99 -10 OFFCURVE",
"236 -10 CURVE SMOOTH"
);
},
{
closed = 1;
nodes = (
"136 42 OFFCURVE",
"84 104 OFFCURVE",
"84 202 CURVE SMOOTH",
"84 217 OFFCURVE",
"85 232 OFFCURVE",
"87 248 CURVE SMOOTH",
"105 375 OFFCURVE",
"183 455 OFFCURVE",
"322 455 CURVE SMOOTH",
"361 455 OFFCURVE",
"379 448 OFFCURVE",
"423 442 CURVE",
"436 381 OFFCURVE",
"441 336 OFFCURVE",
"441 297 CURVE SMOOTH",
"441 279 OFFCURVE",
"440 263 OFFCURVE",
"438 247 CURVE SMOOTH",
"421 126 OFFCURVE",
"352 42 OFFCURVE",
"235 42 CURVE SMOOTH"
);
}
);
width = 532;
},
{
layerId = "0CAF3BED-C4AC-4024-B3E1-4C69D1EF7EC0";
paths = (
{
closed = 1;
nodes = (
"382 -10 OFFCURVE",
"482 90 OFFCURVE",
"505 255 CURVE SMOOTH",
"507 271 OFFCURVE",
"508 286 OFFCURVE",
"508 301 CURVE SMOOTH",
"508 351 OFFCURVE",
"496 412 OFFCURVE",
"464 573 CURVE",
"560 604 LINE",
"550 680 LINE",
"449 650 LINE",
"426 751 LINE",
"346 727 LINE",
"371 626 LINE",
"280 597 LINE",
"289 521 LINE",
"386 550 LINE",
"393 508 LINE",
"364 512 OFFCURVE",
"331 516 OFFCURVE",
"304 516 CURVE SMOOTH",
"157 516 OFFCURVE",
"50 400 OFFCURVE",
"30 254 CURVE SMOOTH",
"28 238 OFFCURVE",
"27 221 OFFCURVE",
"27 206 CURVE SMOOTH",
"27 82 OFFCURVE",
"100 -10 OFFCURVE",
"239 -10 CURVE SMOOTH"
);
},
{
closed = 1;
nodes = (
"151 64 OFFCURVE",
"104 120 OFFCURVE",
"104 210 CURVE SMOOTH",
"104 223 OFFCURVE",
"105 237 OFFCURVE",
"107 252 CURVE SMOOTH",
"124 369 OFFCURVE",
"195 441 OFFCURVE",
"323 441 CURVE SMOOTH",
"356 441 OFFCURVE",
"373 435 OFFCURVE",
"413 430 CURVE",
"424 377 OFFCURVE",
"429 337 OFFCURVE",
"429 301 CURVE SMOOTH",
"429 284 OFFCURVE",
"427 267 OFFCURVE",
"425 251 CURVE SMOOTH",
"409 139 OFFCURVE",
"347 64 OFFCURVE",
"241 64 CURVE SMOOTH"
);
}
);
width = 538;
},
{
layerId = "49C16FD3-6177-408B-A733-AEB3898BB77C";
paths = (
{
closed = 1;
nodes = (
"376 -9 OFFCURVE",
"469 85 OFFCURVE",
"492 253 CURVE SMOOTH",
"494 270 OFFCURVE",
"496 285 OFFCURVE",
"496 301 CURVE SMOOTH",
"496 352 OFFCURVE",
"483 418 OFFCURVE",
"447 598 CURVE",
"548 630 LINE",
"542 672 LINE",
"439 642 LINE",
"415 748 LINE",
"368 734 LINE",
"393 628 LINE",
"296 597 LINE",
"301 555 LINE",
"402 585 LINE",
"420 492 LINE",
"384 499 OFFCURVE",
"337 505 OFFCURVE",
"301 505 CURVE SMOOTH",
"154 505 OFFCURVE",
"51 395 OFFCURVE",
"31 247 CURVE SMOOTH",
"29 230 OFFCURVE",
"27 213 OFFCURVE",
"27 197 CURVE SMOOTH",
"27 75 OFFCURVE",
"98 -9 OFFCURVE",
"234 -9 CURVE SMOOTH"
);
},
{
closed = 1;
nodes = (
"128 30 OFFCURVE",
"72 99 OFFCURVE",
"72 203 CURVE SMOOTH",
"72 218 OFFCURVE",
"73 233 OFFCURVE",
"75 249 CURVE SMOOTH",
"93 380 OFFCURVE",
"176 465 OFFCURVE",
"320 465 CURVE SMOOTH",
"364 465 OFFCURVE",
"382 457 OFFCURVE",
"430 451 CURVE",
"443 387 OFFCURVE",
"450 339 OFFCURVE",
"450 297 CURVE SMOOTH",
"450 279 OFFCURVE",
"448 261 OFFCURVE",
"446 244 CURVE SMOOTH",
"429 119 OFFCURVE",
"356 30 OFFCURVE",
"234 30 CURVE SMOOTH"
);
}
);
width = 527;
}
);
leftKerningGroup = o;
leftMetricsKey = c;
rightKerningGroup = m;
unicode = 00F0;
userData = {
position = 465;
width = 58;
};
},
{
color = 1;
glyphname = e;
layers = (
{
anchors = (
{
name = bottom;
position = "{215, 0}";
},
{
name = ogonek;
position = "{412, 48}";
},
{
name = top;
position = "{283, 508}";
}
);
layerId = "873CAA12-270D-4223-A88E-AE8E101FDBE8";
paths = (
{
closed = 1;
nodes = (
"291 -10 OFFCURVE",
"356 12 OFFCURVE",
"412 47 CURVE",
"390 91 LINE",
"337 65 OFFCURVE",
"285 42 OFFCURVE",
"221 42 CURVE SMOOTH",
"122 42 OFFCURVE",
"80 97 OFFCURVE",
"83 198 CURVE",
"203 200 LINE SMOOTH",
"346 200 OFFCURVE",
"444 260 OFFCURVE",
"444 373 CURVE SMOOTH",
"444 457 OFFCURVE",
"374 508 OFFCURVE",
"282 508 CURVE SMOOTH",
"127 508 OFFCURVE",
"46 361 OFFCURVE",
"28 234 CURVE SMOOTH",
"25 216 OFFCURVE",
"24 199 OFFCURVE",
"24 183 CURVE SMOOTH",
"24 71 OFFCURVE",
"85 -10 OFFCURVE",
"221 -10 CURVE SMOOTH"
);
},
{
closed = 1;
nodes = (
"98 331 OFFCURVE",
"164 459 OFFCURVE",
"286 459 CURVE SMOOTH",
"340 459 OFFCURVE",
"388 433 OFFCURVE",
"388 376 CURVE SMOOTH",
"388 370 OFFCURVE",
"388 365 OFFCURVE",
"387 359 CURVE SMOOTH",
"376 280 OFFCURVE",
"300 252 OFFCURVE",
"206 252 CURVE SMOOTH",
"87 250 LINE"
);
}
);
width = 464;
},
{
anchors = (
{
name = bottom;
position = "{220, 11}";
},
{
name = ogonek;
position = "{411, 58}";
},
{
name = top;
position = "{287, 504}";
}
);
layerId = "0CAF3BED-C4AC-4024-B3E1-4C69D1EF7EC0";
paths = (
{
closed = 1;
nodes = (
"299 -10 OFFCURVE",
"370 15 OFFCURVE",
"428 53 CURVE",
"395 115 LINE",
"340 87 OFFCURVE",
"291 64 OFFCURVE",
"228 64 CURVE SMOOTH",
"144 64 OFFCURVE",
"106 107 OFFCURVE",
"104 191 CURVE",
"207 193 LINE SMOOTH",
"350 193 OFFCURVE",
"454 257 OFFCURVE",
"454 374 CURVE SMOOTH",
"454 461 OFFCURVE",
"380 516 OFFCURVE",
"287 516 CURVE SMOOTH",
"129 516 OFFCURVE",
"45 364 OFFCURVE",
"27 238 CURVE SMOOTH",
"25 222 OFFCURVE",
"24 206 OFFCURVE",
"24 190 CURVE SMOOTH",
"24 76 OFFCURVE",
"86 -10 OFFCURVE",
"225 -10 CURVE SMOOTH"
);
},
{
closed = 1;
nodes = (
"125 339 OFFCURVE",
"185 445 OFFCURVE",
"288 445 CURVE SMOOTH",
"335 445 OFFCURVE",
"377 422 OFFCURVE",
"377 374 CURVE SMOOTH",
"377 297 OFFCURVE",
"307 267 OFFCURVE",
"213 267 CURVE SMOOTH",
"110 265 LINE"
);
}
);
width = 477;
},
{
anchors = (
{
name = bottom;
position = "{212, -6}";
},
{
name = ogonek;
position = "{413, 36}";
},
{
name = top;
position = "{282, 512}";
}
);
layerId = "49C16FD3-6177-408B-A733-AEB3898BB77C";
paths = (
{
closed = 1;
nodes = (
"287 -9 OFFCURVE",
"348 11 OFFCURVE",
"404 44 CURVE",
"388 77 LINE",
"335 52 OFFCURVE",
"283 30 OFFCURVE",
"219 30 CURVE SMOOTH",
"111 30 OFFCURVE",
"66 94 OFFCURVE",
"71 204 CURVE",
"200 205 LINE SMOOTH",
"344 205 OFFCURVE",
"439 264 OFFCURVE",
"439 376 CURVE SMOOTH",
"439 457 OFFCURVE",
"373 505 OFFCURVE",
"282 505 CURVE SMOOTH",
"128 505 OFFCURVE",
"46 360 OFFCURVE",
"28 231 CURVE SMOOTH",
"26 214 OFFCURVE",
"24 197 OFFCURVE",
"24 181 CURVE SMOOTH",
"24 69 OFFCURVE",
"83 -9 OFFCURVE",
"218 -9 CURVE SMOOTH"
);
},
{
closed = 1;
nodes = (
"83 326 OFFCURVE",
"152 469 OFFCURVE",
"284 469 CURVE SMOOTH",
"342 469 OFFCURVE",
"396 439 OFFCURVE",
"396 376 CURVE SMOOTH",
"396 370 OFFCURVE",
"396 364 OFFCURVE",
"395 358 CURVE SMOOTH",
"383 274 OFFCURVE",
"301 244 OFFCURVE",
"203 244 CURVE SMOOTH",
"74 243 LINE"
);
}
);
width = 456;
}
);
leftKerningGroup = o;
leftMetricsKey = c;
rightKerningGroup = c;
unicode = 0065;
userData = {
position = 382;
width = 57;
};
},
{
color = 1;
glyphname = e.ss02;
layers = (
{
anchors = (
{
name = bottom;
position = "{216, 0}";
},
{
name = ogonek;
position = "{413, 48}";
},
{
name = top;
position = "{284, 508}";
}
);
layerId = "873CAA12-270D-4223-A88E-AE8E101FDBE8";
paths = (
{
closed = 1;
nodes = (
"287 -11 OFFCURVE",
"358 12 OFFCURVE",
"413 47 CURVE",
"391 91 LINE",
"332 62 OFFCURVE",
"284 42 OFFCURVE",
"223 42 CURVE SMOOTH",
"104 42 OFFCURVE",
"83 123 OFFCURVE",
"83 183 CURVE SMOOTH",
"83 201 OFFCURVE",
"85 217 OFFCURVE",
"87 229 CURVE SMOOTH",
"108 381 OFFCURVE",
"194 459 OFFCURVE",
"285 459 CURVE SMOOTH",
"358 459 OFFCURVE",
"411 408 OFFCURVE",
"411 332 CURVE SMOOTH",
"411 324 OFFCURVE",
"410 316 OFFCURVE",
"409 307 CURVE SMOOTH",
"406 286 OFFCURVE",
"400 261 OFFCURVE",
"390 231 CURVE",
"448 227 LINE",
"453 252 OFFCURVE",
"460 275 OFFCURVE",
"462 296 CURVE SMOOTH",
"464 308 OFFCURVE",
"465 320 OFFCURVE",
"465 331 CURVE SMOOTH",
"465 436 OFFCURVE",
"392 508 OFFCURVE",
"285 508 CURVE SMOOTH",
"142 508 OFFCURVE",
"48 379 OFFCURVE",
"28 238 CURVE SMOOTH",
"26 221 OFFCURVE",
"25 205 OFFCURVE",
"25 189 CURVE SMOOTH",
"25 70 OFFCURVE",
"91 -11 OFFCURVE",
"219 -11 CURVE SMOOTH"
);
},
{
closed = 1;
nodes = (
"430 229 LINE",
"438 283 LINE",
"55 283 LINE",
"47 229 LINE"
);
}
);
width = 484;
},
{
anchors = (
{
name = bottom;
position = "{221, 11}";
},
{
name = ogonek;
position = "{412, 58}";
},
{
name = top;
position = "{288, 504}";
}
);
layerId = "0CAF3BED-C4AC-4024-B3E1-4C69D1EF7EC0";
paths = (
{
closed = 1;
nodes = (
"295 -11 OFFCURVE",
"373 15 OFFCURVE",
"429 54 CURVE",
"396 115 LINE",
"335 84 OFFCURVE",
"290 64 OFFCURVE",
"230 64 CURVE SMOOTH",
"124 64 OFFCURVE",
"105 134 OFFCURVE",
"105 188 CURVE SMOOTH",
"105 206 OFFCURVE",
"107 221 OFFCURVE",
"109 233 CURVE SMOOTH",
"128 374 OFFCURVE",
"206 445 OFFCURVE",
"287 445 CURVE SMOOTH",
"352 445 OFFCURVE",
"399 398 OFFCURVE",
"399 331 CURVE SMOOTH",
"399 324 OFFCURVE",
"398 316 OFFCURVE",
"397 309 CURVE SMOOTH",
"394 287 OFFCURVE",
"386 259 OFFCURVE",
"375 224 CURVE",
"456 220 LINE",
"462 248 OFFCURVE",
"469 274 OFFCURVE",
"473 298 CURVE SMOOTH",
"475 309 OFFCURVE",
"475 320 OFFCURVE",
"475 331 CURVE SMOOTH",
"475 439 OFFCURVE",
"399 516 OFFCURVE",
"290 516 CURVE SMOOTH",
"145 516 OFFCURVE",
"48 382 OFFCURVE",
"28 242 CURVE SMOOTH",
"26 225 OFFCURVE",
"24 209 OFFCURVE",
"24 193 CURVE SMOOTH",
"24 73 OFFCURVE",
"94 -11 OFFCURVE",
"223 -11 CURVE SMOOTH"
);
},
{
closed = 1;
nodes = (
"439 222 LINE",
"450 297 LINE",
"56 297 LINE",
"45 222 LINE"
);
}
);
width = 497;
},
{
anchors = (
{
name = bottom;
position = "{213, -6}";
},
{
name = ogonek;
position = "{414, 43}";
},
{
name = top;
position = "{283, 512}";
}
);
layerId = "49C16FD3-6177-408B-A733-AEB3898BB77C";
paths = (
{
closed = 1;
nodes = (
"282 -10 OFFCURVE",
"350 11 OFFCURVE",
"405 44 CURVE",
"389 77 LINE",
"330 49 OFFCURVE",
"282 30 OFFCURVE",
"221 30 CURVE SMOOTH",
"93 30 OFFCURVE",
"72 118 OFFCURVE",
"72 183 CURVE SMOOTH",
"72 201 OFFCURVE",
"73 218 OFFCURVE",
"75 230 CURVE SMOOTH",
"97 387 OFFCURVE",
"188 469 OFFCURVE",
"283 469 CURVE SMOOTH",
"362 469 OFFCURVE",
"419 412 OFFCURVE",
"419 330 CURVE SMOOTH",
"419 322 OFFCURVE",
"418 314 OFFCURVE",
"417 305 CURVE SMOOTH",
"414 286 OFFCURVE",
"409 263 OFFCURVE",
"400 236 CURVE",
"445 234 LINE",
"450 257 OFFCURVE",
"455 278 OFFCURVE",
"458 298 CURVE SMOOTH",
"460 310 OFFCURVE",
"460 322 OFFCURVE",
"460 333 CURVE SMOOTH",
"460 436 OFFCURVE",
"391 505 OFFCURVE",
"285 505 CURVE SMOOTH",
"142 505 OFFCURVE",
"49 378 OFFCURVE",
"29 235 CURVE SMOOTH",
"27 217 OFFCURVE",
"25 201 OFFCURVE",
"25 185 CURVE SMOOTH",
"25 67 OFFCURVE",
"89 -10 OFFCURVE",
"215 -10 CURVE SMOOTH"
);
},
{
closed = 1;
nodes = (
"426 235 LINE",
"432 276 LINE",
"55 276 LINE",
"49 235 LINE"
);
}
);
width = 479;
}
);
leftKerningGroup = o;
leftMetricsKey = c;
rightKerningGroup = c;
userData = {
position = 382;
width = 57;
};
},
